G04 #@! TF.FileFunction,Legend,Bot*
%FSLAX46Y46*%
G04 Gerber Fmt 4.6, Leading zero omitted, Abs format (unit mm)*
G04 Created by KiCad (PCBNEW 4.0.0-2.201512091501+6195~38~ubuntu14.04.1-stable) date Wed 16 Dec 2015 16:03:56 GMT*
%MOMM*%
G01*
G04 APERTURE LIST*
%ADD10C,0.100000*%
%ADD11C,0.120000*%
%ADD12C,0.110000*%
%ADD13C,0.150000*%
%ADD14C,0.200000*%
%ADD15C,0.300000*%
G04 APERTURE END LIST*
D10*
D11*
X102584000Y-101800381D02*
X103155429Y-101800381D01*
X102869715Y-101800381D02*
X102869715Y-100800381D01*
X102964953Y-100943238D01*
X103060191Y-101038476D01*
X103155429Y-101086095D01*
X102203048Y-100895619D02*
X102155429Y-100848000D01*
X102060191Y-100800381D01*
X101822095Y-100800381D01*
X101726857Y-100848000D01*
X101679238Y-100895619D01*
X101631619Y-100990857D01*
X101631619Y-101086095D01*
X101679238Y-101228952D01*
X102250667Y-101800381D01*
X101631619Y-101800381D01*
X101345905Y-100800381D02*
X101012572Y-101800381D01*
X100679238Y-100800381D01*
X103679238Y-102653714D02*
X103298286Y-102653714D01*
X103536381Y-102320381D02*
X103536381Y-103177524D01*
X103488762Y-103272762D01*
X103393524Y-103320381D01*
X103298286Y-103320381D01*
X102964952Y-103320381D02*
X102964952Y-102653714D01*
X102964952Y-102320381D02*
X103012571Y-102368000D01*
X102964952Y-102415619D01*
X102917333Y-102368000D01*
X102964952Y-102320381D01*
X102964952Y-102415619D01*
X102488762Y-102653714D02*
X102488762Y-103653714D01*
X102488762Y-102701333D02*
X102393524Y-102653714D01*
X102203047Y-102653714D01*
X102107809Y-102701333D01*
X102060190Y-102748952D01*
X102012571Y-102844190D01*
X102012571Y-103129905D01*
X102060190Y-103225143D01*
X102107809Y-103272762D01*
X102203047Y-103320381D01*
X102393524Y-103320381D01*
X102488762Y-103272762D01*
X101584000Y-102939429D02*
X100822095Y-102939429D01*
X101203047Y-103320381D02*
X101203047Y-102558476D01*
D12*
X137910666Y-106042667D02*
X137777333Y-106042667D01*
X137710666Y-106076000D01*
X137643999Y-106142667D01*
X137610666Y-106276000D01*
X137610666Y-106509333D01*
X137643999Y-106642667D01*
X137710666Y-106709333D01*
X137777333Y-106742667D01*
X137910666Y-106742667D01*
X137977333Y-106709333D01*
X138043999Y-106642667D01*
X138077333Y-106509333D01*
X138077333Y-106276000D01*
X138043999Y-106142667D01*
X137977333Y-106076000D01*
X137910666Y-106042667D01*
X137310666Y-106742667D02*
X137310666Y-106042667D01*
X136910666Y-106742667D01*
X136910666Y-106042667D01*
X136077333Y-106009333D02*
X136677333Y-106909333D01*
X135710667Y-106042667D02*
X135577334Y-106042667D01*
X135510667Y-106076000D01*
X135444000Y-106142667D01*
X135410667Y-106276000D01*
X135410667Y-106509333D01*
X135444000Y-106642667D01*
X135510667Y-106709333D01*
X135577334Y-106742667D01*
X135710667Y-106742667D01*
X135777334Y-106709333D01*
X135844000Y-106642667D01*
X135877334Y-106509333D01*
X135877334Y-106276000D01*
X135844000Y-106142667D01*
X135777334Y-106076000D01*
X135710667Y-106042667D01*
X134877334Y-106376000D02*
X135110667Y-106376000D01*
X135110667Y-106742667D02*
X135110667Y-106042667D01*
X134777334Y-106042667D01*
X134277334Y-106376000D02*
X134510667Y-106376000D01*
X134510667Y-106742667D02*
X134510667Y-106042667D01*
X134177334Y-106042667D01*
X148361333Y-142906000D02*
X148427999Y-142872667D01*
X148527999Y-142872667D01*
X148627999Y-142906000D01*
X148694666Y-142972667D01*
X148727999Y-143039333D01*
X148761333Y-143172667D01*
X148761333Y-143272667D01*
X148727999Y-143406000D01*
X148694666Y-143472667D01*
X148627999Y-143539333D01*
X148527999Y-143572667D01*
X148461333Y-143572667D01*
X148361333Y-143539333D01*
X148327999Y-143506000D01*
X148327999Y-143272667D01*
X148461333Y-143272667D01*
X148027999Y-143572667D02*
X148027999Y-142872667D01*
X147627999Y-143572667D01*
X147627999Y-142872667D01*
X147294666Y-143572667D02*
X147294666Y-142872667D01*
X147128000Y-142872667D01*
X147028000Y-142906000D01*
X146961333Y-142972667D01*
X146928000Y-143039333D01*
X146894666Y-143172667D01*
X146894666Y-143272667D01*
X146928000Y-143406000D01*
X146961333Y-143472667D01*
X147028000Y-143539333D01*
X147128000Y-143572667D01*
X147294666Y-143572667D01*
X145721334Y-143572667D02*
X146121334Y-143572667D01*
X145921334Y-143572667D02*
X145921334Y-142872667D01*
X145988000Y-142972667D01*
X146054667Y-143039333D01*
X146121334Y-143072667D01*
X145454667Y-142939333D02*
X145421333Y-142906000D01*
X145354667Y-142872667D01*
X145188000Y-142872667D01*
X145121333Y-142906000D01*
X145088000Y-142939333D01*
X145054667Y-143006000D01*
X145054667Y-143072667D01*
X145088000Y-143172667D01*
X145488000Y-143572667D01*
X145054667Y-143572667D01*
X144854666Y-142872667D02*
X144621333Y-143572667D01*
X144388000Y-142872667D01*
D13*
X121497714Y-119869143D02*
X121497714Y-120783429D01*
X121954857Y-120326286D02*
X121040571Y-120326286D01*
X120754857Y-121926286D02*
X120754857Y-121354857D01*
X121326286Y-121297714D01*
X121269143Y-121354857D01*
X121212000Y-121469143D01*
X121212000Y-121754857D01*
X121269143Y-121869143D01*
X121326286Y-121926286D01*
X121440571Y-121983429D01*
X121726286Y-121983429D01*
X121840571Y-121926286D01*
X121897714Y-121869143D01*
X121954857Y-121754857D01*
X121954857Y-121469143D01*
X121897714Y-121354857D01*
X121840571Y-121297714D01*
X120754857Y-122326286D02*
X121954857Y-122726286D01*
X120754857Y-123126286D01*
D14*
X122215219Y-124460000D02*
G75*
G03X122215219Y-124460000I-803219J0D01*
G01*
D13*
X111112000Y-137753714D02*
X110197714Y-137753714D01*
X110654857Y-138210857D02*
X110654857Y-137296571D01*
X109740571Y-137010857D02*
X108997714Y-137010857D01*
X109397714Y-137468000D01*
X109226286Y-137468000D01*
X109112000Y-137525143D01*
X109054857Y-137582286D01*
X108997714Y-137696571D01*
X108997714Y-137982286D01*
X109054857Y-138096571D01*
X109112000Y-138153714D01*
X109226286Y-138210857D01*
X109569143Y-138210857D01*
X109683429Y-138153714D01*
X109740571Y-138096571D01*
X108483429Y-138096571D02*
X108426286Y-138153714D01*
X108483429Y-138210857D01*
X108540572Y-138153714D01*
X108483429Y-138096571D01*
X108483429Y-138210857D01*
X108026285Y-137010857D02*
X107283428Y-137010857D01*
X107683428Y-137468000D01*
X107512000Y-137468000D01*
X107397714Y-137525143D01*
X107340571Y-137582286D01*
X107283428Y-137696571D01*
X107283428Y-137982286D01*
X107340571Y-138096571D01*
X107397714Y-138153714D01*
X107512000Y-138210857D01*
X107854857Y-138210857D01*
X107969143Y-138153714D01*
X108026285Y-138096571D01*
X106940571Y-137010857D02*
X106540571Y-138210857D01*
X106140571Y-137010857D01*
D14*
X110531219Y-139700000D02*
G75*
G03X110531219Y-139700000I-803219J0D01*
G01*
D13*
X108289714Y-122568000D02*
X108289714Y-123482286D01*
X108746857Y-123025143D02*
X107832571Y-123025143D01*
X107661143Y-123996571D02*
X107604000Y-124053714D01*
X107546857Y-124168000D01*
X107546857Y-124453714D01*
X107604000Y-124568000D01*
X107661143Y-124625143D01*
X107775429Y-124682286D01*
X107889714Y-124682286D01*
X108061143Y-124625143D01*
X108746857Y-123939429D01*
X108746857Y-124682286D01*
X108632571Y-125196571D02*
X108689714Y-125253714D01*
X108746857Y-125196571D01*
X108689714Y-125139428D01*
X108632571Y-125196571D01*
X108746857Y-125196571D01*
X108061143Y-125939429D02*
X108004000Y-125825143D01*
X107946857Y-125768000D01*
X107832571Y-125710857D01*
X107775429Y-125710857D01*
X107661143Y-125768000D01*
X107604000Y-125825143D01*
X107546857Y-125939429D01*
X107546857Y-126168000D01*
X107604000Y-126282286D01*
X107661143Y-126339429D01*
X107775429Y-126396572D01*
X107832571Y-126396572D01*
X107946857Y-126339429D01*
X108004000Y-126282286D01*
X108061143Y-126168000D01*
X108061143Y-125939429D01*
X108118286Y-125825143D01*
X108175429Y-125768000D01*
X108289714Y-125710857D01*
X108518286Y-125710857D01*
X108632571Y-125768000D01*
X108689714Y-125825143D01*
X108746857Y-125939429D01*
X108746857Y-126168000D01*
X108689714Y-126282286D01*
X108632571Y-126339429D01*
X108518286Y-126396572D01*
X108289714Y-126396572D01*
X108175429Y-126339429D01*
X108118286Y-126282286D01*
X108061143Y-126168000D01*
X107546857Y-126739429D02*
X108746857Y-127139429D01*
X107546857Y-127539429D01*
D14*
X107991219Y-128524000D02*
G75*
G03X107991219Y-128524000I-803219J0D01*
G01*
X105959219Y-111252000D02*
G75*
G03X105959219Y-111252000I-803219J0D01*
G01*
D13*
X107270285Y-109305714D02*
X106355999Y-109305714D01*
X106813142Y-109762857D02*
X106813142Y-108848571D01*
X105155999Y-109762857D02*
X105841714Y-109762857D01*
X105498856Y-109762857D02*
X105498856Y-108562857D01*
X105613142Y-108734286D01*
X105727428Y-108848571D01*
X105841714Y-108905714D01*
X104698857Y-108677143D02*
X104641714Y-108620000D01*
X104527428Y-108562857D01*
X104241714Y-108562857D01*
X104127428Y-108620000D01*
X104070285Y-108677143D01*
X104013142Y-108791429D01*
X104013142Y-108905714D01*
X104070285Y-109077143D01*
X104755999Y-109762857D01*
X104013142Y-109762857D01*
X103670285Y-108562857D02*
X103270285Y-109762857D01*
X102870285Y-108562857D01*
D11*
X102219047Y-108148381D02*
X102790476Y-108148381D01*
X102504762Y-108148381D02*
X102504762Y-107148381D01*
X102600000Y-107291238D01*
X102695238Y-107386476D01*
X102790476Y-107434095D01*
X101838095Y-107243619D02*
X101790476Y-107196000D01*
X101695238Y-107148381D01*
X101457142Y-107148381D01*
X101361904Y-107196000D01*
X101314285Y-107243619D01*
X101266666Y-107338857D01*
X101266666Y-107434095D01*
X101314285Y-107576952D01*
X101885714Y-108148381D01*
X101266666Y-108148381D01*
X100980952Y-107148381D02*
X100647619Y-108148381D01*
X100314285Y-107148381D01*
X102790476Y-118419619D02*
X102742857Y-118372000D01*
X102647619Y-118324381D01*
X102409523Y-118324381D01*
X102314285Y-118372000D01*
X102266666Y-118419619D01*
X102219047Y-118514857D01*
X102219047Y-118610095D01*
X102266666Y-118752952D01*
X102838095Y-119324381D01*
X102219047Y-119324381D01*
X101933333Y-118324381D02*
X101600000Y-119324381D01*
X101266666Y-118324381D01*
X100790476Y-118752952D02*
X100885714Y-118705333D01*
X100933333Y-118657714D01*
X100980952Y-118562476D01*
X100980952Y-118514857D01*
X100933333Y-118419619D01*
X100885714Y-118372000D01*
X100790476Y-118324381D01*
X100599999Y-118324381D01*
X100504761Y-118372000D01*
X100457142Y-118419619D01*
X100409523Y-118514857D01*
X100409523Y-118562476D01*
X100457142Y-118657714D01*
X100504761Y-118705333D01*
X100599999Y-118752952D01*
X100790476Y-118752952D01*
X100885714Y-118800571D01*
X100933333Y-118848190D01*
X100980952Y-118943429D01*
X100980952Y-119133905D01*
X100933333Y-119229143D01*
X100885714Y-119276762D01*
X100790476Y-119324381D01*
X100599999Y-119324381D01*
X100504761Y-119276762D01*
X100457142Y-119229143D01*
X100409523Y-119133905D01*
X100409523Y-118943429D01*
X100457142Y-118848190D01*
X100504761Y-118800571D01*
X100599999Y-118752952D01*
X101790476Y-127976381D02*
X102266667Y-127976381D01*
X102314286Y-128452571D01*
X102266667Y-128404952D01*
X102171429Y-128357333D01*
X101933333Y-128357333D01*
X101838095Y-128404952D01*
X101790476Y-128452571D01*
X101742857Y-128547810D01*
X101742857Y-128785905D01*
X101790476Y-128881143D01*
X101838095Y-128928762D01*
X101933333Y-128976381D01*
X102171429Y-128976381D01*
X102266667Y-128928762D01*
X102314286Y-128881143D01*
X101457143Y-127976381D02*
X101123810Y-128976381D01*
X100790476Y-127976381D01*
X102838095Y-137628381D02*
X102219047Y-137628381D01*
X102552381Y-138009333D01*
X102409523Y-138009333D01*
X102314285Y-138056952D01*
X102266666Y-138104571D01*
X102219047Y-138199810D01*
X102219047Y-138437905D01*
X102266666Y-138533143D01*
X102314285Y-138580762D01*
X102409523Y-138628381D01*
X102695238Y-138628381D01*
X102790476Y-138580762D01*
X102838095Y-138533143D01*
X101933333Y-137628381D02*
X101600000Y-138628381D01*
X101266666Y-137628381D01*
X101028571Y-137628381D02*
X100409523Y-137628381D01*
X100742857Y-138009333D01*
X100599999Y-138009333D01*
X100504761Y-138056952D01*
X100457142Y-138104571D01*
X100409523Y-138199810D01*
X100409523Y-138437905D01*
X100457142Y-138533143D01*
X100504761Y-138580762D01*
X100599999Y-138628381D01*
X100885714Y-138628381D01*
X100980952Y-138580762D01*
X101028571Y-138533143D01*
D13*
X101699060Y-112367060D02*
X101699060Y-112168940D01*
X101699060Y-112168940D02*
X101500940Y-112168940D01*
X101500940Y-112367060D02*
X101500940Y-112168940D01*
X101699060Y-112367060D02*
X101500940Y-112367060D01*
X102298500Y-111818420D02*
X102298500Y-111470440D01*
X102298500Y-111470440D02*
X102049580Y-111470440D01*
X102049580Y-111818420D02*
X102049580Y-111470440D01*
X102298500Y-111818420D02*
X102049580Y-111818420D01*
X102298500Y-111470440D02*
X102298500Y-111368840D01*
X102298500Y-111368840D02*
X101102160Y-111368840D01*
X101102160Y-111470440D02*
X101102160Y-111368840D01*
X102298500Y-111470440D02*
X101102160Y-111470440D01*
X101051360Y-111470440D02*
X101051360Y-111368840D01*
X101051360Y-111368840D02*
X100901500Y-111368840D01*
X100901500Y-111470440D02*
X100901500Y-111368840D01*
X101051360Y-111470440D02*
X100901500Y-111470440D01*
X102298500Y-113167160D02*
X102298500Y-113065560D01*
X102298500Y-113065560D02*
X101102160Y-113065560D01*
X101102160Y-113167160D02*
X101102160Y-113065560D01*
X102298500Y-113167160D02*
X101102160Y-113167160D01*
X101051360Y-113167160D02*
X101051360Y-113065560D01*
X101051360Y-113065560D02*
X100901500Y-113065560D01*
X100901500Y-113167160D02*
X100901500Y-113065560D01*
X101051360Y-113167160D02*
X100901500Y-113167160D01*
X102298500Y-111818420D02*
X102298500Y-111668560D01*
X102298500Y-111668560D02*
X102049580Y-111668560D01*
X102049580Y-111818420D02*
X102049580Y-111668560D01*
X102298500Y-111818420D02*
X102049580Y-111818420D01*
X102349300Y-110718600D02*
X102349300Y-113817400D01*
X102349300Y-113817400D02*
X100850700Y-113817400D01*
X100850700Y-113817400D02*
X100850700Y-110718600D01*
X100850700Y-110718600D02*
X102349300Y-110718600D01*
X102099354Y-112815262D02*
G75*
G03X102097840Y-111719360I-499354J547262D01*
G01*
X101101602Y-112816133D02*
G75*
G03X102097840Y-112816640I498398J548133D01*
G01*
X101100646Y-111720738D02*
G75*
G03X101102160Y-112816640I499354J-547262D01*
G01*
X102098398Y-111719867D02*
G75*
G03X101102160Y-111719360I-498398J-548133D01*
G01*
X101699060Y-141323060D02*
X101699060Y-141124940D01*
X101699060Y-141124940D02*
X101500940Y-141124940D01*
X101500940Y-141323060D02*
X101500940Y-141124940D01*
X101699060Y-141323060D02*
X101500940Y-141323060D01*
X102298500Y-140774420D02*
X102298500Y-140426440D01*
X102298500Y-140426440D02*
X102049580Y-140426440D01*
X102049580Y-140774420D02*
X102049580Y-140426440D01*
X102298500Y-140774420D02*
X102049580Y-140774420D01*
X102298500Y-140426440D02*
X102298500Y-140324840D01*
X102298500Y-140324840D02*
X101102160Y-140324840D01*
X101102160Y-140426440D02*
X101102160Y-140324840D01*
X102298500Y-140426440D02*
X101102160Y-140426440D01*
X101051360Y-140426440D02*
X101051360Y-140324840D01*
X101051360Y-140324840D02*
X100901500Y-140324840D01*
X100901500Y-140426440D02*
X100901500Y-140324840D01*
X101051360Y-140426440D02*
X100901500Y-140426440D01*
X102298500Y-142123160D02*
X102298500Y-142021560D01*
X102298500Y-142021560D02*
X101102160Y-142021560D01*
X101102160Y-142123160D02*
X101102160Y-142021560D01*
X102298500Y-142123160D02*
X101102160Y-142123160D01*
X101051360Y-142123160D02*
X101051360Y-142021560D01*
X101051360Y-142021560D02*
X100901500Y-142021560D01*
X100901500Y-142123160D02*
X100901500Y-142021560D01*
X101051360Y-142123160D02*
X100901500Y-142123160D01*
X102298500Y-140774420D02*
X102298500Y-140624560D01*
X102298500Y-140624560D02*
X102049580Y-140624560D01*
X102049580Y-140774420D02*
X102049580Y-140624560D01*
X102298500Y-140774420D02*
X102049580Y-140774420D01*
X102349300Y-139674600D02*
X102349300Y-142773400D01*
X102349300Y-142773400D02*
X100850700Y-142773400D01*
X100850700Y-142773400D02*
X100850700Y-139674600D01*
X100850700Y-139674600D02*
X102349300Y-139674600D01*
X102099354Y-141771262D02*
G75*
G03X102097840Y-140675360I-499354J547262D01*
G01*
X101101602Y-141772133D02*
G75*
G03X102097840Y-141772640I498398J548133D01*
G01*
X101100646Y-140676738D02*
G75*
G03X101102160Y-141772640I499354J-547262D01*
G01*
X102098398Y-140675867D02*
G75*
G03X101102160Y-140675360I-498398J-548133D01*
G01*
X101699060Y-131671060D02*
X101699060Y-131472940D01*
X101699060Y-131472940D02*
X101500940Y-131472940D01*
X101500940Y-131671060D02*
X101500940Y-131472940D01*
X101699060Y-131671060D02*
X101500940Y-131671060D01*
X102298500Y-131122420D02*
X102298500Y-130774440D01*
X102298500Y-130774440D02*
X102049580Y-130774440D01*
X102049580Y-131122420D02*
X102049580Y-130774440D01*
X102298500Y-131122420D02*
X102049580Y-131122420D01*
X102298500Y-130774440D02*
X102298500Y-130672840D01*
X102298500Y-130672840D02*
X101102160Y-130672840D01*
X101102160Y-130774440D02*
X101102160Y-130672840D01*
X102298500Y-130774440D02*
X101102160Y-130774440D01*
X101051360Y-130774440D02*
X101051360Y-130672840D01*
X101051360Y-130672840D02*
X100901500Y-130672840D01*
X100901500Y-130774440D02*
X100901500Y-130672840D01*
X101051360Y-130774440D02*
X100901500Y-130774440D01*
X102298500Y-132471160D02*
X102298500Y-132369560D01*
X102298500Y-132369560D02*
X101102160Y-132369560D01*
X101102160Y-132471160D02*
X101102160Y-132369560D01*
X102298500Y-132471160D02*
X101102160Y-132471160D01*
X101051360Y-132471160D02*
X101051360Y-132369560D01*
X101051360Y-132369560D02*
X100901500Y-132369560D01*
X100901500Y-132471160D02*
X100901500Y-132369560D01*
X101051360Y-132471160D02*
X100901500Y-132471160D01*
X102298500Y-131122420D02*
X102298500Y-130972560D01*
X102298500Y-130972560D02*
X102049580Y-130972560D01*
X102049580Y-131122420D02*
X102049580Y-130972560D01*
X102298500Y-131122420D02*
X102049580Y-131122420D01*
X102349300Y-130022600D02*
X102349300Y-133121400D01*
X102349300Y-133121400D02*
X100850700Y-133121400D01*
X100850700Y-133121400D02*
X100850700Y-130022600D01*
X100850700Y-130022600D02*
X102349300Y-130022600D01*
X102099354Y-132119262D02*
G75*
G03X102097840Y-131023360I-499354J547262D01*
G01*
X101101602Y-132120133D02*
G75*
G03X102097840Y-132120640I498398J548133D01*
G01*
X101100646Y-131024738D02*
G75*
G03X101102160Y-132120640I499354J-547262D01*
G01*
X102098398Y-131023867D02*
G75*
G03X101102160Y-131023360I-498398J-548133D01*
G01*
X101699060Y-122019060D02*
X101699060Y-121820940D01*
X101699060Y-121820940D02*
X101500940Y-121820940D01*
X101500940Y-122019060D02*
X101500940Y-121820940D01*
X101699060Y-122019060D02*
X101500940Y-122019060D01*
X102298500Y-121470420D02*
X102298500Y-121122440D01*
X102298500Y-121122440D02*
X102049580Y-121122440D01*
X102049580Y-121470420D02*
X102049580Y-121122440D01*
X102298500Y-121470420D02*
X102049580Y-121470420D01*
X102298500Y-121122440D02*
X102298500Y-121020840D01*
X102298500Y-121020840D02*
X101102160Y-121020840D01*
X101102160Y-121122440D02*
X101102160Y-121020840D01*
X102298500Y-121122440D02*
X101102160Y-121122440D01*
X101051360Y-121122440D02*
X101051360Y-121020840D01*
X101051360Y-121020840D02*
X100901500Y-121020840D01*
X100901500Y-121122440D02*
X100901500Y-121020840D01*
X101051360Y-121122440D02*
X100901500Y-121122440D01*
X102298500Y-122819160D02*
X102298500Y-122717560D01*
X102298500Y-122717560D02*
X101102160Y-122717560D01*
X101102160Y-122819160D02*
X101102160Y-122717560D01*
X102298500Y-122819160D02*
X101102160Y-122819160D01*
X101051360Y-122819160D02*
X101051360Y-122717560D01*
X101051360Y-122717560D02*
X100901500Y-122717560D01*
X100901500Y-122819160D02*
X100901500Y-122717560D01*
X101051360Y-122819160D02*
X100901500Y-122819160D01*
X102298500Y-121470420D02*
X102298500Y-121320560D01*
X102298500Y-121320560D02*
X102049580Y-121320560D01*
X102049580Y-121470420D02*
X102049580Y-121320560D01*
X102298500Y-121470420D02*
X102049580Y-121470420D01*
X102349300Y-120370600D02*
X102349300Y-123469400D01*
X102349300Y-123469400D02*
X100850700Y-123469400D01*
X100850700Y-123469400D02*
X100850700Y-120370600D01*
X100850700Y-120370600D02*
X102349300Y-120370600D01*
X102099354Y-122467262D02*
G75*
G03X102097840Y-121371360I-499354J547262D01*
G01*
X101101602Y-122468133D02*
G75*
G03X102097840Y-122468640I498398J548133D01*
G01*
X101100646Y-121372738D02*
G75*
G03X101102160Y-122468640I499354J-547262D01*
G01*
X102098398Y-121371867D02*
G75*
G03X101102160Y-121371360I-498398J-548133D01*
G01*
X112410240Y-141448840D02*
X112410240Y-141497100D01*
X111709200Y-144247820D02*
X112410240Y-144247820D01*
X112410240Y-144247820D02*
X112410240Y-143998900D01*
X112410240Y-141448840D02*
X112410240Y-141248180D01*
X112410240Y-141248180D02*
X111709200Y-141248180D01*
D15*
X116184000Y-140176000D02*
X115484000Y-140176000D01*
X115484000Y-136176000D02*
X116184000Y-136176000D01*
X115484000Y-136176000D02*
X115484000Y-140176000D01*
X135984000Y-138176000D02*
G75*
G03X135984000Y-138176000I-10000000J0D01*
G01*
D13*
X138676000Y-124294000D02*
X137676000Y-124294000D01*
X137676000Y-122594000D02*
X138676000Y-122594000D01*
X111901000Y-138592000D02*
X111901000Y-139792000D01*
X113651000Y-139792000D02*
X113651000Y-138592000D01*
X112889000Y-128616000D02*
X112889000Y-127416000D01*
X111139000Y-127416000D02*
X111139000Y-128616000D01*
X100725000Y-115732000D02*
X100725000Y-116932000D01*
X102475000Y-116932000D02*
X102475000Y-115732000D01*
X100725000Y-135036000D02*
X100725000Y-136236000D01*
X102475000Y-136236000D02*
X102475000Y-135036000D01*
X100725000Y-144688000D02*
X100725000Y-145888000D01*
X102475000Y-145888000D02*
X102475000Y-144688000D01*
X100725000Y-125384000D02*
X100725000Y-126584000D01*
X102475000Y-126584000D02*
X102475000Y-125384000D01*
X143738000Y-149378000D02*
X143738000Y-147828000D01*
X145288000Y-149378000D02*
X143738000Y-149378000D01*
X145288000Y-149378000D02*
X143738000Y-149378000D01*
X146558000Y-149098000D02*
X146558000Y-146558000D01*
X146558000Y-146558000D02*
X144018000Y-146558000D01*
X144018000Y-146558000D02*
X144018000Y-144018000D01*
X144018000Y-144018000D02*
X149098000Y-144018000D01*
X149098000Y-144018000D02*
X149098000Y-149098000D01*
X149098000Y-149098000D02*
X146558000Y-149098000D01*
D11*
X103739905Y-111677524D02*
X102939905Y-111677524D01*
X102939905Y-111868000D01*
X102978000Y-111982286D01*
X103054190Y-112058477D01*
X103130381Y-112096572D01*
X103282762Y-112134667D01*
X103397048Y-112134667D01*
X103549429Y-112096572D01*
X103625619Y-112058477D01*
X103701810Y-111982286D01*
X103739905Y-111868000D01*
X103739905Y-111677524D01*
X103206571Y-112820381D02*
X103739905Y-112820381D01*
X102901810Y-112629905D02*
X103473238Y-112439429D01*
X103473238Y-112934667D01*
X106533905Y-140633524D02*
X105733905Y-140633524D01*
X105733905Y-140824000D01*
X105772000Y-140938286D01*
X105848190Y-141014477D01*
X105924381Y-141052572D01*
X106076762Y-141090667D01*
X106191048Y-141090667D01*
X106343429Y-141052572D01*
X106419619Y-141014477D01*
X106495810Y-140938286D01*
X106533905Y-140824000D01*
X106533905Y-140633524D01*
X105733905Y-141776381D02*
X105733905Y-141624000D01*
X105772000Y-141547810D01*
X105810095Y-141509715D01*
X105924381Y-141433524D01*
X106076762Y-141395429D01*
X106381524Y-141395429D01*
X106457714Y-141433524D01*
X106495810Y-141471619D01*
X106533905Y-141547810D01*
X106533905Y-141700191D01*
X106495810Y-141776381D01*
X106457714Y-141814477D01*
X106381524Y-141852572D01*
X106191048Y-141852572D01*
X106114857Y-141814477D01*
X106076762Y-141776381D01*
X106038667Y-141700191D01*
X106038667Y-141547810D01*
X106076762Y-141471619D01*
X106114857Y-141433524D01*
X106191048Y-141395429D01*
X106533905Y-130981524D02*
X105733905Y-130981524D01*
X105733905Y-131172000D01*
X105772000Y-131286286D01*
X105848190Y-131362477D01*
X105924381Y-131400572D01*
X106076762Y-131438667D01*
X106191048Y-131438667D01*
X106343429Y-131400572D01*
X106419619Y-131362477D01*
X106495810Y-131286286D01*
X106533905Y-131172000D01*
X106533905Y-130981524D01*
X105733905Y-132162477D02*
X105733905Y-131781524D01*
X106114857Y-131743429D01*
X106076762Y-131781524D01*
X106038667Y-131857715D01*
X106038667Y-132048191D01*
X106076762Y-132124381D01*
X106114857Y-132162477D01*
X106191048Y-132200572D01*
X106381524Y-132200572D01*
X106457714Y-132162477D01*
X106495810Y-132124381D01*
X106533905Y-132048191D01*
X106533905Y-131857715D01*
X106495810Y-131781524D01*
X106457714Y-131743429D01*
X106533905Y-121329524D02*
X105733905Y-121329524D01*
X105733905Y-121520000D01*
X105772000Y-121634286D01*
X105848190Y-121710477D01*
X105924381Y-121748572D01*
X106076762Y-121786667D01*
X106191048Y-121786667D01*
X106343429Y-121748572D01*
X106419619Y-121710477D01*
X106495810Y-121634286D01*
X106533905Y-121520000D01*
X106533905Y-121329524D01*
X105733905Y-122053334D02*
X105733905Y-122586667D01*
X106533905Y-122243810D01*
D13*
X114462381Y-142009905D02*
X113462381Y-142009905D01*
X113462381Y-142248000D01*
X113510000Y-142390858D01*
X113605238Y-142486096D01*
X113700476Y-142533715D01*
X113890952Y-142581334D01*
X114033810Y-142581334D01*
X114224286Y-142533715D01*
X114319524Y-142486096D01*
X114414762Y-142390858D01*
X114462381Y-142248000D01*
X114462381Y-142009905D01*
X113462381Y-142914667D02*
X113462381Y-143533715D01*
X113843333Y-143200381D01*
X113843333Y-143343239D01*
X113890952Y-143438477D01*
X113938571Y-143486096D01*
X114033810Y-143533715D01*
X114271905Y-143533715D01*
X114367143Y-143486096D01*
X114414762Y-143438477D01*
X114462381Y-143343239D01*
X114462381Y-143057524D01*
X114414762Y-142962286D01*
X114367143Y-142914667D01*
X118133714Y-146232571D02*
X117990857Y-146280190D01*
X117943238Y-146327810D01*
X117895619Y-146423048D01*
X117895619Y-146565905D01*
X117943238Y-146661143D01*
X117990857Y-146708762D01*
X118086095Y-146756381D01*
X118467048Y-146756381D01*
X118467048Y-145756381D01*
X118133714Y-145756381D01*
X118038476Y-145804000D01*
X117990857Y-145851619D01*
X117943238Y-145946857D01*
X117943238Y-146042095D01*
X117990857Y-146137333D01*
X118038476Y-146184952D01*
X118133714Y-146232571D01*
X118467048Y-146232571D01*
X117609905Y-145756381D02*
X117038476Y-145756381D01*
X117324191Y-146756381D02*
X117324191Y-145756381D01*
X116181333Y-146756381D02*
X116752762Y-146756381D01*
X116467048Y-146756381D02*
X116467048Y-145756381D01*
X116562286Y-145899238D01*
X116657524Y-145994476D01*
X116752762Y-146042095D01*
X118466857Y-148280381D02*
X118466857Y-147280381D01*
X118133523Y-147994667D01*
X117800190Y-147280381D01*
X117800190Y-148280381D01*
X116847809Y-148280381D02*
X117324000Y-148280381D01*
X117324000Y-147280381D01*
X116562095Y-147375619D02*
X116514476Y-147328000D01*
X116419238Y-147280381D01*
X116181142Y-147280381D01*
X116085904Y-147328000D01*
X116038285Y-147375619D01*
X115990666Y-147470857D01*
X115990666Y-147566095D01*
X116038285Y-147708952D01*
X116609714Y-148280381D01*
X115990666Y-148280381D01*
X115371619Y-147280381D02*
X115276380Y-147280381D01*
X115181142Y-147328000D01*
X115133523Y-147375619D01*
X115085904Y-147470857D01*
X115038285Y-147661333D01*
X115038285Y-147899429D01*
X115085904Y-148089905D01*
X115133523Y-148185143D01*
X115181142Y-148232762D01*
X115276380Y-148280381D01*
X115371619Y-148280381D01*
X115466857Y-148232762D01*
X115514476Y-148185143D01*
X115562095Y-148089905D01*
X115609714Y-147899429D01*
X115609714Y-147661333D01*
X115562095Y-147470857D01*
X115514476Y-147375619D01*
X115466857Y-147328000D01*
X115371619Y-147280381D01*
X114085904Y-148280381D02*
X114657333Y-148280381D01*
X114371619Y-148280381D02*
X114371619Y-147280381D01*
X114466857Y-147423238D01*
X114562095Y-147518476D01*
X114657333Y-147566095D01*
X113228761Y-147280381D02*
X113419238Y-147280381D01*
X113514476Y-147328000D01*
X113562095Y-147375619D01*
X113657333Y-147518476D01*
X113704952Y-147708952D01*
X113704952Y-148089905D01*
X113657333Y-148185143D01*
X113609714Y-148232762D01*
X113514476Y-148280381D01*
X113323999Y-148280381D01*
X113228761Y-148232762D01*
X113181142Y-148185143D01*
X113133523Y-148089905D01*
X113133523Y-147851810D01*
X113181142Y-147756571D01*
X113228761Y-147708952D01*
X113323999Y-147661333D01*
X113514476Y-147661333D01*
X113609714Y-147708952D01*
X113657333Y-147756571D01*
X113704952Y-147851810D01*
X119125905Y-138318857D02*
X117602095Y-138318857D01*
X118364000Y-139080762D02*
X118364000Y-137556952D01*
D11*
X139198286Y-125253714D02*
X139236381Y-125291810D01*
X139350667Y-125329905D01*
X139426857Y-125329905D01*
X139541143Y-125291810D01*
X139617334Y-125215619D01*
X139655429Y-125139429D01*
X139693524Y-124987048D01*
X139693524Y-124872762D01*
X139655429Y-124720381D01*
X139617334Y-124644190D01*
X139541143Y-124568000D01*
X139426857Y-124529905D01*
X139350667Y-124529905D01*
X139236381Y-124568000D01*
X139198286Y-124606095D01*
X138436381Y-125329905D02*
X138893524Y-125329905D01*
X138664953Y-125329905D02*
X138664953Y-124529905D01*
X138741143Y-124644190D01*
X138817334Y-124720381D01*
X138893524Y-124758476D01*
X137674476Y-125329905D02*
X138131619Y-125329905D01*
X137903048Y-125329905D02*
X137903048Y-124529905D01*
X137979238Y-124644190D01*
X138055429Y-124720381D01*
X138131619Y-124758476D01*
X112909333Y-137521905D02*
X113176000Y-137140952D01*
X113366476Y-137521905D02*
X113366476Y-136721905D01*
X113061714Y-136721905D01*
X112985523Y-136760000D01*
X112947428Y-136798095D01*
X112909333Y-136874286D01*
X112909333Y-136988571D01*
X112947428Y-137064762D01*
X112985523Y-137102857D01*
X113061714Y-137140952D01*
X113366476Y-137140952D01*
X112642666Y-136721905D02*
X112109333Y-136721905D01*
X112452190Y-137521905D01*
X110851905Y-127501714D02*
X110470952Y-127235047D01*
X110851905Y-127044571D02*
X110051905Y-127044571D01*
X110051905Y-127349333D01*
X110090000Y-127425524D01*
X110128095Y-127463619D01*
X110204286Y-127501714D01*
X110318571Y-127501714D01*
X110394762Y-127463619D01*
X110432857Y-127425524D01*
X110470952Y-127349333D01*
X110470952Y-127044571D01*
X110851905Y-128263619D02*
X110851905Y-127806476D01*
X110851905Y-128035047D02*
X110051905Y-128035047D01*
X110166190Y-127958857D01*
X110242381Y-127882666D01*
X110280476Y-127806476D01*
X110851905Y-129025524D02*
X110851905Y-128568381D01*
X110851905Y-128796952D02*
X110051905Y-128796952D01*
X110166190Y-128720762D01*
X110242381Y-128644571D01*
X110280476Y-128568381D01*
X106533905Y-115817714D02*
X106152952Y-115551047D01*
X106533905Y-115360571D02*
X105733905Y-115360571D01*
X105733905Y-115665333D01*
X105772000Y-115741524D01*
X105810095Y-115779619D01*
X105886286Y-115817714D01*
X106000571Y-115817714D01*
X106076762Y-115779619D01*
X106114857Y-115741524D01*
X106152952Y-115665333D01*
X106152952Y-115360571D01*
X106533905Y-116579619D02*
X106533905Y-116122476D01*
X106533905Y-116351047D02*
X105733905Y-116351047D01*
X105848190Y-116274857D01*
X105924381Y-116198666D01*
X105962476Y-116122476D01*
X106000571Y-117265333D02*
X106533905Y-117265333D01*
X105695810Y-117074857D02*
X106267238Y-116884381D01*
X106267238Y-117379619D01*
X106533905Y-135121714D02*
X106152952Y-134855047D01*
X106533905Y-134664571D02*
X105733905Y-134664571D01*
X105733905Y-134969333D01*
X105772000Y-135045524D01*
X105810095Y-135083619D01*
X105886286Y-135121714D01*
X106000571Y-135121714D01*
X106076762Y-135083619D01*
X106114857Y-135045524D01*
X106152952Y-134969333D01*
X106152952Y-134664571D01*
X106533905Y-135883619D02*
X106533905Y-135426476D01*
X106533905Y-135655047D02*
X105733905Y-135655047D01*
X105848190Y-135578857D01*
X105924381Y-135502666D01*
X105962476Y-135426476D01*
X105733905Y-136607429D02*
X105733905Y-136226476D01*
X106114857Y-136188381D01*
X106076762Y-136226476D01*
X106038667Y-136302667D01*
X106038667Y-136493143D01*
X106076762Y-136569333D01*
X106114857Y-136607429D01*
X106191048Y-136645524D01*
X106381524Y-136645524D01*
X106457714Y-136607429D01*
X106495810Y-136569333D01*
X106533905Y-136493143D01*
X106533905Y-136302667D01*
X106495810Y-136226476D01*
X106457714Y-136188381D01*
X106533905Y-144773714D02*
X106152952Y-144507047D01*
X106533905Y-144316571D02*
X105733905Y-144316571D01*
X105733905Y-144621333D01*
X105772000Y-144697524D01*
X105810095Y-144735619D01*
X105886286Y-144773714D01*
X106000571Y-144773714D01*
X106076762Y-144735619D01*
X106114857Y-144697524D01*
X106152952Y-144621333D01*
X106152952Y-144316571D01*
X106533905Y-145535619D02*
X106533905Y-145078476D01*
X106533905Y-145307047D02*
X105733905Y-145307047D01*
X105848190Y-145230857D01*
X105924381Y-145154666D01*
X105962476Y-145078476D01*
X105733905Y-146221333D02*
X105733905Y-146068952D01*
X105772000Y-145992762D01*
X105810095Y-145954667D01*
X105924381Y-145878476D01*
X106076762Y-145840381D01*
X106381524Y-145840381D01*
X106457714Y-145878476D01*
X106495810Y-145916571D01*
X106533905Y-145992762D01*
X106533905Y-146145143D01*
X106495810Y-146221333D01*
X106457714Y-146259429D01*
X106381524Y-146297524D01*
X106191048Y-146297524D01*
X106114857Y-146259429D01*
X106076762Y-146221333D01*
X106038667Y-146145143D01*
X106038667Y-145992762D01*
X106076762Y-145916571D01*
X106114857Y-145878476D01*
X106191048Y-145840381D01*
X106533905Y-125469714D02*
X106152952Y-125203047D01*
X106533905Y-125012571D02*
X105733905Y-125012571D01*
X105733905Y-125317333D01*
X105772000Y-125393524D01*
X105810095Y-125431619D01*
X105886286Y-125469714D01*
X106000571Y-125469714D01*
X106076762Y-125431619D01*
X106114857Y-125393524D01*
X106152952Y-125317333D01*
X106152952Y-125012571D01*
X106533905Y-126231619D02*
X106533905Y-125774476D01*
X106533905Y-126003047D02*
X105733905Y-126003047D01*
X105848190Y-125926857D01*
X105924381Y-125850666D01*
X105962476Y-125774476D01*
X105733905Y-126498286D02*
X105733905Y-127031619D01*
X106533905Y-126688762D01*
D12*
X143264666Y-144588667D02*
X143264666Y-143888667D01*
X142998000Y-143888667D01*
X142931333Y-143922000D01*
X142898000Y-143955333D01*
X142864666Y-144022000D01*
X142864666Y-144122000D01*
X142898000Y-144188667D01*
X142931333Y-144222000D01*
X142998000Y-144255333D01*
X143264666Y-144255333D01*
X142531333Y-144588667D02*
X142398000Y-144588667D01*
X142331333Y-144555333D01*
X142298000Y-144522000D01*
X142231333Y-144422000D01*
X142198000Y-144288667D01*
X142198000Y-144022000D01*
X142231333Y-143955333D01*
X142264666Y-143922000D01*
X142331333Y-143888667D01*
X142464666Y-143888667D01*
X142531333Y-143922000D01*
X142564666Y-143955333D01*
X142598000Y-144022000D01*
X142598000Y-144188667D01*
X142564666Y-144255333D01*
X142531333Y-144288667D01*
X142464666Y-144322000D01*
X142331333Y-144322000D01*
X142264666Y-144288667D01*
X142231333Y-144255333D01*
X142198000Y-144188667D01*
M02*
