G04 #@! TF.FileFunction,Soldermask,Bot*
%FSLAX46Y46*%
G04 Gerber Fmt 4.6, Leading zero omitted, Abs format (unit mm)*
G04 Created by KiCad (PCBNEW 4.0.0-2.201512091501+6195~38~ubuntu14.04.1-stable) date Wed 16 Dec 2015 16:03:56 GMT*
%MOMM*%
G01*
G04 APERTURE LIST*
%ADD10C,0.100000*%
%ADD11R,1.800860X1.597660*%
%ADD12R,0.800100X0.800100*%
%ADD13C,2.900000*%
%ADD14C,1.900000*%
%ADD15C,4.800600*%
%ADD16R,4.800600X4.800600*%
%ADD17R,1.727200X2.032000*%
%ADD18O,1.727200X2.032000*%
%ADD19C,1.800000*%
%ADD20C,2.100000*%
%ADD21R,1.000000X1.250000*%
%ADD22R,1.300000X0.700000*%
%ADD23R,3.100000X2.400000*%
%ADD24C,1.143000*%
%ADD25R,3.000000X3.600000*%
%ADD26R,2.032000X1.727200*%
%ADD27O,2.032000X1.727200*%
%ADD28R,1.727200X1.727200*%
%ADD29O,1.727200X1.727200*%
G04 APERTURE END LIST*
D10*
D11*
X101600000Y-113687860D03*
X101600000Y-110848140D03*
X101600000Y-142643860D03*
X101600000Y-139804140D03*
X101600000Y-132991860D03*
X101600000Y-130152140D03*
X101600000Y-123339860D03*
X101600000Y-120500140D03*
D12*
X110759240Y-143698000D03*
X110759240Y-141798000D03*
X112758220Y-142748000D03*
D13*
X115484000Y-138176000D03*
D14*
X135984000Y-138176000D03*
D15*
X110744000Y-102616000D03*
D16*
X110744000Y-108712000D03*
D15*
X105664000Y-104902000D03*
D17*
X129032000Y-105156000D03*
D18*
X126492000Y-105156000D03*
X123952000Y-105156000D03*
D19*
X138394000Y-102382000D03*
X133894000Y-102382000D03*
D20*
X139644000Y-104882000D03*
X132644000Y-104882000D03*
D21*
X137176000Y-123444000D03*
X139176000Y-123444000D03*
D22*
X112776000Y-140142000D03*
X112776000Y-138242000D03*
X112014000Y-127066000D03*
X112014000Y-128966000D03*
D23*
X115062000Y-128016000D03*
D22*
X101600000Y-117282000D03*
X101600000Y-115382000D03*
X101600000Y-136586000D03*
X101600000Y-134686000D03*
X101600000Y-146238000D03*
X101600000Y-144338000D03*
X101600000Y-126934000D03*
X101600000Y-125034000D03*
D24*
X105156000Y-111252000D03*
X121412000Y-124460000D03*
X109728000Y-139700000D03*
X107188000Y-128524000D03*
D25*
X141732000Y-124968000D03*
D26*
X104140000Y-115316000D03*
D27*
X104140000Y-117856000D03*
X104140000Y-120396000D03*
X104140000Y-122936000D03*
X104140000Y-125476000D03*
X104140000Y-128016000D03*
X104140000Y-130556000D03*
X104140000Y-133096000D03*
X104140000Y-135636000D03*
X104140000Y-138176000D03*
X104140000Y-140716000D03*
X104140000Y-143256000D03*
X104140000Y-145796000D03*
X104140000Y-148336000D03*
D28*
X145288000Y-147828000D03*
D29*
X145288000Y-145288000D03*
X147828000Y-147828000D03*
X147828000Y-145288000D03*
M02*
