M48
METRIC,TZ
T1C0.500
T2C0.635
T3C0.889
T4C0.900
T5C1.000
T6C1.016
T7C1.300
T8C1.500
T9C1.900
%
G90
G05
T1
X101600Y-109220
X111252Y-143764
X112522Y-125984
X112522Y-130048
X127508Y-140208
X129540Y-142748
X130556Y-116840
X132588Y-139192
X136652Y-120904
X136652Y-125984
X137160Y-124460
X140208Y-134620
T2
X105156Y-111252
X107188Y-128524
X109728Y-139700
X121412Y-124460
T3
X114300Y-112776
X116332Y-112776
X118364Y-139700
X118872Y-118872
X125476Y-128016
X127242Y-129806
X134620Y-131572
X145288Y-128524
X145288Y-130556
T4
X135984Y-138176
T5
X133894Y-102382
X138394Y-102382
T6
X104140Y-115316
X104140Y-117856
X104140Y-120396
X104140Y-122936
X104140Y-125476
X104140Y-128016
X104140Y-130556
X104140Y-133096
X104140Y-135636
X104140Y-138176
X104140Y-140716
X104140Y-143256
X104140Y-145796
X104140Y-148336
X123952Y-105156
X126492Y-105156
X129032Y-105156
X145288Y-145288
X145288Y-147828
X147828Y-145288
X147828Y-147828
T7
X132644Y-104882
X139644Y-104882
T8
X115062Y-128016
X141732Y-124968
T9
X115484Y-138176
T6
X105664Y-104140G85X105664Y-105664
G05
X111506Y-102616G85X109982Y-102616
G05
X111506Y-108712G85X109982Y-108712
G05
T0
M30
