G04 #@! TF.FileFunction,Copper,L1,Top,Signal*
%FSLAX46Y46*%
G04 Gerber Fmt 4.6, Leading zero omitted, Abs format (unit mm)*
G04 Created by KiCad (PCBNEW 4.0.2-4+6225~38~ubuntu14.04.1-stable) date Fri 18 Mar 2016 20:19:54 GMT*
%MOMM*%
G01*
G04 APERTURE LIST*
%ADD10C,0.100000*%
%ADD11R,2.029460X2.651760*%
%ADD12C,2.900000*%
%ADD13C,1.900000*%
%ADD14R,3.500000X4.000000*%
%ADD15R,2.413000X5.334000*%
%ADD16C,4.800600*%
%ADD17R,4.800600X4.800600*%
%ADD18R,1.500000X3.500000*%
%ADD19R,1.727200X2.032000*%
%ADD20O,1.727200X2.032000*%
%ADD21C,1.800000*%
%ADD22C,2.100000*%
%ADD23R,2.032000X3.657600*%
%ADD24R,2.032000X1.016000*%
%ADD25R,1.250000X1.000000*%
%ADD26R,1.300000X0.700000*%
%ADD27R,1.000000X2.500000*%
%ADD28R,0.700000X1.300000*%
%ADD29R,2.500000X1.000000*%
%ADD30R,1.000000X1.250000*%
%ADD31R,1.950720X2.499360*%
%ADD32R,0.600000X1.600000*%
%ADD33R,3.100000X2.400000*%
%ADD34C,1.143000*%
%ADD35R,1.400000X0.400000*%
%ADD36R,3.000000X3.600000*%
%ADD37R,0.599440X1.399540*%
%ADD38R,0.800100X1.800860*%
%ADD39R,1.800860X0.800100*%
%ADD40R,2.032000X1.727200*%
%ADD41O,2.032000X1.727200*%
%ADD42R,1.727200X1.727200*%
%ADD43O,1.727200X1.727200*%
%ADD44R,0.900000X0.900000*%
%ADD45C,1.000000*%
%ADD46C,2.000000*%
%ADD47C,0.254000*%
%ADD48C,0.508000*%
%ADD49C,2.000000*%
%ADD50C,1.016000*%
%ADD51C,1.500000*%
%ADD52C,0.381000*%
G04 APERTURE END LIST*
D10*
D11*
X116840000Y-108765340D03*
X116840000Y-104594660D03*
D12*
X115484000Y-138176000D03*
D13*
X135984000Y-138176000D03*
D14*
X133782000Y-125984000D03*
X124282000Y-125984000D03*
D15*
X115887500Y-117348000D03*
X108648500Y-117348000D03*
D16*
X110744000Y-102616000D03*
D17*
X110744000Y-108712000D03*
D16*
X105664000Y-104902000D03*
D18*
X127381000Y-141772000D03*
X128651000Y-146772000D03*
X129921000Y-141772000D03*
X131191000Y-146772000D03*
X132461000Y-141772000D03*
X133731000Y-146772000D03*
D19*
X129032000Y-105156000D03*
D20*
X126492000Y-105156000D03*
X123952000Y-105156000D03*
D21*
X138394000Y-102382000D03*
X133894000Y-102382000D03*
D22*
X139644000Y-104882000D03*
X132644000Y-104882000D03*
D23*
X107442000Y-144018000D03*
D24*
X114046000Y-144018000D03*
X114046000Y-141732000D03*
X114046000Y-146304000D03*
D25*
X118110000Y-131588000D03*
X118110000Y-133588000D03*
X116078000Y-132604000D03*
X116078000Y-134604000D03*
D26*
X114046000Y-132654000D03*
X114046000Y-134554000D03*
D27*
X109498000Y-135128000D03*
X112498000Y-135128000D03*
D28*
X109540000Y-132588000D03*
X111440000Y-132588000D03*
D29*
X109982000Y-124992000D03*
X109982000Y-127992000D03*
D30*
X108982000Y-130556000D03*
X110982000Y-130556000D03*
X124444000Y-111252000D03*
X122444000Y-111252000D03*
D25*
X126492000Y-109712000D03*
X126492000Y-107712000D03*
D30*
X118888000Y-115316000D03*
X120888000Y-115316000D03*
X126508000Y-114300000D03*
X128508000Y-114300000D03*
D27*
X144756000Y-129540000D03*
X141756000Y-129540000D03*
D31*
X120421400Y-142240000D03*
X117322600Y-142240000D03*
D30*
X144764000Y-120904000D03*
X142764000Y-120904000D03*
D31*
X120421400Y-145796000D03*
X117322600Y-145796000D03*
D30*
X142224000Y-118872000D03*
X140224000Y-118872000D03*
X139684000Y-128524000D03*
X137684000Y-128524000D03*
D29*
X130048000Y-132612000D03*
X130048000Y-135612000D03*
X133604000Y-132612000D03*
X133604000Y-135612000D03*
D30*
X116062000Y-123444000D03*
X114062000Y-123444000D03*
D26*
X122428000Y-107762000D03*
X122428000Y-109662000D03*
X124460000Y-107762000D03*
X124460000Y-109662000D03*
D28*
X124394000Y-113284000D03*
X122494000Y-113284000D03*
D26*
X128524000Y-115890000D03*
X128524000Y-117790000D03*
D28*
X125034000Y-117348000D03*
X126934000Y-117348000D03*
D26*
X146304000Y-123002000D03*
X146304000Y-124902000D03*
D28*
X141158000Y-120904000D03*
X139258000Y-120904000D03*
X136210000Y-120904000D03*
X138110000Y-120904000D03*
D26*
X138176000Y-119314000D03*
X138176000Y-117414000D03*
D32*
X113187000Y-125316000D03*
X113187000Y-130716000D03*
X114437000Y-125316000D03*
X115687000Y-125316000D03*
X116937000Y-125316000D03*
X114437000Y-130716000D03*
X115687000Y-130716000D03*
X116937000Y-130716000D03*
D33*
X115062000Y-128016000D03*
D34*
X105156000Y-111252000D03*
X121412000Y-124460000D03*
X109728000Y-139700000D03*
X107188000Y-128524000D03*
D35*
X144526000Y-127228600D03*
X144526000Y-126593600D03*
X144526000Y-125933200D03*
X144526000Y-125298200D03*
X144526000Y-124637800D03*
X144526000Y-123990100D03*
X144526000Y-123342400D03*
X144526000Y-122694700D03*
X138938000Y-122694700D03*
X138938000Y-123342400D03*
X138938000Y-123990100D03*
X138938000Y-124637800D03*
X138938000Y-125298200D03*
X138938000Y-125945900D03*
X138938000Y-126593600D03*
X138938000Y-127241300D03*
D36*
X141732000Y-124968000D03*
D37*
X136271000Y-130429000D03*
X136271000Y-135763000D03*
X137541000Y-130429000D03*
X138811000Y-130429000D03*
X140081000Y-130429000D03*
X137541000Y-135763000D03*
X138811000Y-135763000D03*
X140081000Y-135763000D03*
D38*
X118938000Y-107673140D03*
X120838000Y-107673140D03*
X119888000Y-104670860D03*
D39*
X120373140Y-113218000D03*
X120373140Y-111318000D03*
X117370860Y-112268000D03*
X130025140Y-112202000D03*
X130025140Y-110302000D03*
X127022860Y-111252000D03*
D40*
X104140000Y-115316000D03*
D41*
X104140000Y-117856000D03*
X104140000Y-120396000D03*
X104140000Y-122936000D03*
X104140000Y-125476000D03*
X104140000Y-128016000D03*
X104140000Y-130556000D03*
X104140000Y-133096000D03*
X104140000Y-135636000D03*
X104140000Y-138176000D03*
X104140000Y-140716000D03*
X104140000Y-143256000D03*
X104140000Y-145796000D03*
X104140000Y-148336000D03*
D42*
X145288000Y-147828000D03*
D43*
X145288000Y-145288000D03*
X147828000Y-147828000D03*
X147828000Y-145288000D03*
D26*
X123190000Y-117094000D03*
X123190000Y-118994000D03*
D44*
X132588000Y-108419000D03*
X132588000Y-110529000D03*
X122389000Y-115316000D03*
X124499000Y-115316000D03*
D45*
X101600000Y-109220000D03*
X127508000Y-140208000D03*
D46*
X118872000Y-118872000D03*
X114300000Y-112776000D03*
X145288000Y-130556000D03*
X116332000Y-112776000D03*
X145288000Y-128524000D03*
D45*
X112522000Y-125984000D03*
D46*
X118364000Y-139700000D03*
X125476000Y-128016000D03*
X127242000Y-129806000D03*
D45*
X136652000Y-120904000D03*
D46*
X134620000Y-131572000D03*
D45*
X111252000Y-143764000D03*
X132588000Y-139192000D03*
X130556000Y-116840000D03*
X129540000Y-142748000D03*
X112522000Y-130048000D03*
X140208000Y-134620000D03*
X136652000Y-125984000D03*
X137160000Y-124460000D03*
D47*
X147828000Y-145288000D02*
X148336000Y-145796000D01*
X148336000Y-145796000D02*
X148590000Y-145796000D01*
X148590000Y-145796000D02*
X148336000Y-145796000D01*
X147828000Y-147828000D02*
X148336000Y-147828000D01*
X148336000Y-147828000D02*
X148844000Y-147828000D01*
X148844000Y-147828000D02*
X148336000Y-147828000D01*
X142748000Y-148336000D02*
X143510000Y-149098000D01*
X143510000Y-149098000D02*
X146558000Y-149098000D01*
X147828000Y-147828000D02*
X146558000Y-149098000D01*
D48*
X110744000Y-102616000D02*
X108966000Y-100838000D01*
X100838000Y-108458000D02*
X101600000Y-109220000D01*
X100838000Y-100838000D02*
X100838000Y-108458000D01*
X108966000Y-100838000D02*
X100838000Y-100838000D01*
X110744000Y-102616000D02*
X109220000Y-101092000D01*
D49*
X129032000Y-101600000D02*
X111760000Y-101600000D01*
X111760000Y-101600000D02*
X110744000Y-102616000D01*
X133894000Y-102382000D02*
X133112000Y-101600000D01*
X133112000Y-101600000D02*
X129032000Y-101600000D01*
D48*
X141224000Y-101600000D02*
X140462000Y-100838000D01*
D49*
X141224000Y-101600000D02*
X148336000Y-101600000D01*
X148336000Y-123952000D02*
X148336000Y-101600000D01*
D48*
X135438000Y-100838000D02*
X133894000Y-102382000D01*
X140462000Y-100838000D02*
X135438000Y-100838000D01*
D50*
X135984000Y-138176000D02*
X135984000Y-144519000D01*
X135984000Y-144519000D02*
X133731000Y-146772000D01*
X129032000Y-105156000D02*
X129032000Y-101600000D01*
D51*
X146304000Y-123002000D02*
X146370000Y-122936000D01*
X146370000Y-122936000D02*
X148336000Y-123952000D01*
D49*
X133731000Y-146772000D02*
X135295000Y-148336000D01*
X135295000Y-148336000D02*
X142748000Y-148336000D01*
X148336000Y-148336000D02*
X148336000Y-147828000D01*
X148336000Y-147828000D02*
X148336000Y-145796000D01*
X148336000Y-145796000D02*
X148336000Y-123952000D01*
X131191000Y-146772000D02*
X133731000Y-146772000D01*
X128651000Y-146772000D02*
X131191000Y-146772000D01*
X119634000Y-148590000D02*
X126833000Y-148590000D01*
X126833000Y-148590000D02*
X128651000Y-146772000D01*
X120421400Y-145796000D02*
X120421400Y-142240000D01*
X111760000Y-148590000D02*
X119634000Y-148590000D01*
X120421400Y-147802600D02*
X120421400Y-145796000D01*
X119634000Y-148590000D02*
X120421400Y-147802600D01*
D51*
X133604000Y-135612000D02*
X134644000Y-135612000D01*
X134644000Y-135612000D02*
X136144000Y-134112000D01*
X136144000Y-134112000D02*
X136144000Y-134620000D01*
X133604000Y-135612000D02*
X130048000Y-135612000D01*
D52*
X136144000Y-122428000D02*
X136906000Y-123190000D01*
X136652000Y-122428000D02*
X137160000Y-122936000D01*
X137160000Y-122428000D02*
X137160000Y-123190000D01*
X137160000Y-123190000D02*
X137160000Y-122936000D01*
X137160000Y-122936000D02*
X137160000Y-123190000D01*
X137668000Y-122936000D02*
X137160000Y-122428000D01*
X137160000Y-122428000D02*
X136652000Y-122428000D01*
X136652000Y-122428000D02*
X136144000Y-122428000D01*
X136144000Y-122428000D02*
X135128000Y-122428000D01*
X138938000Y-123990100D02*
X140754100Y-123990100D01*
X140754100Y-123990100D02*
X141732000Y-124968000D01*
D48*
X135636000Y-122936000D02*
X135890000Y-123190000D01*
X135890000Y-123190000D02*
X136906000Y-123190000D01*
X136906000Y-123190000D02*
X137160000Y-123190000D01*
X138430000Y-123698000D02*
X140462000Y-123698000D01*
X137160000Y-123190000D02*
X137922000Y-123190000D01*
X137922000Y-123190000D02*
X138430000Y-123698000D01*
X140462000Y-123698000D02*
X141732000Y-124968000D01*
D51*
X135128000Y-122428000D02*
X135636000Y-122936000D01*
D52*
X138074400Y-123342400D02*
X137668000Y-122936000D01*
X137668000Y-122936000D02*
X135636000Y-122936000D01*
X138074400Y-123342400D02*
X138938000Y-123342400D01*
X138938000Y-123990100D02*
X138214100Y-123990100D01*
X137566400Y-123342400D02*
X136042400Y-123342400D01*
X138214100Y-123990100D02*
X137566400Y-123342400D01*
X138938000Y-123342400D02*
X140106400Y-123342400D01*
X140106400Y-123342400D02*
X141732000Y-124968000D01*
D48*
X141732000Y-124968000D02*
X140462000Y-123698000D01*
D52*
X140754100Y-123990100D02*
X141732000Y-124968000D01*
X144526000Y-123990100D02*
X145757900Y-123990100D01*
X146304000Y-123444000D02*
X146304000Y-123002000D01*
X145757900Y-123990100D02*
X146304000Y-123444000D01*
D49*
X101600000Y-121920000D02*
X104140000Y-121920000D01*
X104140000Y-121920000D02*
X103632000Y-121920000D01*
X103632000Y-121920000D02*
X104140000Y-121920000D01*
X101600000Y-118872000D02*
X101600000Y-121920000D01*
X101600000Y-121920000D02*
X101600000Y-124714000D01*
X101600000Y-118872000D02*
X103378000Y-120396000D01*
X104140000Y-120396000D02*
X103378000Y-120396000D01*
X111760000Y-148590000D02*
X114046000Y-146304000D01*
X101600000Y-131826000D02*
X104140000Y-131826000D01*
X104140000Y-131826000D02*
X103632000Y-131826000D01*
X103632000Y-131826000D02*
X104140000Y-131826000D01*
X101600000Y-134874000D02*
X101600000Y-131826000D01*
X101600000Y-131826000D02*
X101600000Y-129286000D01*
X101600000Y-141986000D02*
X104140000Y-141986000D01*
X103632000Y-142494000D02*
X104140000Y-142494000D01*
X104140000Y-141986000D02*
X103632000Y-142494000D01*
X101600000Y-139446000D02*
X101600000Y-141986000D01*
X101600000Y-141986000D02*
X101600000Y-145034000D01*
X104140000Y-130556000D02*
X103124000Y-130556000D01*
X103124000Y-130556000D02*
X101600000Y-129286000D01*
X101600000Y-124714000D02*
X103124000Y-122936000D01*
X101600000Y-129286000D02*
X101600000Y-124714000D01*
X103124000Y-122936000D02*
X104140000Y-122936000D01*
X104140000Y-140716000D02*
X103124000Y-140716000D01*
X103124000Y-140716000D02*
X101600000Y-139446000D01*
X101600000Y-134874000D02*
X103124000Y-133096000D01*
X101600000Y-139446000D02*
X101600000Y-134874000D01*
X103124000Y-133096000D02*
X104140000Y-133096000D01*
X104140000Y-148336000D02*
X103124000Y-148336000D01*
X103124000Y-148336000D02*
X101600000Y-147066000D01*
X101600000Y-147066000D02*
X101600000Y-145034000D01*
X101600000Y-145034000D02*
X103124000Y-143256000D01*
X103124000Y-143256000D02*
X104140000Y-143256000D01*
X104140000Y-140716000D02*
X104140000Y-142494000D01*
X104140000Y-142494000D02*
X104140000Y-143256000D01*
X104140000Y-130556000D02*
X104140000Y-131826000D01*
X104140000Y-131826000D02*
X104140000Y-133096000D01*
X104140000Y-120396000D02*
X104140000Y-121920000D01*
X104140000Y-121920000D02*
X104140000Y-122936000D01*
D48*
X117602000Y-126492000D02*
X116586000Y-126492000D01*
X118110000Y-127000000D02*
X116078000Y-127000000D01*
X116078000Y-127000000D02*
X115062000Y-128016000D01*
X118618000Y-127508000D02*
X118110000Y-127000000D01*
X118110000Y-127000000D02*
X117602000Y-126492000D01*
X117602000Y-126492000D02*
X116937000Y-125827000D01*
X116937000Y-125827000D02*
X116937000Y-126141000D01*
X116937000Y-125316000D02*
X118618000Y-126997000D01*
X118618000Y-126997000D02*
X118618000Y-127508000D01*
X118618000Y-127508000D02*
X118618000Y-129032000D01*
X116937000Y-125316000D02*
X116937000Y-126141000D01*
X116937000Y-126141000D02*
X116586000Y-126492000D01*
X116586000Y-126492000D02*
X115062000Y-128016000D01*
D49*
X118110000Y-133588000D02*
X119142000Y-133588000D01*
X119142000Y-133588000D02*
X120142000Y-132588000D01*
X120142000Y-132588000D02*
X120142000Y-130556000D01*
X120142000Y-130556000D02*
X118618000Y-129032000D01*
X117602000Y-128016000D02*
X115062000Y-128016000D01*
X118618000Y-129032000D02*
X117602000Y-128016000D01*
X112498000Y-135128000D02*
X113472000Y-135128000D01*
X113472000Y-135128000D02*
X113996000Y-134604000D01*
D51*
X113996000Y-134604000D02*
X117094000Y-134604000D01*
D49*
X117094000Y-134604000D02*
X118110000Y-133588000D01*
X109982000Y-127992000D02*
X115038000Y-127992000D01*
X115038000Y-127992000D02*
X115062000Y-128016000D01*
D51*
X137541000Y-135763000D02*
X136271000Y-135763000D01*
D50*
X138176000Y-135763000D02*
X137541000Y-135763000D01*
X138811000Y-135763000D02*
X138176000Y-135763000D01*
D48*
X133755000Y-135763000D02*
X133604000Y-135612000D01*
D51*
X136271000Y-135763000D02*
X133755000Y-135763000D01*
D50*
X141732000Y-124968000D02*
X141732000Y-129516000D01*
X140716000Y-132080000D02*
X141732000Y-131064000D01*
X138811000Y-133985000D02*
X140716000Y-132080000D01*
X141732000Y-131064000D02*
X141732000Y-129516000D01*
X138811000Y-135763000D02*
X138811000Y-133985000D01*
D51*
X138110000Y-117348000D02*
X138176000Y-117414000D01*
X134620000Y-119888000D02*
X134620000Y-121920000D01*
X137160000Y-117348000D02*
X134620000Y-119888000D01*
X134620000Y-121920000D02*
X135128000Y-122428000D01*
X138110000Y-117348000D02*
X137160000Y-117348000D01*
X146304000Y-119888000D02*
X143764000Y-117348000D01*
X146304000Y-123002000D02*
X146304000Y-119888000D01*
X138242000Y-117348000D02*
X143764000Y-117348000D01*
X138176000Y-117414000D02*
X138242000Y-117348000D01*
D50*
X137668000Y-135128000D02*
X138811000Y-133985000D01*
X137541000Y-135255000D02*
X137668000Y-135128000D01*
X137541000Y-135763000D02*
X137541000Y-135255000D01*
X138176000Y-134620000D02*
X138176000Y-135128000D01*
X138176000Y-135128000D02*
X137668000Y-135128000D01*
X138176000Y-135763000D02*
X138176000Y-134620000D01*
X139700000Y-132080000D02*
X138684000Y-132080000D01*
X140716000Y-132080000D02*
X139700000Y-132080000D01*
D51*
X136652000Y-135763000D02*
X136271000Y-135763000D01*
X135636000Y-135763000D02*
X136652000Y-135763000D01*
D50*
X136652000Y-135128000D02*
X136652000Y-135763000D01*
X136017000Y-135763000D02*
X136652000Y-135128000D01*
X139700000Y-132080000D02*
X136017000Y-135763000D01*
X135636000Y-135128000D02*
X135636000Y-135763000D01*
X135001000Y-135763000D02*
X135636000Y-135128000D01*
X135152000Y-135612000D02*
X135001000Y-135763000D01*
X138684000Y-132080000D02*
X136144000Y-134620000D01*
X136144000Y-134620000D02*
X135152000Y-135612000D01*
X138684000Y-132080000D02*
X137668000Y-132080000D01*
X135152000Y-134596000D02*
X135152000Y-135612000D01*
X137668000Y-132080000D02*
X135152000Y-134596000D01*
X135152000Y-134596000D02*
X134620000Y-135128000D01*
D48*
X129032000Y-109308860D02*
X130025140Y-110302000D01*
X129032000Y-105156000D02*
X129032000Y-109308860D01*
X117944860Y-106680000D02*
X114808000Y-106680000D01*
X114808000Y-106680000D02*
X110744000Y-102616000D01*
X118938000Y-107673140D02*
X117944860Y-106680000D01*
D49*
X104394000Y-148590000D02*
X104140000Y-148336000D01*
X111760000Y-148590000D02*
X104394000Y-148590000D01*
X101600000Y-118872000D02*
X101600000Y-109220000D01*
D48*
X124444000Y-109678000D02*
X124444000Y-111252000D01*
X124460000Y-109662000D02*
X124444000Y-109678000D01*
X126442000Y-109662000D02*
X126492000Y-109712000D01*
X124460000Y-109662000D02*
X126442000Y-109662000D01*
X127022860Y-111252000D02*
X124444000Y-111252000D01*
X127022860Y-110242860D02*
X127022860Y-111252000D01*
X126492000Y-109712000D02*
X127022860Y-110242860D01*
X124394000Y-113284000D02*
X124394000Y-115211000D01*
X124394000Y-111302000D02*
X124394000Y-113284000D01*
X124444000Y-111252000D02*
X124394000Y-111302000D01*
X124394000Y-115211000D02*
X124499000Y-115316000D01*
X132588000Y-108419000D02*
X132588000Y-109222000D01*
X132588000Y-109222000D02*
X131306571Y-110503429D01*
X131306571Y-111009429D02*
X131064000Y-111252000D01*
X131306571Y-110503429D02*
X131306571Y-111009429D01*
X138394000Y-102382000D02*
X132588000Y-108188000D01*
X132588000Y-108188000D02*
X132588000Y-108419000D01*
X122444000Y-109678000D02*
X122444000Y-111252000D01*
X122428000Y-109662000D02*
X122444000Y-109678000D01*
X122428000Y-109662000D02*
X123378000Y-108712000D01*
X123378000Y-108712000D02*
X127508000Y-108712000D01*
X138394000Y-102382000D02*
X137863000Y-102382000D01*
X129032000Y-111252000D02*
X131064000Y-111252000D01*
X128016000Y-110236000D02*
X129032000Y-111252000D01*
X128016000Y-109220000D02*
X128016000Y-110236000D01*
X127508000Y-108712000D02*
X128016000Y-109220000D01*
X126492000Y-107712000D02*
X126492000Y-105156000D01*
D50*
X123190000Y-117094000D02*
X124780000Y-117094000D01*
X124780000Y-117094000D02*
X125034000Y-117348000D01*
X118888000Y-115316000D02*
X118888000Y-116348000D01*
X118888000Y-116348000D02*
X119634000Y-117094000D01*
X119634000Y-117094000D02*
X123190000Y-117094000D01*
X127381000Y-141772000D02*
X127381000Y-140335000D01*
X127381000Y-140335000D02*
X127508000Y-140208000D01*
D49*
X116332000Y-112776000D02*
X114300000Y-112776000D01*
D51*
X118872000Y-118872000D02*
X118872000Y-124968000D01*
X118872000Y-124968000D02*
X120904000Y-127000000D01*
X120904000Y-127000000D02*
X120904000Y-128016000D01*
X120904000Y-128016000D02*
X127381000Y-134493000D01*
X127381000Y-134493000D02*
X127381000Y-141772000D01*
D49*
X145288000Y-130556000D02*
X144756000Y-130024000D01*
X144756000Y-130024000D02*
X144756000Y-129540000D01*
X144756000Y-129056000D02*
X145288000Y-128524000D01*
X144756000Y-129056000D02*
X144756000Y-129540000D01*
X105156000Y-111252000D02*
X105156000Y-114554000D01*
X105156000Y-114554000D02*
X105156000Y-114300000D01*
X105156000Y-114300000D02*
X105156000Y-114554000D01*
X105156000Y-111252000D02*
X105410000Y-111252000D01*
X105410000Y-111252000D02*
X106934000Y-112776000D01*
X110236000Y-112776000D02*
X111530000Y-114070000D01*
X111530000Y-114070000D02*
X111530000Y-122912000D01*
X112522000Y-121920000D02*
X112522000Y-114554000D01*
X112522000Y-114554000D02*
X114300000Y-112776000D01*
D50*
X117370860Y-112268000D02*
X117370860Y-113798860D01*
X117370860Y-113798860D02*
X118888000Y-115316000D01*
D52*
X144526000Y-126593600D02*
X144526000Y-127228600D01*
X144526000Y-127228600D02*
X144526000Y-129310000D01*
X144526000Y-129310000D02*
X144756000Y-129540000D01*
D49*
X109982000Y-124992000D02*
X109982000Y-124460000D01*
X109982000Y-124460000D02*
X111530000Y-122912000D01*
D51*
X112522000Y-125984000D02*
X112522000Y-121920000D01*
D48*
X113187000Y-125316000D02*
X111530000Y-123659000D01*
X111506000Y-123952000D02*
X111530000Y-123952000D01*
X111530000Y-123928000D02*
X111506000Y-123952000D01*
X111530000Y-123659000D02*
X111530000Y-123928000D01*
D49*
X111530000Y-124992000D02*
X111530000Y-123952000D01*
X111530000Y-123952000D02*
X111530000Y-122912000D01*
X111530000Y-122912000D02*
X112522000Y-121920000D01*
D48*
X113187000Y-125316000D02*
X112863000Y-124992000D01*
X112863000Y-124992000D02*
X111530000Y-124992000D01*
D51*
X112522000Y-125984000D02*
X111530000Y-124992000D01*
D49*
X111530000Y-124992000D02*
X109982000Y-124992000D01*
D48*
X112522000Y-125984000D02*
X113187000Y-125319000D01*
X113187000Y-125319000D02*
X113187000Y-125316000D01*
D51*
X144756000Y-127458600D02*
X144526000Y-127228600D01*
D49*
X144756000Y-129540000D02*
X144756000Y-127458600D01*
X116862860Y-112776000D02*
X116332000Y-112776000D01*
X117370860Y-112268000D02*
X116862860Y-112776000D01*
X114300000Y-112776000D02*
X114808000Y-112776000D01*
X114808000Y-112776000D02*
X110236000Y-112776000D01*
X106934000Y-112776000D02*
X106299000Y-113411000D01*
X106299000Y-113411000D02*
X105156000Y-114554000D01*
X105156000Y-114554000D02*
X104140000Y-115316000D01*
X110236000Y-112776000D02*
X106934000Y-112776000D01*
X104140000Y-117856000D02*
X104140000Y-115316000D01*
D50*
X124968000Y-116840000D02*
X126508000Y-115300000D01*
X126508000Y-115300000D02*
X126508000Y-114300000D01*
X124968000Y-116840000D02*
X125034000Y-117348000D01*
X124968000Y-117282000D02*
X124968000Y-116840000D01*
X125034000Y-117348000D02*
X124968000Y-117282000D01*
X122494000Y-115211000D02*
X122494000Y-113284000D01*
D48*
X122389000Y-115316000D02*
X122494000Y-115211000D01*
D50*
X122494000Y-113792000D02*
X121484860Y-114801140D01*
X121484860Y-114801140D02*
X120373140Y-114801140D01*
X120373140Y-113792000D02*
X122494000Y-113792000D01*
X122494000Y-113792000D02*
X122494000Y-113792000D01*
X122494000Y-113792000D02*
X122428000Y-113792000D01*
X122428000Y-113792000D02*
X122494000Y-113284000D01*
X120373140Y-113218000D02*
X120373140Y-113792000D01*
X120373140Y-113792000D02*
X120373140Y-114801140D01*
X120373140Y-114801140D02*
X120888000Y-115316000D01*
X122428000Y-113218000D02*
X120373140Y-113218000D01*
D48*
X122494000Y-113284000D02*
X122428000Y-113218000D01*
X120373140Y-113218000D02*
X120380000Y-113224860D01*
D50*
X122389000Y-115316000D02*
X120888000Y-115316000D01*
D48*
X128508000Y-113719140D02*
X128508000Y-114300000D01*
X130025140Y-112202000D02*
X128508000Y-113719140D01*
X128508000Y-115874000D02*
X128508000Y-114300000D01*
X128524000Y-115890000D02*
X128508000Y-115874000D01*
D50*
X121412000Y-124460000D02*
X122758000Y-124460000D01*
X122758000Y-124460000D02*
X124282000Y-125984000D01*
X121412000Y-124460000D02*
X122936000Y-125984000D01*
X122936000Y-125984000D02*
X124282000Y-125984000D01*
D51*
X115824000Y-141732000D02*
X117856000Y-139700000D01*
X117856000Y-139700000D02*
X118364000Y-139700000D01*
D49*
X118364000Y-139700000D02*
X117322600Y-140741400D01*
X117322600Y-140741400D02*
X117322600Y-142240000D01*
D51*
X114046000Y-141732000D02*
X115824000Y-141732000D01*
X115824000Y-141732000D02*
X116332000Y-142240000D01*
X116332000Y-142240000D02*
X117322600Y-142240000D01*
D49*
X104140000Y-135636000D02*
X104140000Y-138176000D01*
X125476000Y-128016000D02*
X125464000Y-128028000D01*
X125464000Y-128028000D02*
X125476000Y-128016000D01*
X125476000Y-128016000D02*
X125476000Y-128040000D01*
D51*
X130048000Y-132612000D02*
X133604000Y-132612000D01*
X124282000Y-126846000D02*
X125476000Y-128040000D01*
X125476000Y-128040000D02*
X127242000Y-129806000D01*
X127242000Y-129806000D02*
X129794000Y-132358000D01*
D49*
X124282000Y-125730000D02*
X124282000Y-126846000D01*
D50*
X136652000Y-120904000D02*
X136210000Y-120904000D01*
X134620000Y-131596000D02*
X134620000Y-131572000D01*
D51*
X133604000Y-132612000D02*
X134620000Y-131596000D01*
X129794000Y-125730000D02*
X130810000Y-126746000D01*
X130810000Y-126746000D02*
X130810000Y-128270000D01*
X131064000Y-128524000D02*
X131572000Y-129032000D01*
X131572000Y-129032000D02*
X132080000Y-129032000D01*
X132080000Y-129032000D02*
X134620000Y-131572000D01*
X124282000Y-125730000D02*
X129794000Y-125730000D01*
X134596000Y-132612000D02*
X133604000Y-132612000D01*
X134620000Y-132588000D02*
X134596000Y-132612000D01*
X134620000Y-131572000D02*
X134620000Y-132588000D01*
D49*
X133534241Y-131502241D02*
X134689759Y-131502241D01*
X129032000Y-127000000D02*
X133534241Y-131502241D01*
X134620000Y-131572000D02*
X134689759Y-131572000D01*
X134689759Y-131502241D02*
X134689759Y-131572000D01*
X128016000Y-125984000D02*
X129032000Y-127000000D01*
X124282000Y-125984000D02*
X128016000Y-125984000D01*
X131064000Y-131572000D02*
X129298000Y-129806000D01*
X129298000Y-129806000D02*
X127242000Y-129806000D01*
X134620000Y-131572000D02*
X131064000Y-131572000D01*
X130048000Y-128016000D02*
X129540000Y-127508000D01*
X129540000Y-127508000D02*
X129032000Y-127508000D01*
X129032000Y-127508000D02*
X129032000Y-127000000D01*
X127508000Y-128016000D02*
X130048000Y-128016000D01*
X125476000Y-128016000D02*
X127508000Y-128016000D01*
X125476000Y-125984000D02*
X127508000Y-128016000D01*
X124282000Y-125984000D02*
X125476000Y-125984000D01*
D48*
X109728000Y-139700000D02*
X109728000Y-142240000D01*
X109728000Y-142240000D02*
X111252000Y-143764000D01*
D51*
X114046000Y-144018000D02*
X115062000Y-144018000D01*
X115062000Y-144018000D02*
X116840000Y-145796000D01*
X116840000Y-145796000D02*
X117322600Y-145796000D01*
D50*
X113538000Y-144018000D02*
X111252000Y-144018000D01*
D48*
X111252000Y-143764000D02*
X111252000Y-144018000D01*
D50*
X106172000Y-146812000D02*
X108712000Y-146812000D01*
X108712000Y-146812000D02*
X111252000Y-144272000D01*
X111252000Y-144272000D02*
X111252000Y-143764000D01*
X105156000Y-145796000D02*
X106172000Y-146812000D01*
X104140000Y-145796000D02*
X105156000Y-145796000D01*
D49*
X107188000Y-127508000D02*
X105918000Y-127508000D01*
X105918000Y-127508000D02*
X104140000Y-125476000D01*
X104140000Y-125476000D02*
X104140000Y-128016000D01*
X104140000Y-128016000D02*
X105138000Y-128016000D01*
X107188000Y-129032000D02*
X107188000Y-127508000D01*
X107188000Y-127508000D02*
X107188000Y-123952000D01*
X107188000Y-123952000D02*
X107188000Y-122936000D01*
X108982000Y-130826000D02*
X107188000Y-129032000D01*
X108648500Y-121475500D02*
X108648500Y-117348000D01*
X107188000Y-122936000D02*
X108648500Y-121475500D01*
X107188000Y-122936000D02*
X107188000Y-122936000D01*
X108982000Y-130826000D02*
X108982000Y-130556000D01*
X109498000Y-135128000D02*
X109498000Y-132630000D01*
X109498000Y-132630000D02*
X108982000Y-132114000D01*
X108982000Y-132114000D02*
X108982000Y-130556000D01*
X104884000Y-128016000D02*
X108982000Y-132114000D01*
X104140000Y-128016000D02*
X104884000Y-128016000D01*
X107188000Y-123444000D02*
X107188000Y-122936000D01*
X105156000Y-125476000D02*
X107188000Y-123444000D01*
X104140000Y-125476000D02*
X105156000Y-125476000D01*
D48*
X132588000Y-110529000D02*
X132588000Y-110626039D01*
X132588000Y-110626039D02*
X131572000Y-111642039D01*
X131572000Y-111642039D02*
X131572000Y-112776000D01*
X131572000Y-112776000D02*
X130048000Y-114300000D01*
X130048000Y-114300000D02*
X130048000Y-116266000D01*
X130048000Y-116266000D02*
X130048000Y-116332000D01*
X132461000Y-139319000D02*
X132461000Y-141772000D01*
X132588000Y-139192000D02*
X132461000Y-139319000D01*
X130048000Y-116332000D02*
X130556000Y-116840000D01*
X128082000Y-117348000D02*
X126934000Y-117348000D01*
X128524000Y-117790000D02*
X128082000Y-117348000D01*
X130048000Y-116266000D02*
X128524000Y-117790000D01*
D49*
X116786660Y-108712000D02*
X110744000Y-108712000D01*
X116840000Y-108765340D02*
X116786660Y-108712000D01*
X116916200Y-104670860D02*
X119888000Y-104670860D01*
X116840000Y-104594660D02*
X116916200Y-104670860D01*
D48*
X124460000Y-107762000D02*
X122428000Y-107762000D01*
X124460000Y-105664000D02*
X124460000Y-107762000D01*
X123952000Y-105156000D02*
X124460000Y-105664000D01*
X123355140Y-105156000D02*
X123952000Y-105156000D01*
X120838000Y-107673140D02*
X123355140Y-105156000D01*
X120926860Y-107762000D02*
X120838000Y-107673140D01*
X122428000Y-107762000D02*
X120926860Y-107762000D01*
D51*
X120373140Y-108138000D02*
X120373140Y-111318000D01*
X120838000Y-107673140D02*
X120373140Y-108138000D01*
D48*
X118110000Y-131588000D02*
X117809000Y-131588000D01*
X117809000Y-131588000D02*
X116937000Y-130716000D01*
X114437000Y-125316000D02*
X114437000Y-123819000D01*
X114437000Y-123819000D02*
X114062000Y-123444000D01*
X112522000Y-132654000D02*
X112522000Y-132588000D01*
X111440000Y-131506000D02*
X111440000Y-131014000D01*
X112522000Y-132588000D02*
X111440000Y-131506000D01*
X114437000Y-131572000D02*
X114437000Y-131689000D01*
X114437000Y-131689000D02*
X114046000Y-132080000D01*
X114046000Y-132080000D02*
X112506000Y-132080000D01*
X112506000Y-132080000D02*
X111440000Y-131014000D01*
X111440000Y-131014000D02*
X110982000Y-130556000D01*
X114437000Y-130716000D02*
X114437000Y-131572000D01*
X114437000Y-131572000D02*
X114437000Y-132263000D01*
X114437000Y-132263000D02*
X114046000Y-132654000D01*
D50*
X110982000Y-130556000D02*
X111440000Y-131014000D01*
X111440000Y-131014000D02*
X111440000Y-131014000D01*
X111440000Y-131014000D02*
X111440000Y-132588000D01*
X111440000Y-132588000D02*
X111506000Y-132654000D01*
X111506000Y-132654000D02*
X112522000Y-132654000D01*
X112522000Y-132654000D02*
X114046000Y-132654000D01*
D48*
X112522000Y-130048000D02*
X113187000Y-130713000D01*
X113187000Y-130713000D02*
X113187000Y-130716000D01*
D50*
X142224000Y-118872000D02*
X143256000Y-118872000D01*
X143256000Y-118872000D02*
X144764000Y-120380000D01*
X144764000Y-120380000D02*
X144764000Y-120904000D01*
D52*
X144764000Y-120904000D02*
X144764000Y-122456700D01*
X144764000Y-122456700D02*
X144526000Y-122694700D01*
D50*
X142764000Y-120904000D02*
X141158000Y-120904000D01*
D52*
X138938000Y-122694700D02*
X139258000Y-122374700D01*
X139258000Y-121920000D02*
X139258000Y-120904000D01*
X139258000Y-122374700D02*
X139258000Y-121920000D01*
D50*
X139258000Y-119838000D02*
X140224000Y-118872000D01*
X139258000Y-120904000D02*
X139258000Y-119838000D01*
X138684000Y-120904000D02*
X138110000Y-120904000D01*
X139258000Y-120904000D02*
X138684000Y-120904000D01*
X138110000Y-119380000D02*
X138176000Y-119314000D01*
X138110000Y-120904000D02*
X138110000Y-119380000D01*
X139192000Y-118872000D02*
X140224000Y-118872000D01*
X138618000Y-118872000D02*
X139192000Y-118872000D01*
X138176000Y-119314000D02*
X138618000Y-118872000D01*
X138684000Y-120396000D02*
X138684000Y-120904000D01*
X138684000Y-120904000D02*
X138684000Y-120396000D01*
X138684000Y-119380000D02*
X138684000Y-120904000D01*
X139192000Y-118872000D02*
X138684000Y-119380000D01*
D48*
X138110000Y-121866700D02*
X138110000Y-120904000D01*
X138938000Y-122694700D02*
X138110000Y-121866700D01*
X138176000Y-121866700D02*
X138110000Y-121866700D01*
X138750000Y-121866700D02*
X138176000Y-121866700D01*
X139251650Y-122368350D02*
X138750000Y-121866700D01*
X139258000Y-122374700D02*
X139251650Y-122368350D01*
X138242000Y-120904000D02*
X138110000Y-120904000D01*
X139138700Y-120904000D02*
X139258000Y-120904000D01*
X138176000Y-121866700D02*
X139138700Y-120904000D01*
X139258000Y-122362000D02*
X139258000Y-120904000D01*
X139251650Y-122368350D02*
X139258000Y-122362000D01*
X139258000Y-121358700D02*
X139258000Y-120904000D01*
X138750000Y-121866700D02*
X139258000Y-121358700D01*
D52*
X138938000Y-127241300D02*
X138938000Y-127778000D01*
X138938000Y-127778000D02*
X139684000Y-128524000D01*
D48*
X140208000Y-135636000D02*
X140081000Y-135763000D01*
X140208000Y-134620000D02*
X140208000Y-135636000D01*
D52*
X138938000Y-125298200D02*
X137337800Y-125298200D01*
X136652000Y-125984000D02*
X137337800Y-125298200D01*
X144526000Y-124637800D02*
X146039800Y-124637800D01*
X146039800Y-124637800D02*
X146304000Y-124902000D01*
D51*
X137684000Y-129302000D02*
X137684000Y-130286000D01*
D50*
X137684000Y-130286000D02*
X137541000Y-130429000D01*
D51*
X137684000Y-128524000D02*
X137684000Y-129302000D01*
D52*
X138938000Y-125945900D02*
X138214100Y-125945900D01*
X137160000Y-128000000D02*
X137684000Y-128524000D01*
X137160000Y-127254000D02*
X137160000Y-128000000D01*
X137160000Y-127000000D02*
X137160000Y-127254000D01*
X138214100Y-125945900D02*
X137160000Y-127000000D01*
X138938000Y-126593600D02*
X138074400Y-126593600D01*
X137684000Y-126984000D02*
X137684000Y-128524000D01*
X138074400Y-126593600D02*
X137684000Y-126984000D01*
D50*
X140081000Y-130429000D02*
X138811000Y-130429000D01*
D48*
X137684000Y-128524000D02*
X137414000Y-128254000D01*
D51*
X138811000Y-130429000D02*
X137684000Y-129302000D01*
D52*
X137960100Y-125945900D02*
X138938000Y-125945900D01*
X137414000Y-126492000D02*
X137960100Y-125945900D01*
X136906000Y-127000000D02*
X137414000Y-126492000D01*
X136398000Y-127000000D02*
X136906000Y-127000000D01*
X135382000Y-125984000D02*
X136398000Y-127000000D01*
X134036000Y-125984000D02*
X135382000Y-125984000D01*
D51*
X136271000Y-130429000D02*
X137541000Y-130429000D01*
X138811000Y-130429000D02*
X137541000Y-130429000D01*
X134036000Y-128194000D02*
X134036000Y-125984000D01*
X136271000Y-130429000D02*
X134036000Y-128194000D01*
D52*
X138938000Y-126238000D02*
X138938000Y-126593600D01*
X138938000Y-125945900D02*
X138938000Y-126238000D01*
X138430000Y-126238000D02*
X138074400Y-126593600D01*
X138938000Y-126238000D02*
X138430000Y-126238000D01*
X137414000Y-128254000D02*
X137684000Y-128524000D01*
X137414000Y-126492000D02*
X137414000Y-128254000D01*
X136144000Y-127254000D02*
X137160000Y-127254000D01*
X134874000Y-125984000D02*
X136144000Y-127254000D01*
X133782000Y-125984000D02*
X134874000Y-125984000D01*
D49*
X136652000Y-128016000D02*
X135814000Y-128016000D01*
X135814000Y-128016000D02*
X133782000Y-125984000D01*
D51*
X137684000Y-128524000D02*
X137160000Y-128524000D01*
D49*
X137160000Y-128524000D02*
X136652000Y-128016000D01*
X136652000Y-128854000D02*
X136652000Y-129540000D01*
X135814000Y-128016000D02*
X136652000Y-128854000D01*
X115887500Y-117348000D02*
X115887500Y-123269500D01*
X115887500Y-123269500D02*
X116062000Y-123444000D01*
D48*
X115687000Y-125316000D02*
X116062000Y-124941000D01*
X116062000Y-124941000D02*
X116062000Y-123444000D01*
X115687000Y-125316000D02*
X115687000Y-123819000D01*
X115687000Y-123819000D02*
X116062000Y-123444000D01*
D52*
X138938000Y-124637800D02*
X137337800Y-124637800D01*
X137337800Y-124637800D02*
X137160000Y-124460000D01*
D48*
X115687000Y-130716000D02*
X115687000Y-132213000D01*
X115687000Y-132213000D02*
X116078000Y-132604000D01*
D47*
G36*
X107707631Y-102017642D02*
X107708763Y-102654022D01*
X107385604Y-102330298D01*
X106270407Y-101867228D01*
X105062890Y-101866174D01*
X103946887Y-102327298D01*
X103092298Y-103180396D01*
X102629228Y-104295593D01*
X102628174Y-105503110D01*
X103089298Y-106619113D01*
X103942396Y-107473702D01*
X105057593Y-107936772D01*
X106265110Y-107937826D01*
X107381113Y-107476702D01*
X107696260Y-107162105D01*
X107696260Y-111112300D01*
X107701660Y-111141000D01*
X107611239Y-111141000D01*
X106566120Y-110095880D01*
X106035688Y-109741457D01*
X105410000Y-109616999D01*
X105409995Y-109617000D01*
X105156000Y-109617000D01*
X104530313Y-109741457D01*
X103999880Y-110095880D01*
X103645457Y-110626313D01*
X103521000Y-111252000D01*
X103521000Y-113736500D01*
X103429720Y-113804960D01*
X103124000Y-113804960D01*
X102888683Y-113849238D01*
X102672559Y-113988310D01*
X102527569Y-114200510D01*
X102476560Y-114452400D01*
X102476560Y-116179600D01*
X102505000Y-116330745D01*
X102505000Y-117612953D01*
X102456655Y-117856000D01*
X102570729Y-118429489D01*
X102895585Y-118915670D01*
X102938670Y-118944459D01*
X102983880Y-119012120D01*
X103181086Y-119143889D01*
X102789268Y-119493964D01*
X102535291Y-120021209D01*
X102532642Y-120036974D01*
X102653783Y-120269000D01*
X104013000Y-120269000D01*
X104013000Y-120249000D01*
X104267000Y-120249000D01*
X104267000Y-120269000D01*
X105626217Y-120269000D01*
X105747358Y-120036974D01*
X105744709Y-120021209D01*
X105490732Y-119493964D01*
X105098914Y-119143889D01*
X105296120Y-119012120D01*
X105341330Y-118944459D01*
X105384415Y-118915670D01*
X105709271Y-118429489D01*
X105823345Y-117856000D01*
X105775000Y-117612953D01*
X105775000Y-116320041D01*
X105803440Y-116179600D01*
X105803440Y-116112170D01*
X106137000Y-115862000D01*
X106214985Y-115775024D01*
X106312120Y-115710120D01*
X106794560Y-115227680D01*
X106794560Y-120015000D01*
X106838838Y-120250317D01*
X106977910Y-120466441D01*
X107013500Y-120490759D01*
X107013500Y-120798260D01*
X106031880Y-121779880D01*
X105677457Y-122310312D01*
X105661790Y-122389073D01*
X105490732Y-122033964D01*
X105078892Y-121666000D01*
X105490732Y-121298036D01*
X105744709Y-120770791D01*
X105747358Y-120755026D01*
X105626217Y-120523000D01*
X104267000Y-120523000D01*
X104267000Y-122809000D01*
X104287000Y-122809000D01*
X104287000Y-123063000D01*
X104267000Y-123063000D01*
X104267000Y-123083000D01*
X104013000Y-123083000D01*
X104013000Y-123063000D01*
X102653783Y-123063000D01*
X102532642Y-123295026D01*
X102535291Y-123310791D01*
X102789268Y-123838036D01*
X103174024Y-124181801D01*
X103063345Y-124245537D01*
X103029729Y-124289245D01*
X102983880Y-124319880D01*
X102938670Y-124387541D01*
X102895585Y-124416330D01*
X102570729Y-124902511D01*
X102456655Y-125476000D01*
X102505000Y-125719047D01*
X102505000Y-127772953D01*
X102456655Y-128016000D01*
X102570729Y-128589489D01*
X102895585Y-129075670D01*
X102938670Y-129104459D01*
X102983880Y-129172120D01*
X103181086Y-129303889D01*
X102789268Y-129653964D01*
X102535291Y-130181209D01*
X102532642Y-130196974D01*
X102653783Y-130429000D01*
X104013000Y-130429000D01*
X104013000Y-130409000D01*
X104267000Y-130409000D01*
X104267000Y-130429000D01*
X104287000Y-130429000D01*
X104287000Y-130683000D01*
X104267000Y-130683000D01*
X104267000Y-132969000D01*
X105626217Y-132969000D01*
X105747358Y-132736974D01*
X105744709Y-132721209D01*
X105490732Y-132193964D01*
X105078892Y-131826000D01*
X105490732Y-131458036D01*
X105660781Y-131105021D01*
X107825878Y-133270117D01*
X107825880Y-133270120D01*
X107863000Y-133307240D01*
X107863000Y-135128000D01*
X107987457Y-135753687D01*
X108341880Y-136284120D01*
X108350560Y-136289920D01*
X108350560Y-136378000D01*
X108394838Y-136613317D01*
X108533910Y-136829441D01*
X108746110Y-136974431D01*
X108998000Y-137025440D01*
X109998000Y-137025440D01*
X110233317Y-136981162D01*
X110449441Y-136842090D01*
X110594431Y-136629890D01*
X110645440Y-136378000D01*
X110645440Y-136289920D01*
X110654120Y-136284120D01*
X111008543Y-135753687D01*
X111076160Y-135413750D01*
X111363000Y-135413750D01*
X111363000Y-136504310D01*
X111459673Y-136737699D01*
X111638302Y-136916327D01*
X111871691Y-137013000D01*
X112212250Y-137013000D01*
X112371000Y-136854250D01*
X112371000Y-135255000D01*
X111521750Y-135255000D01*
X111363000Y-135413750D01*
X111076160Y-135413750D01*
X111133000Y-135128000D01*
X111133000Y-133885440D01*
X111363000Y-133885440D01*
X111363000Y-134842250D01*
X111521750Y-135001000D01*
X112371000Y-135001000D01*
X112371000Y-134981000D01*
X112625000Y-134981000D01*
X112625000Y-135001000D01*
X112645000Y-135001000D01*
X112645000Y-135255000D01*
X112625000Y-135255000D01*
X112625000Y-136854250D01*
X112783750Y-137013000D01*
X113124309Y-137013000D01*
X113357698Y-136916327D01*
X113536327Y-136737699D01*
X113633000Y-136504310D01*
X113633000Y-135539000D01*
X113760250Y-135539000D01*
X113919000Y-135380250D01*
X113919000Y-134681000D01*
X114173000Y-134681000D01*
X114173000Y-135380250D01*
X114331750Y-135539000D01*
X114822310Y-135539000D01*
X114940867Y-135489892D01*
X115093301Y-135642327D01*
X115326690Y-135739000D01*
X115792250Y-135739000D01*
X115951000Y-135580250D01*
X115951000Y-134731000D01*
X115222250Y-134731000D01*
X115172250Y-134681000D01*
X114173000Y-134681000D01*
X113919000Y-134681000D01*
X113899000Y-134681000D01*
X113899000Y-134427000D01*
X113919000Y-134427000D01*
X113919000Y-134407000D01*
X114173000Y-134407000D01*
X114173000Y-134427000D01*
X114926750Y-134427000D01*
X114976750Y-134477000D01*
X115951000Y-134477000D01*
X115951000Y-134457000D01*
X116205000Y-134457000D01*
X116205000Y-134477000D01*
X116225000Y-134477000D01*
X116225000Y-134731000D01*
X116205000Y-134731000D01*
X116205000Y-135580250D01*
X116363750Y-135739000D01*
X116829310Y-135739000D01*
X117062699Y-135642327D01*
X117241327Y-135463698D01*
X117338000Y-135230309D01*
X117338000Y-134889750D01*
X117179252Y-134731002D01*
X117338000Y-134731002D01*
X117338000Y-134714430D01*
X117358690Y-134723000D01*
X117824250Y-134723000D01*
X117983000Y-134564250D01*
X117983000Y-133715000D01*
X118237000Y-133715000D01*
X118237000Y-134564250D01*
X118395750Y-134723000D01*
X118861310Y-134723000D01*
X119094699Y-134626327D01*
X119273327Y-134447698D01*
X119370000Y-134214309D01*
X119370000Y-133873750D01*
X119211250Y-133715000D01*
X118237000Y-133715000D01*
X117983000Y-133715000D01*
X117963000Y-133715000D01*
X117963000Y-133461000D01*
X117983000Y-133461000D01*
X117983000Y-133441000D01*
X118237000Y-133441000D01*
X118237000Y-133461000D01*
X119211250Y-133461000D01*
X119370000Y-133302250D01*
X119370000Y-132961691D01*
X119273327Y-132728302D01*
X119132090Y-132587064D01*
X119186441Y-132552090D01*
X119331431Y-132339890D01*
X119382440Y-132088000D01*
X119382440Y-131088000D01*
X119338162Y-130852683D01*
X119199090Y-130636559D01*
X118986890Y-130491569D01*
X118735000Y-130440560D01*
X117918796Y-130440560D01*
X117884440Y-130406204D01*
X117884440Y-129916000D01*
X117840162Y-129680683D01*
X117701090Y-129464559D01*
X117488890Y-129319569D01*
X117247000Y-129270585D01*
X117247000Y-128301750D01*
X117088250Y-128143000D01*
X115189000Y-128143000D01*
X115189000Y-128163000D01*
X114935000Y-128163000D01*
X114935000Y-128143000D01*
X113035750Y-128143000D01*
X112877000Y-128301750D01*
X112877000Y-128966449D01*
X112748756Y-128913197D01*
X112297225Y-128912803D01*
X111879914Y-129085233D01*
X111647639Y-129317103D01*
X111482000Y-129283560D01*
X110482000Y-129283560D01*
X110246683Y-129327838D01*
X110136455Y-129398768D01*
X109709658Y-129113592D01*
X109855000Y-128968250D01*
X109855000Y-128119000D01*
X110109000Y-128119000D01*
X110109000Y-128968250D01*
X110267750Y-129127000D01*
X111358310Y-129127000D01*
X111591699Y-129030327D01*
X111770327Y-128851698D01*
X111867000Y-128618309D01*
X111867000Y-128277750D01*
X111708250Y-128119000D01*
X110109000Y-128119000D01*
X109855000Y-128119000D01*
X109835000Y-128119000D01*
X109835000Y-127865000D01*
X109855000Y-127865000D01*
X109855000Y-127015750D01*
X109696250Y-126857000D01*
X108823000Y-126857000D01*
X108823000Y-126143810D01*
X108825880Y-126148120D01*
X109356313Y-126502543D01*
X109982000Y-126627000D01*
X111206314Y-126627000D01*
X111491471Y-126912157D01*
X111358310Y-126857000D01*
X110267750Y-126857000D01*
X110109000Y-127015750D01*
X110109000Y-127865000D01*
X111708250Y-127865000D01*
X111867000Y-127706250D01*
X111867000Y-127365691D01*
X111770327Y-127132302D01*
X111719593Y-127081568D01*
X111991983Y-127263573D01*
X112522000Y-127369000D01*
X112877000Y-127298386D01*
X112877000Y-127730250D01*
X113035750Y-127889000D01*
X114935000Y-127889000D01*
X114935000Y-127869000D01*
X115189000Y-127869000D01*
X115189000Y-127889000D01*
X117088250Y-127889000D01*
X117247000Y-127730250D01*
X117247000Y-126751000D01*
X117363309Y-126751000D01*
X117596698Y-126654327D01*
X117775327Y-126475699D01*
X117872000Y-126242310D01*
X117872000Y-125916428D01*
X117892657Y-125947343D01*
X119519000Y-127573686D01*
X119519000Y-128016000D01*
X119624427Y-128546017D01*
X119874793Y-128920716D01*
X119924657Y-128995343D01*
X125996000Y-135066686D01*
X125996000Y-139960569D01*
X125983560Y-140022000D01*
X125983560Y-143522000D01*
X126027838Y-143757317D01*
X126166910Y-143973441D01*
X126379110Y-144118431D01*
X126631000Y-144169440D01*
X128131000Y-144169440D01*
X128366317Y-144125162D01*
X128582441Y-143986090D01*
X128650734Y-143886140D01*
X128706910Y-143973441D01*
X128919110Y-144118431D01*
X129171000Y-144169440D01*
X130671000Y-144169440D01*
X130906317Y-144125162D01*
X131122441Y-143986090D01*
X131190734Y-143886140D01*
X131246910Y-143973441D01*
X131459110Y-144118431D01*
X131711000Y-144169440D01*
X133211000Y-144169440D01*
X133446317Y-144125162D01*
X133662441Y-143986090D01*
X133807431Y-143773890D01*
X133858440Y-143522000D01*
X133858440Y-140022000D01*
X133814162Y-139786683D01*
X133675090Y-139570559D01*
X133663155Y-139562404D01*
X133722803Y-139418756D01*
X133722913Y-139292350D01*
X135047255Y-139292350D01*
X135139792Y-139554019D01*
X135731398Y-139772188D01*
X136361461Y-139747352D01*
X136828208Y-139554019D01*
X136920745Y-139292350D01*
X135984000Y-138355605D01*
X135047255Y-139292350D01*
X133722913Y-139292350D01*
X133723197Y-138967225D01*
X133550767Y-138549914D01*
X133231765Y-138230355D01*
X132814756Y-138057197D01*
X132363225Y-138056803D01*
X131945914Y-138229233D01*
X131626355Y-138548235D01*
X131453197Y-138965244D01*
X131452803Y-139416775D01*
X131458282Y-139430035D01*
X131259559Y-139557910D01*
X131191266Y-139657860D01*
X131135090Y-139570559D01*
X130922890Y-139425569D01*
X130671000Y-139374560D01*
X129171000Y-139374560D01*
X128935683Y-139418838D01*
X128766000Y-139528026D01*
X128766000Y-137923398D01*
X134387812Y-137923398D01*
X134412648Y-138553461D01*
X134605981Y-139020208D01*
X134867650Y-139112745D01*
X135804395Y-138176000D01*
X134867650Y-137239255D01*
X134605981Y-137331792D01*
X134387812Y-137923398D01*
X128766000Y-137923398D01*
X128766000Y-136747000D01*
X129762250Y-136747000D01*
X129921000Y-136588250D01*
X129921000Y-135739000D01*
X130175000Y-135739000D01*
X130175000Y-136588250D01*
X130333750Y-136747000D01*
X131424310Y-136747000D01*
X131657699Y-136650327D01*
X131826000Y-136482025D01*
X131994301Y-136650327D01*
X132227690Y-136747000D01*
X133318250Y-136747000D01*
X133477000Y-136588250D01*
X133477000Y-135739000D01*
X131877750Y-135739000D01*
X131826000Y-135790750D01*
X131774250Y-135739000D01*
X130175000Y-135739000D01*
X129921000Y-135739000D01*
X129901000Y-135739000D01*
X129901000Y-135485000D01*
X129921000Y-135485000D01*
X129921000Y-134635750D01*
X130175000Y-134635750D01*
X130175000Y-135485000D01*
X131774250Y-135485000D01*
X131826000Y-135433250D01*
X131877750Y-135485000D01*
X133477000Y-135485000D01*
X133477000Y-134635750D01*
X133731000Y-134635750D01*
X133731000Y-135485000D01*
X133751000Y-135485000D01*
X133751000Y-135739000D01*
X133731000Y-135739000D01*
X133731000Y-136588250D01*
X133889750Y-136747000D01*
X134980310Y-136747000D01*
X135213699Y-136650327D01*
X135336280Y-136527745D01*
X135336280Y-136589080D01*
X135381363Y-136697919D01*
X135139792Y-136797981D01*
X135047255Y-137059650D01*
X135984000Y-137996395D01*
X135998143Y-137982253D01*
X136177748Y-138161858D01*
X136163605Y-138176000D01*
X137100350Y-139112745D01*
X137362019Y-139020208D01*
X137580188Y-138428602D01*
X137555352Y-137798539D01*
X137362019Y-137331792D01*
X137100352Y-137239256D01*
X137214766Y-137124842D01*
X137187694Y-137097770D01*
X137255250Y-137097770D01*
X137414000Y-136939020D01*
X137414000Y-135890000D01*
X137668000Y-135890000D01*
X137668000Y-136939020D01*
X137826750Y-137097770D01*
X137967029Y-137097770D01*
X138176000Y-137011211D01*
X138384971Y-137097770D01*
X138525250Y-137097770D01*
X138684000Y-136939020D01*
X138684000Y-135890000D01*
X137668000Y-135890000D01*
X137414000Y-135890000D01*
X136398000Y-135890000D01*
X136398000Y-135910000D01*
X136144000Y-135910000D01*
X136144000Y-135890000D01*
X136124000Y-135890000D01*
X136124000Y-135636000D01*
X136144000Y-135636000D01*
X136144000Y-134586980D01*
X136398000Y-134586980D01*
X136398000Y-135636000D01*
X137414000Y-135636000D01*
X137414000Y-134586980D01*
X137668000Y-134586980D01*
X137668000Y-135636000D01*
X138684000Y-135636000D01*
X138684000Y-134586980D01*
X138938000Y-134586980D01*
X138938000Y-135636000D01*
X138958000Y-135636000D01*
X138958000Y-135890000D01*
X138938000Y-135890000D01*
X138938000Y-136939020D01*
X139096750Y-137097770D01*
X139237029Y-137097770D01*
X139454190Y-137007819D01*
X139529390Y-137059201D01*
X139781280Y-137110210D01*
X140380720Y-137110210D01*
X140616037Y-137065932D01*
X140832161Y-136926860D01*
X140977151Y-136714660D01*
X141028160Y-136462770D01*
X141028160Y-135977956D01*
X141029329Y-135976206D01*
X141097000Y-135636000D01*
X141097000Y-135336283D01*
X141169645Y-135263765D01*
X141342803Y-134846756D01*
X141343197Y-134395225D01*
X141170767Y-133977914D01*
X140851765Y-133658355D01*
X140434756Y-133485197D01*
X139983225Y-133484803D01*
X139565914Y-133657233D01*
X139246355Y-133976235D01*
X139073197Y-134393244D01*
X139073146Y-134451834D01*
X138938000Y-134586980D01*
X138684000Y-134586980D01*
X138525250Y-134428230D01*
X138384971Y-134428230D01*
X138176000Y-134514789D01*
X137967029Y-134428230D01*
X137826750Y-134428230D01*
X137668000Y-134586980D01*
X137414000Y-134586980D01*
X137255250Y-134428230D01*
X137114971Y-134428230D01*
X136906000Y-134514789D01*
X136697029Y-134428230D01*
X136556750Y-134428230D01*
X136398000Y-134586980D01*
X136144000Y-134586980D01*
X135985250Y-134428230D01*
X135844971Y-134428230D01*
X135611582Y-134524903D01*
X135432953Y-134703531D01*
X135402539Y-134776956D01*
X135392327Y-134752302D01*
X135213699Y-134573673D01*
X134980310Y-134477000D01*
X133889750Y-134477000D01*
X133731000Y-134635750D01*
X133477000Y-134635750D01*
X133318250Y-134477000D01*
X132227690Y-134477000D01*
X131994301Y-134573673D01*
X131826000Y-134741975D01*
X131657699Y-134573673D01*
X131424310Y-134477000D01*
X130333750Y-134477000D01*
X130175000Y-134635750D01*
X129921000Y-134635750D01*
X129762250Y-134477000D01*
X128762817Y-134477000D01*
X128660573Y-133962983D01*
X128443759Y-133638497D01*
X128546110Y-133708431D01*
X128798000Y-133759440D01*
X129320232Y-133759440D01*
X129517983Y-133891573D01*
X130048000Y-133997000D01*
X134596000Y-133997000D01*
X135126017Y-133891573D01*
X135575343Y-133591343D01*
X135599343Y-133567343D01*
X135670399Y-133461000D01*
X135899573Y-133118017D01*
X136005000Y-132588000D01*
X136005000Y-132499641D01*
X136005278Y-132499363D01*
X136016029Y-132473472D01*
X136200302Y-132197687D01*
X136276622Y-131814000D01*
X138811000Y-131814000D01*
X139000984Y-131776210D01*
X139110720Y-131776210D01*
X139346037Y-131731932D01*
X139445536Y-131667906D01*
X139529390Y-131725201D01*
X139781280Y-131776210D01*
X140380720Y-131776210D01*
X140616037Y-131731932D01*
X140832161Y-131592860D01*
X140977151Y-131380660D01*
X140980672Y-131363274D01*
X141129691Y-131425000D01*
X141470250Y-131425000D01*
X141629000Y-131266250D01*
X141629000Y-129667000D01*
X141883000Y-129667000D01*
X141883000Y-131266250D01*
X142041750Y-131425000D01*
X142382309Y-131425000D01*
X142615698Y-131328327D01*
X142794327Y-131149699D01*
X142891000Y-130916310D01*
X142891000Y-129825750D01*
X142732250Y-129667000D01*
X141883000Y-129667000D01*
X141629000Y-129667000D01*
X141609000Y-129667000D01*
X141609000Y-129413000D01*
X141629000Y-129413000D01*
X141629000Y-127813750D01*
X141883000Y-127813750D01*
X141883000Y-129413000D01*
X142732250Y-129413000D01*
X142891000Y-129254250D01*
X142891000Y-128163690D01*
X142794327Y-127930301D01*
X142615698Y-127751673D01*
X142382309Y-127655000D01*
X142041750Y-127655000D01*
X141883000Y-127813750D01*
X141629000Y-127813750D01*
X141470250Y-127655000D01*
X141129691Y-127655000D01*
X140896302Y-127751673D01*
X140818380Y-127829594D01*
X140787162Y-127663683D01*
X140648090Y-127447559D01*
X140582876Y-127403000D01*
X141446250Y-127403000D01*
X141605000Y-127244250D01*
X141605000Y-125095000D01*
X141585000Y-125095000D01*
X141585000Y-124841000D01*
X141605000Y-124841000D01*
X141605000Y-122691750D01*
X141446250Y-122533000D01*
X140285440Y-122533000D01*
X140285440Y-122494700D01*
X140241162Y-122259383D01*
X140147000Y-122113051D01*
X140147000Y-121889943D01*
X140204431Y-121805890D01*
X140207081Y-121792803D01*
X140343910Y-122005441D01*
X140556110Y-122150431D01*
X140808000Y-122201440D01*
X141508000Y-122201440D01*
X141743317Y-122157162D01*
X141905660Y-122052697D01*
X142012110Y-122125431D01*
X142264000Y-122176440D01*
X143264000Y-122176440D01*
X143276528Y-122174083D01*
X143229569Y-122242810D01*
X143178560Y-122494700D01*
X143178560Y-122533000D01*
X142017750Y-122533000D01*
X141859000Y-122691750D01*
X141859000Y-124841000D01*
X141879000Y-124841000D01*
X141879000Y-125095000D01*
X141859000Y-125095000D01*
X141859000Y-127244250D01*
X142017750Y-127403000D01*
X143132060Y-127403000D01*
X143121000Y-127458600D01*
X143121000Y-129055995D01*
X143120999Y-129056000D01*
X143121000Y-129056005D01*
X143121000Y-130023995D01*
X143120999Y-130024000D01*
X143245457Y-130649688D01*
X143599880Y-131180120D01*
X144130873Y-131711112D01*
X144360637Y-131941278D01*
X144961352Y-132190716D01*
X145611795Y-132191284D01*
X146212943Y-131942894D01*
X146673278Y-131483363D01*
X146922716Y-130882648D01*
X146923284Y-130232205D01*
X146674894Y-129631057D01*
X146584241Y-129540245D01*
X146673278Y-129451363D01*
X146922716Y-128850648D01*
X146923284Y-128200205D01*
X146674894Y-127599057D01*
X146355245Y-127278849D01*
X146266543Y-126832913D01*
X145912120Y-126302480D01*
X145848267Y-126259815D01*
X145848042Y-126258620D01*
X145873440Y-126133200D01*
X145873440Y-125899440D01*
X146954000Y-125899440D01*
X147189317Y-125855162D01*
X147405441Y-125716090D01*
X147550431Y-125503890D01*
X147601440Y-125252000D01*
X147601440Y-124552000D01*
X147557162Y-124316683D01*
X147418090Y-124100559D01*
X147205890Y-123955569D01*
X147172510Y-123948809D01*
X147313699Y-123890327D01*
X147492327Y-123711698D01*
X147589000Y-123478309D01*
X147589000Y-123287750D01*
X147430250Y-123129000D01*
X146431000Y-123129000D01*
X146431000Y-123149000D01*
X146177000Y-123149000D01*
X146177000Y-123129000D01*
X146157000Y-123129000D01*
X146157000Y-122875000D01*
X146177000Y-122875000D01*
X146177000Y-122175750D01*
X146431000Y-122175750D01*
X146431000Y-122875000D01*
X147430250Y-122875000D01*
X147589000Y-122716250D01*
X147589000Y-122525691D01*
X147492327Y-122292302D01*
X147313699Y-122113673D01*
X147080310Y-122017000D01*
X146589750Y-122017000D01*
X146431000Y-122175750D01*
X146177000Y-122175750D01*
X146018250Y-122017000D01*
X145678284Y-122017000D01*
X145715441Y-121993090D01*
X145860431Y-121780890D01*
X145911440Y-121529000D01*
X145911440Y-120279000D01*
X145867162Y-120043683D01*
X145827995Y-119982815D01*
X145819994Y-119942593D01*
X145572223Y-119571777D01*
X144064223Y-118063777D01*
X143693407Y-117816006D01*
X143256000Y-117729000D01*
X143090678Y-117729000D01*
X142975890Y-117650569D01*
X142724000Y-117599560D01*
X141724000Y-117599560D01*
X141488683Y-117643838D01*
X141272559Y-117782910D01*
X141224866Y-117852711D01*
X141188090Y-117795559D01*
X140975890Y-117650569D01*
X140724000Y-117599560D01*
X139724000Y-117599560D01*
X139488683Y-117643838D01*
X139437818Y-117676568D01*
X139302250Y-117541000D01*
X138303000Y-117541000D01*
X138303000Y-117561000D01*
X138049000Y-117561000D01*
X138049000Y-117541000D01*
X137049750Y-117541000D01*
X136891000Y-117699750D01*
X136891000Y-117890309D01*
X136987673Y-118123698D01*
X137166301Y-118302327D01*
X137302287Y-118358654D01*
X137290683Y-118360838D01*
X137074559Y-118499910D01*
X136929569Y-118712110D01*
X136878560Y-118964000D01*
X136878560Y-119664000D01*
X136887008Y-119708895D01*
X136811890Y-119657569D01*
X136560000Y-119606560D01*
X135860000Y-119606560D01*
X135624683Y-119650838D01*
X135408559Y-119789910D01*
X135263569Y-120002110D01*
X135212560Y-120254000D01*
X135212560Y-120378961D01*
X135154006Y-120466593D01*
X135067000Y-120904000D01*
X135154006Y-121341407D01*
X135212560Y-121429039D01*
X135212560Y-121554000D01*
X135256838Y-121789317D01*
X135395910Y-122005441D01*
X135608110Y-122150431D01*
X135860000Y-122201440D01*
X136560000Y-122201440D01*
X136795317Y-122157162D01*
X137011441Y-122018090D01*
X137044321Y-121969968D01*
X137049016Y-121968028D01*
X137089407Y-121959994D01*
X137123350Y-121937314D01*
X137225035Y-121895298D01*
X137227428Y-121899017D01*
X137288671Y-122206906D01*
X137392302Y-122362000D01*
X137481382Y-122495318D01*
X137590560Y-122604496D01*
X137590560Y-122894700D01*
X137610152Y-122998824D01*
X137603000Y-123016091D01*
X137603000Y-123083650D01*
X137631471Y-123112121D01*
X137634838Y-123130017D01*
X137773910Y-123346141D01*
X137779865Y-123350210D01*
X137699673Y-123430402D01*
X137690933Y-123451503D01*
X137386756Y-123325197D01*
X136935225Y-123324803D01*
X136517914Y-123497233D01*
X136198355Y-123816235D01*
X136163615Y-123899898D01*
X136135162Y-123748683D01*
X135996090Y-123532559D01*
X135783890Y-123387569D01*
X135532000Y-123336560D01*
X132032000Y-123336560D01*
X131796683Y-123380838D01*
X131580559Y-123519910D01*
X131435569Y-123732110D01*
X131384560Y-123984000D01*
X131384560Y-125361874D01*
X130773343Y-124750657D01*
X130699087Y-124701041D01*
X130324017Y-124450427D01*
X129794000Y-124345000D01*
X126679440Y-124345000D01*
X126679440Y-123984000D01*
X126635162Y-123748683D01*
X126496090Y-123532559D01*
X126283890Y-123387569D01*
X126032000Y-123336560D01*
X122856334Y-123336560D01*
X122758000Y-123317000D01*
X121805461Y-123317000D01*
X121653041Y-123253710D01*
X121173065Y-123253291D01*
X120729465Y-123436582D01*
X120389775Y-123775680D01*
X120257000Y-124095439D01*
X120257000Y-119799641D01*
X120257278Y-119799363D01*
X120473039Y-119279750D01*
X121905000Y-119279750D01*
X121905000Y-119470309D01*
X122001673Y-119703698D01*
X122180301Y-119882327D01*
X122413690Y-119979000D01*
X122904250Y-119979000D01*
X123063000Y-119820250D01*
X123063000Y-119121000D01*
X123317000Y-119121000D01*
X123317000Y-119820250D01*
X123475750Y-119979000D01*
X123966310Y-119979000D01*
X124199699Y-119882327D01*
X124378327Y-119703698D01*
X124475000Y-119470309D01*
X124475000Y-119279750D01*
X124316250Y-119121000D01*
X123317000Y-119121000D01*
X123063000Y-119121000D01*
X122063750Y-119121000D01*
X121905000Y-119279750D01*
X120473039Y-119279750D01*
X120506716Y-119198648D01*
X120507284Y-118548205D01*
X120378696Y-118237000D01*
X122048975Y-118237000D01*
X122001673Y-118284302D01*
X121905000Y-118517691D01*
X121905000Y-118708250D01*
X122063750Y-118867000D01*
X123063000Y-118867000D01*
X123063000Y-118847000D01*
X123317000Y-118847000D01*
X123317000Y-118867000D01*
X124316250Y-118867000D01*
X124475000Y-118708250D01*
X124475000Y-118603116D01*
X124684000Y-118645440D01*
X125384000Y-118645440D01*
X125619317Y-118601162D01*
X125835441Y-118462090D01*
X125980431Y-118249890D01*
X125983081Y-118236803D01*
X126119910Y-118449441D01*
X126332110Y-118594431D01*
X126584000Y-118645440D01*
X127284000Y-118645440D01*
X127444689Y-118615204D01*
X127622110Y-118736431D01*
X127874000Y-118787440D01*
X129174000Y-118787440D01*
X129409317Y-118743162D01*
X129625441Y-118604090D01*
X129770431Y-118391890D01*
X129821440Y-118140000D01*
X129821440Y-117749796D01*
X129840975Y-117730261D01*
X129912235Y-117801645D01*
X130329244Y-117974803D01*
X130780775Y-117975197D01*
X131198086Y-117802767D01*
X131517645Y-117483765D01*
X131690803Y-117066756D01*
X131690915Y-116937691D01*
X136891000Y-116937691D01*
X136891000Y-117128250D01*
X137049750Y-117287000D01*
X138049000Y-117287000D01*
X138049000Y-116587750D01*
X138303000Y-116587750D01*
X138303000Y-117287000D01*
X139302250Y-117287000D01*
X139461000Y-117128250D01*
X139461000Y-116937691D01*
X139364327Y-116704302D01*
X139185699Y-116525673D01*
X138952310Y-116429000D01*
X138461750Y-116429000D01*
X138303000Y-116587750D01*
X138049000Y-116587750D01*
X137890250Y-116429000D01*
X137399690Y-116429000D01*
X137166301Y-116525673D01*
X136987673Y-116704302D01*
X136891000Y-116937691D01*
X131690915Y-116937691D01*
X131691197Y-116615225D01*
X131518767Y-116197914D01*
X131199765Y-115878355D01*
X130937000Y-115769245D01*
X130937000Y-114668236D01*
X132200618Y-113404618D01*
X132393329Y-113116206D01*
X132461000Y-112776000D01*
X132461000Y-112010275D01*
X133043139Y-111428136D01*
X133048317Y-111427162D01*
X133264441Y-111288090D01*
X133409431Y-111075890D01*
X133460440Y-110824000D01*
X133460440Y-110709292D01*
X133477000Y-110626039D01*
X133477000Y-110529000D01*
X133460440Y-110445747D01*
X133460440Y-110234000D01*
X133416162Y-109998683D01*
X133277090Y-109782559D01*
X133266794Y-109775524D01*
X133409329Y-109562206D01*
X133477000Y-109222000D01*
X133477000Y-108556236D01*
X138116478Y-103916758D01*
X138225801Y-103916854D01*
X138216360Y-103926278D01*
X137959293Y-104545362D01*
X137958708Y-105215697D01*
X138214694Y-105835229D01*
X138688278Y-106309640D01*
X139307362Y-106566707D01*
X139977697Y-106567292D01*
X140597229Y-106311306D01*
X141071640Y-105837722D01*
X141328707Y-105218638D01*
X141329292Y-104548303D01*
X141073306Y-103928771D01*
X140599722Y-103454360D01*
X139980638Y-103197293D01*
X139717630Y-103197063D01*
X139928733Y-102688670D01*
X139929265Y-102078009D01*
X139696068Y-101513629D01*
X139401954Y-101219000D01*
X148717000Y-101219000D01*
X148717000Y-144081738D01*
X148716490Y-144081179D01*
X148187027Y-143833032D01*
X147955000Y-143953531D01*
X147955000Y-145161000D01*
X147975000Y-145161000D01*
X147975000Y-145415000D01*
X147955000Y-145415000D01*
X147955000Y-147701000D01*
X147975000Y-147701000D01*
X147975000Y-147955000D01*
X147955000Y-147955000D01*
X147955000Y-147975000D01*
X147701000Y-147975000D01*
X147701000Y-147955000D01*
X147681000Y-147955000D01*
X147681000Y-147701000D01*
X147701000Y-147701000D01*
X147701000Y-145415000D01*
X147681000Y-145415000D01*
X147681000Y-145161000D01*
X147701000Y-145161000D01*
X147701000Y-143953531D01*
X147468973Y-143833032D01*
X146939510Y-144081179D01*
X146557992Y-144499161D01*
X146377029Y-144228330D01*
X145890848Y-143903474D01*
X145317359Y-143789400D01*
X145258641Y-143789400D01*
X144685152Y-143903474D01*
X144198971Y-144228330D01*
X143874115Y-144714511D01*
X143760041Y-145288000D01*
X143874115Y-145861489D01*
X144198971Y-146347670D01*
X144212642Y-146356805D01*
X144189083Y-146361238D01*
X143972959Y-146500310D01*
X143827969Y-146712510D01*
X143776960Y-146964400D01*
X143776960Y-148691600D01*
X143821238Y-148926917D01*
X143960310Y-149143041D01*
X144007084Y-149175000D01*
X105521097Y-149175000D01*
X105744709Y-148710791D01*
X105747358Y-148695026D01*
X105626217Y-148463000D01*
X104267000Y-148463000D01*
X104267000Y-148483000D01*
X104013000Y-148483000D01*
X104013000Y-148463000D01*
X102653783Y-148463000D01*
X102532642Y-148695026D01*
X102535291Y-148710791D01*
X102758903Y-149175000D01*
X100761000Y-149175000D01*
X100761000Y-145796000D01*
X102456655Y-145796000D01*
X102570729Y-146369489D01*
X102895585Y-146855670D01*
X103205069Y-147062461D01*
X102789268Y-147433964D01*
X102535291Y-147961209D01*
X102532642Y-147976974D01*
X102653783Y-148209000D01*
X104013000Y-148209000D01*
X104013000Y-148189000D01*
X104267000Y-148189000D01*
X104267000Y-148209000D01*
X105626217Y-148209000D01*
X105747358Y-147976974D01*
X105744709Y-147961209D01*
X105683296Y-147833719D01*
X105734593Y-147867994D01*
X106172000Y-147955000D01*
X108712000Y-147955000D01*
X109149407Y-147867994D01*
X109520223Y-147620223D01*
X110550696Y-146589750D01*
X112395000Y-146589750D01*
X112395000Y-146938309D01*
X112491673Y-147171698D01*
X112670301Y-147350327D01*
X112903690Y-147447000D01*
X113760250Y-147447000D01*
X113919000Y-147288250D01*
X113919000Y-146431000D01*
X112553750Y-146431000D01*
X112395000Y-146589750D01*
X110550696Y-146589750D01*
X111979446Y-145161000D01*
X112903690Y-145161000D01*
X112670301Y-145257673D01*
X112491673Y-145436302D01*
X112395000Y-145669691D01*
X112395000Y-146018250D01*
X112553750Y-146177000D01*
X113919000Y-146177000D01*
X113919000Y-146157000D01*
X114173000Y-146157000D01*
X114173000Y-146177000D01*
X114193000Y-146177000D01*
X114193000Y-146431000D01*
X114173000Y-146431000D01*
X114173000Y-147288250D01*
X114331750Y-147447000D01*
X115188310Y-147447000D01*
X115421699Y-147350327D01*
X115600327Y-147171698D01*
X115697000Y-146938309D01*
X115697000Y-146611686D01*
X115699800Y-146614486D01*
X115699800Y-147045680D01*
X115744078Y-147280997D01*
X115883150Y-147497121D01*
X116095350Y-147642111D01*
X116347240Y-147693120D01*
X118297960Y-147693120D01*
X118533277Y-147648842D01*
X118749401Y-147509770D01*
X118874883Y-147326121D01*
X118907713Y-147405379D01*
X119086342Y-147584007D01*
X119319731Y-147680680D01*
X120135650Y-147680680D01*
X120294400Y-147521930D01*
X120294400Y-145923000D01*
X120548400Y-145923000D01*
X120548400Y-147521930D01*
X120707150Y-147680680D01*
X121523069Y-147680680D01*
X121756458Y-147584007D01*
X121935087Y-147405379D01*
X122031760Y-147171990D01*
X122031760Y-147057750D01*
X127266000Y-147057750D01*
X127266000Y-148648310D01*
X127362673Y-148881699D01*
X127541302Y-149060327D01*
X127774691Y-149157000D01*
X128365250Y-149157000D01*
X128524000Y-148998250D01*
X128524000Y-146899000D01*
X128778000Y-146899000D01*
X128778000Y-148998250D01*
X128936750Y-149157000D01*
X129527309Y-149157000D01*
X129760698Y-149060327D01*
X129921000Y-148900026D01*
X130081302Y-149060327D01*
X130314691Y-149157000D01*
X130905250Y-149157000D01*
X131064000Y-148998250D01*
X131064000Y-146899000D01*
X131318000Y-146899000D01*
X131318000Y-148998250D01*
X131476750Y-149157000D01*
X132067309Y-149157000D01*
X132300698Y-149060327D01*
X132461000Y-148900026D01*
X132621302Y-149060327D01*
X132854691Y-149157000D01*
X133445250Y-149157000D01*
X133604000Y-148998250D01*
X133604000Y-146899000D01*
X133858000Y-146899000D01*
X133858000Y-148998250D01*
X134016750Y-149157000D01*
X134607309Y-149157000D01*
X134840698Y-149060327D01*
X135019327Y-148881699D01*
X135116000Y-148648310D01*
X135116000Y-147057750D01*
X134957250Y-146899000D01*
X133858000Y-146899000D01*
X133604000Y-146899000D01*
X132504750Y-146899000D01*
X132461000Y-146942750D01*
X132417250Y-146899000D01*
X131318000Y-146899000D01*
X131064000Y-146899000D01*
X129964750Y-146899000D01*
X129921000Y-146942750D01*
X129877250Y-146899000D01*
X128778000Y-146899000D01*
X128524000Y-146899000D01*
X127424750Y-146899000D01*
X127266000Y-147057750D01*
X122031760Y-147057750D01*
X122031760Y-146081750D01*
X121873010Y-145923000D01*
X120548400Y-145923000D01*
X120294400Y-145923000D01*
X120274400Y-145923000D01*
X120274400Y-145669000D01*
X120294400Y-145669000D01*
X120294400Y-144070070D01*
X120242330Y-144018000D01*
X120294400Y-143965930D01*
X120294400Y-142367000D01*
X120548400Y-142367000D01*
X120548400Y-143965930D01*
X120600470Y-144018000D01*
X120548400Y-144070070D01*
X120548400Y-145669000D01*
X121873010Y-145669000D01*
X122031760Y-145510250D01*
X122031760Y-144895690D01*
X127266000Y-144895690D01*
X127266000Y-146486250D01*
X127424750Y-146645000D01*
X128524000Y-146645000D01*
X128524000Y-144545750D01*
X128778000Y-144545750D01*
X128778000Y-146645000D01*
X129877250Y-146645000D01*
X129921000Y-146601250D01*
X129964750Y-146645000D01*
X131064000Y-146645000D01*
X131064000Y-144545750D01*
X131318000Y-144545750D01*
X131318000Y-146645000D01*
X132417250Y-146645000D01*
X132461000Y-146601250D01*
X132504750Y-146645000D01*
X133604000Y-146645000D01*
X133604000Y-144545750D01*
X133858000Y-144545750D01*
X133858000Y-146645000D01*
X134957250Y-146645000D01*
X135116000Y-146486250D01*
X135116000Y-144895690D01*
X135019327Y-144662301D01*
X134840698Y-144483673D01*
X134607309Y-144387000D01*
X134016750Y-144387000D01*
X133858000Y-144545750D01*
X133604000Y-144545750D01*
X133445250Y-144387000D01*
X132854691Y-144387000D01*
X132621302Y-144483673D01*
X132461000Y-144643974D01*
X132300698Y-144483673D01*
X132067309Y-144387000D01*
X131476750Y-144387000D01*
X131318000Y-144545750D01*
X131064000Y-144545750D01*
X130905250Y-144387000D01*
X130314691Y-144387000D01*
X130081302Y-144483673D01*
X129921000Y-144643974D01*
X129760698Y-144483673D01*
X129527309Y-144387000D01*
X128936750Y-144387000D01*
X128778000Y-144545750D01*
X128524000Y-144545750D01*
X128365250Y-144387000D01*
X127774691Y-144387000D01*
X127541302Y-144483673D01*
X127362673Y-144662301D01*
X127266000Y-144895690D01*
X122031760Y-144895690D01*
X122031760Y-144420010D01*
X121935087Y-144186621D01*
X121766465Y-144018000D01*
X121935087Y-143849379D01*
X122031760Y-143615990D01*
X122031760Y-142525750D01*
X121873010Y-142367000D01*
X120548400Y-142367000D01*
X120294400Y-142367000D01*
X120274400Y-142367000D01*
X120274400Y-142113000D01*
X120294400Y-142113000D01*
X120294400Y-140514070D01*
X120548400Y-140514070D01*
X120548400Y-142113000D01*
X121873010Y-142113000D01*
X122031760Y-141954250D01*
X122031760Y-140864010D01*
X121935087Y-140630621D01*
X121756458Y-140451993D01*
X121523069Y-140355320D01*
X120707150Y-140355320D01*
X120548400Y-140514070D01*
X120294400Y-140514070D01*
X120135650Y-140355320D01*
X119862240Y-140355320D01*
X119998716Y-140026648D01*
X119999284Y-139376205D01*
X119750894Y-138775057D01*
X119291363Y-138314722D01*
X118690648Y-138065284D01*
X118040205Y-138064716D01*
X117568929Y-138259444D01*
X117569362Y-137763087D01*
X117252608Y-136996485D01*
X116666600Y-136409453D01*
X115900552Y-136091362D01*
X115071087Y-136090638D01*
X114304485Y-136407392D01*
X113717453Y-136993400D01*
X113399362Y-137759448D01*
X113398638Y-138588913D01*
X113715392Y-139355515D01*
X114301400Y-139942547D01*
X115067448Y-140260638D01*
X115336441Y-140260873D01*
X115250314Y-140347000D01*
X114046000Y-140347000D01*
X113515983Y-140452427D01*
X113330205Y-140576560D01*
X113030000Y-140576560D01*
X112794683Y-140620838D01*
X112578559Y-140759910D01*
X112433569Y-140972110D01*
X112382560Y-141224000D01*
X112382560Y-142240000D01*
X112426838Y-142475317D01*
X112565910Y-142691441D01*
X112778110Y-142836431D01*
X112966314Y-142874543D01*
X112963887Y-142875000D01*
X111968283Y-142875000D01*
X111895765Y-142802355D01*
X111723650Y-142730886D01*
X111689407Y-142708006D01*
X111649369Y-142700042D01*
X111478756Y-142629197D01*
X111374342Y-142629106D01*
X110617000Y-141871764D01*
X110617000Y-140517313D01*
X110750225Y-140384320D01*
X110934290Y-139941041D01*
X110934709Y-139461065D01*
X110751418Y-139017465D01*
X110412320Y-138677775D01*
X109969041Y-138493710D01*
X109489065Y-138493291D01*
X109045465Y-138676582D01*
X108705775Y-139015680D01*
X108521710Y-139458959D01*
X108521291Y-139938935D01*
X108704582Y-140382535D01*
X108839000Y-140517188D01*
X108839000Y-141680986D01*
X108709890Y-141592769D01*
X108458000Y-141541760D01*
X106426000Y-141541760D01*
X106190683Y-141586038D01*
X105974559Y-141725110D01*
X105829569Y-141937310D01*
X105778560Y-142189200D01*
X105778560Y-143128998D01*
X105626218Y-143128998D01*
X105747358Y-142896974D01*
X105744709Y-142881209D01*
X105490732Y-142353964D01*
X105078892Y-141986000D01*
X105490732Y-141618036D01*
X105744709Y-141090791D01*
X105747358Y-141075026D01*
X105626217Y-140843000D01*
X104267000Y-140843000D01*
X104267000Y-143129000D01*
X104287000Y-143129000D01*
X104287000Y-143383000D01*
X104267000Y-143383000D01*
X104267000Y-143403000D01*
X104013000Y-143403000D01*
X104013000Y-143383000D01*
X102653783Y-143383000D01*
X102532642Y-143615026D01*
X102535291Y-143630791D01*
X102789268Y-144158036D01*
X103205069Y-144529539D01*
X102895585Y-144736330D01*
X102570729Y-145222511D01*
X102456655Y-145796000D01*
X100761000Y-145796000D01*
X100761000Y-141075026D01*
X102532642Y-141075026D01*
X102535291Y-141090791D01*
X102789268Y-141618036D01*
X103201108Y-141986000D01*
X102789268Y-142353964D01*
X102535291Y-142881209D01*
X102532642Y-142896974D01*
X102653783Y-143129000D01*
X104013000Y-143129000D01*
X104013000Y-140843000D01*
X102653783Y-140843000D01*
X102532642Y-141075026D01*
X100761000Y-141075026D01*
X100761000Y-135636000D01*
X102456655Y-135636000D01*
X102505000Y-135879047D01*
X102505000Y-137932953D01*
X102456655Y-138176000D01*
X102570729Y-138749489D01*
X102895585Y-139235670D01*
X102938670Y-139264459D01*
X102983880Y-139332120D01*
X103181086Y-139463889D01*
X102789268Y-139813964D01*
X102535291Y-140341209D01*
X102532642Y-140356974D01*
X102653783Y-140589000D01*
X104013000Y-140589000D01*
X104013000Y-140569000D01*
X104267000Y-140569000D01*
X104267000Y-140589000D01*
X105626217Y-140589000D01*
X105747358Y-140356974D01*
X105744709Y-140341209D01*
X105490732Y-139813964D01*
X105098914Y-139463889D01*
X105296120Y-139332120D01*
X105341330Y-139264459D01*
X105384415Y-139235670D01*
X105709271Y-138749489D01*
X105823345Y-138176000D01*
X105775000Y-137932953D01*
X105775000Y-135879047D01*
X105823345Y-135636000D01*
X105709271Y-135062511D01*
X105384415Y-134576330D01*
X105341330Y-134547541D01*
X105296120Y-134479880D01*
X105098914Y-134348111D01*
X105490732Y-133998036D01*
X105744709Y-133470791D01*
X105747358Y-133455026D01*
X105626217Y-133223000D01*
X104267000Y-133223000D01*
X104267000Y-133243000D01*
X104013000Y-133243000D01*
X104013000Y-133223000D01*
X102653783Y-133223000D01*
X102532642Y-133455026D01*
X102535291Y-133470791D01*
X102789268Y-133998036D01*
X103181086Y-134348111D01*
X102983880Y-134479880D01*
X102938670Y-134547541D01*
X102895585Y-134576330D01*
X102570729Y-135062511D01*
X102456655Y-135636000D01*
X100761000Y-135636000D01*
X100761000Y-130915026D01*
X102532642Y-130915026D01*
X102535291Y-130930791D01*
X102789268Y-131458036D01*
X103201108Y-131826000D01*
X102789268Y-132193964D01*
X102535291Y-132721209D01*
X102532642Y-132736974D01*
X102653783Y-132969000D01*
X104013000Y-132969000D01*
X104013000Y-130683000D01*
X102653783Y-130683000D01*
X102532642Y-130915026D01*
X100761000Y-130915026D01*
X100761000Y-120755026D01*
X102532642Y-120755026D01*
X102535291Y-120770791D01*
X102789268Y-121298036D01*
X103201108Y-121666000D01*
X102789268Y-122033964D01*
X102535291Y-122561209D01*
X102532642Y-122576974D01*
X102653783Y-122809000D01*
X104013000Y-122809000D01*
X104013000Y-120523000D01*
X102653783Y-120523000D01*
X102532642Y-120755026D01*
X100761000Y-120755026D01*
X100761000Y-101219000D01*
X108036776Y-101219000D01*
X107707631Y-102017642D01*
X107707631Y-102017642D01*
G37*
X107707631Y-102017642D02*
X107708763Y-102654022D01*
X107385604Y-102330298D01*
X106270407Y-101867228D01*
X105062890Y-101866174D01*
X103946887Y-102327298D01*
X103092298Y-103180396D01*
X102629228Y-104295593D01*
X102628174Y-105503110D01*
X103089298Y-106619113D01*
X103942396Y-107473702D01*
X105057593Y-107936772D01*
X106265110Y-107937826D01*
X107381113Y-107476702D01*
X107696260Y-107162105D01*
X107696260Y-111112300D01*
X107701660Y-111141000D01*
X107611239Y-111141000D01*
X106566120Y-110095880D01*
X106035688Y-109741457D01*
X105410000Y-109616999D01*
X105409995Y-109617000D01*
X105156000Y-109617000D01*
X104530313Y-109741457D01*
X103999880Y-110095880D01*
X103645457Y-110626313D01*
X103521000Y-111252000D01*
X103521000Y-113736500D01*
X103429720Y-113804960D01*
X103124000Y-113804960D01*
X102888683Y-113849238D01*
X102672559Y-113988310D01*
X102527569Y-114200510D01*
X102476560Y-114452400D01*
X102476560Y-116179600D01*
X102505000Y-116330745D01*
X102505000Y-117612953D01*
X102456655Y-117856000D01*
X102570729Y-118429489D01*
X102895585Y-118915670D01*
X102938670Y-118944459D01*
X102983880Y-119012120D01*
X103181086Y-119143889D01*
X102789268Y-119493964D01*
X102535291Y-120021209D01*
X102532642Y-120036974D01*
X102653783Y-120269000D01*
X104013000Y-120269000D01*
X104013000Y-120249000D01*
X104267000Y-120249000D01*
X104267000Y-120269000D01*
X105626217Y-120269000D01*
X105747358Y-120036974D01*
X105744709Y-120021209D01*
X105490732Y-119493964D01*
X105098914Y-119143889D01*
X105296120Y-119012120D01*
X105341330Y-118944459D01*
X105384415Y-118915670D01*
X105709271Y-118429489D01*
X105823345Y-117856000D01*
X105775000Y-117612953D01*
X105775000Y-116320041D01*
X105803440Y-116179600D01*
X105803440Y-116112170D01*
X106137000Y-115862000D01*
X106214985Y-115775024D01*
X106312120Y-115710120D01*
X106794560Y-115227680D01*
X106794560Y-120015000D01*
X106838838Y-120250317D01*
X106977910Y-120466441D01*
X107013500Y-120490759D01*
X107013500Y-120798260D01*
X106031880Y-121779880D01*
X105677457Y-122310312D01*
X105661790Y-122389073D01*
X105490732Y-122033964D01*
X105078892Y-121666000D01*
X105490732Y-121298036D01*
X105744709Y-120770791D01*
X105747358Y-120755026D01*
X105626217Y-120523000D01*
X104267000Y-120523000D01*
X104267000Y-122809000D01*
X104287000Y-122809000D01*
X104287000Y-123063000D01*
X104267000Y-123063000D01*
X104267000Y-123083000D01*
X104013000Y-123083000D01*
X104013000Y-123063000D01*
X102653783Y-123063000D01*
X102532642Y-123295026D01*
X102535291Y-123310791D01*
X102789268Y-123838036D01*
X103174024Y-124181801D01*
X103063345Y-124245537D01*
X103029729Y-124289245D01*
X102983880Y-124319880D01*
X102938670Y-124387541D01*
X102895585Y-124416330D01*
X102570729Y-124902511D01*
X102456655Y-125476000D01*
X102505000Y-125719047D01*
X102505000Y-127772953D01*
X102456655Y-128016000D01*
X102570729Y-128589489D01*
X102895585Y-129075670D01*
X102938670Y-129104459D01*
X102983880Y-129172120D01*
X103181086Y-129303889D01*
X102789268Y-129653964D01*
X102535291Y-130181209D01*
X102532642Y-130196974D01*
X102653783Y-130429000D01*
X104013000Y-130429000D01*
X104013000Y-130409000D01*
X104267000Y-130409000D01*
X104267000Y-130429000D01*
X104287000Y-130429000D01*
X104287000Y-130683000D01*
X104267000Y-130683000D01*
X104267000Y-132969000D01*
X105626217Y-132969000D01*
X105747358Y-132736974D01*
X105744709Y-132721209D01*
X105490732Y-132193964D01*
X105078892Y-131826000D01*
X105490732Y-131458036D01*
X105660781Y-131105021D01*
X107825878Y-133270117D01*
X107825880Y-133270120D01*
X107863000Y-133307240D01*
X107863000Y-135128000D01*
X107987457Y-135753687D01*
X108341880Y-136284120D01*
X108350560Y-136289920D01*
X108350560Y-136378000D01*
X108394838Y-136613317D01*
X108533910Y-136829441D01*
X108746110Y-136974431D01*
X108998000Y-137025440D01*
X109998000Y-137025440D01*
X110233317Y-136981162D01*
X110449441Y-136842090D01*
X110594431Y-136629890D01*
X110645440Y-136378000D01*
X110645440Y-136289920D01*
X110654120Y-136284120D01*
X111008543Y-135753687D01*
X111076160Y-135413750D01*
X111363000Y-135413750D01*
X111363000Y-136504310D01*
X111459673Y-136737699D01*
X111638302Y-136916327D01*
X111871691Y-137013000D01*
X112212250Y-137013000D01*
X112371000Y-136854250D01*
X112371000Y-135255000D01*
X111521750Y-135255000D01*
X111363000Y-135413750D01*
X111076160Y-135413750D01*
X111133000Y-135128000D01*
X111133000Y-133885440D01*
X111363000Y-133885440D01*
X111363000Y-134842250D01*
X111521750Y-135001000D01*
X112371000Y-135001000D01*
X112371000Y-134981000D01*
X112625000Y-134981000D01*
X112625000Y-135001000D01*
X112645000Y-135001000D01*
X112645000Y-135255000D01*
X112625000Y-135255000D01*
X112625000Y-136854250D01*
X112783750Y-137013000D01*
X113124309Y-137013000D01*
X113357698Y-136916327D01*
X113536327Y-136737699D01*
X113633000Y-136504310D01*
X113633000Y-135539000D01*
X113760250Y-135539000D01*
X113919000Y-135380250D01*
X113919000Y-134681000D01*
X114173000Y-134681000D01*
X114173000Y-135380250D01*
X114331750Y-135539000D01*
X114822310Y-135539000D01*
X114940867Y-135489892D01*
X115093301Y-135642327D01*
X115326690Y-135739000D01*
X115792250Y-135739000D01*
X115951000Y-135580250D01*
X115951000Y-134731000D01*
X115222250Y-134731000D01*
X115172250Y-134681000D01*
X114173000Y-134681000D01*
X113919000Y-134681000D01*
X113899000Y-134681000D01*
X113899000Y-134427000D01*
X113919000Y-134427000D01*
X113919000Y-134407000D01*
X114173000Y-134407000D01*
X114173000Y-134427000D01*
X114926750Y-134427000D01*
X114976750Y-134477000D01*
X115951000Y-134477000D01*
X115951000Y-134457000D01*
X116205000Y-134457000D01*
X116205000Y-134477000D01*
X116225000Y-134477000D01*
X116225000Y-134731000D01*
X116205000Y-134731000D01*
X116205000Y-135580250D01*
X116363750Y-135739000D01*
X116829310Y-135739000D01*
X117062699Y-135642327D01*
X117241327Y-135463698D01*
X117338000Y-135230309D01*
X117338000Y-134889750D01*
X117179252Y-134731002D01*
X117338000Y-134731002D01*
X117338000Y-134714430D01*
X117358690Y-134723000D01*
X117824250Y-134723000D01*
X117983000Y-134564250D01*
X117983000Y-133715000D01*
X118237000Y-133715000D01*
X118237000Y-134564250D01*
X118395750Y-134723000D01*
X118861310Y-134723000D01*
X119094699Y-134626327D01*
X119273327Y-134447698D01*
X119370000Y-134214309D01*
X119370000Y-133873750D01*
X119211250Y-133715000D01*
X118237000Y-133715000D01*
X117983000Y-133715000D01*
X117963000Y-133715000D01*
X117963000Y-133461000D01*
X117983000Y-133461000D01*
X117983000Y-133441000D01*
X118237000Y-133441000D01*
X118237000Y-133461000D01*
X119211250Y-133461000D01*
X119370000Y-133302250D01*
X119370000Y-132961691D01*
X119273327Y-132728302D01*
X119132090Y-132587064D01*
X119186441Y-132552090D01*
X119331431Y-132339890D01*
X119382440Y-132088000D01*
X119382440Y-131088000D01*
X119338162Y-130852683D01*
X119199090Y-130636559D01*
X118986890Y-130491569D01*
X118735000Y-130440560D01*
X117918796Y-130440560D01*
X117884440Y-130406204D01*
X117884440Y-129916000D01*
X117840162Y-129680683D01*
X117701090Y-129464559D01*
X117488890Y-129319569D01*
X117247000Y-129270585D01*
X117247000Y-128301750D01*
X117088250Y-128143000D01*
X115189000Y-128143000D01*
X115189000Y-128163000D01*
X114935000Y-128163000D01*
X114935000Y-128143000D01*
X113035750Y-128143000D01*
X112877000Y-128301750D01*
X112877000Y-128966449D01*
X112748756Y-128913197D01*
X112297225Y-128912803D01*
X111879914Y-129085233D01*
X111647639Y-129317103D01*
X111482000Y-129283560D01*
X110482000Y-129283560D01*
X110246683Y-129327838D01*
X110136455Y-129398768D01*
X109709658Y-129113592D01*
X109855000Y-128968250D01*
X109855000Y-128119000D01*
X110109000Y-128119000D01*
X110109000Y-128968250D01*
X110267750Y-129127000D01*
X111358310Y-129127000D01*
X111591699Y-129030327D01*
X111770327Y-128851698D01*
X111867000Y-128618309D01*
X111867000Y-128277750D01*
X111708250Y-128119000D01*
X110109000Y-128119000D01*
X109855000Y-128119000D01*
X109835000Y-128119000D01*
X109835000Y-127865000D01*
X109855000Y-127865000D01*
X109855000Y-127015750D01*
X109696250Y-126857000D01*
X108823000Y-126857000D01*
X108823000Y-126143810D01*
X108825880Y-126148120D01*
X109356313Y-126502543D01*
X109982000Y-126627000D01*
X111206314Y-126627000D01*
X111491471Y-126912157D01*
X111358310Y-126857000D01*
X110267750Y-126857000D01*
X110109000Y-127015750D01*
X110109000Y-127865000D01*
X111708250Y-127865000D01*
X111867000Y-127706250D01*
X111867000Y-127365691D01*
X111770327Y-127132302D01*
X111719593Y-127081568D01*
X111991983Y-127263573D01*
X112522000Y-127369000D01*
X112877000Y-127298386D01*
X112877000Y-127730250D01*
X113035750Y-127889000D01*
X114935000Y-127889000D01*
X114935000Y-127869000D01*
X115189000Y-127869000D01*
X115189000Y-127889000D01*
X117088250Y-127889000D01*
X117247000Y-127730250D01*
X117247000Y-126751000D01*
X117363309Y-126751000D01*
X117596698Y-126654327D01*
X117775327Y-126475699D01*
X117872000Y-126242310D01*
X117872000Y-125916428D01*
X117892657Y-125947343D01*
X119519000Y-127573686D01*
X119519000Y-128016000D01*
X119624427Y-128546017D01*
X119874793Y-128920716D01*
X119924657Y-128995343D01*
X125996000Y-135066686D01*
X125996000Y-139960569D01*
X125983560Y-140022000D01*
X125983560Y-143522000D01*
X126027838Y-143757317D01*
X126166910Y-143973441D01*
X126379110Y-144118431D01*
X126631000Y-144169440D01*
X128131000Y-144169440D01*
X128366317Y-144125162D01*
X128582441Y-143986090D01*
X128650734Y-143886140D01*
X128706910Y-143973441D01*
X128919110Y-144118431D01*
X129171000Y-144169440D01*
X130671000Y-144169440D01*
X130906317Y-144125162D01*
X131122441Y-143986090D01*
X131190734Y-143886140D01*
X131246910Y-143973441D01*
X131459110Y-144118431D01*
X131711000Y-144169440D01*
X133211000Y-144169440D01*
X133446317Y-144125162D01*
X133662441Y-143986090D01*
X133807431Y-143773890D01*
X133858440Y-143522000D01*
X133858440Y-140022000D01*
X133814162Y-139786683D01*
X133675090Y-139570559D01*
X133663155Y-139562404D01*
X133722803Y-139418756D01*
X133722913Y-139292350D01*
X135047255Y-139292350D01*
X135139792Y-139554019D01*
X135731398Y-139772188D01*
X136361461Y-139747352D01*
X136828208Y-139554019D01*
X136920745Y-139292350D01*
X135984000Y-138355605D01*
X135047255Y-139292350D01*
X133722913Y-139292350D01*
X133723197Y-138967225D01*
X133550767Y-138549914D01*
X133231765Y-138230355D01*
X132814756Y-138057197D01*
X132363225Y-138056803D01*
X131945914Y-138229233D01*
X131626355Y-138548235D01*
X131453197Y-138965244D01*
X131452803Y-139416775D01*
X131458282Y-139430035D01*
X131259559Y-139557910D01*
X131191266Y-139657860D01*
X131135090Y-139570559D01*
X130922890Y-139425569D01*
X130671000Y-139374560D01*
X129171000Y-139374560D01*
X128935683Y-139418838D01*
X128766000Y-139528026D01*
X128766000Y-137923398D01*
X134387812Y-137923398D01*
X134412648Y-138553461D01*
X134605981Y-139020208D01*
X134867650Y-139112745D01*
X135804395Y-138176000D01*
X134867650Y-137239255D01*
X134605981Y-137331792D01*
X134387812Y-137923398D01*
X128766000Y-137923398D01*
X128766000Y-136747000D01*
X129762250Y-136747000D01*
X129921000Y-136588250D01*
X129921000Y-135739000D01*
X130175000Y-135739000D01*
X130175000Y-136588250D01*
X130333750Y-136747000D01*
X131424310Y-136747000D01*
X131657699Y-136650327D01*
X131826000Y-136482025D01*
X131994301Y-136650327D01*
X132227690Y-136747000D01*
X133318250Y-136747000D01*
X133477000Y-136588250D01*
X133477000Y-135739000D01*
X131877750Y-135739000D01*
X131826000Y-135790750D01*
X131774250Y-135739000D01*
X130175000Y-135739000D01*
X129921000Y-135739000D01*
X129901000Y-135739000D01*
X129901000Y-135485000D01*
X129921000Y-135485000D01*
X129921000Y-134635750D01*
X130175000Y-134635750D01*
X130175000Y-135485000D01*
X131774250Y-135485000D01*
X131826000Y-135433250D01*
X131877750Y-135485000D01*
X133477000Y-135485000D01*
X133477000Y-134635750D01*
X133731000Y-134635750D01*
X133731000Y-135485000D01*
X133751000Y-135485000D01*
X133751000Y-135739000D01*
X133731000Y-135739000D01*
X133731000Y-136588250D01*
X133889750Y-136747000D01*
X134980310Y-136747000D01*
X135213699Y-136650327D01*
X135336280Y-136527745D01*
X135336280Y-136589080D01*
X135381363Y-136697919D01*
X135139792Y-136797981D01*
X135047255Y-137059650D01*
X135984000Y-137996395D01*
X135998143Y-137982253D01*
X136177748Y-138161858D01*
X136163605Y-138176000D01*
X137100350Y-139112745D01*
X137362019Y-139020208D01*
X137580188Y-138428602D01*
X137555352Y-137798539D01*
X137362019Y-137331792D01*
X137100352Y-137239256D01*
X137214766Y-137124842D01*
X137187694Y-137097770D01*
X137255250Y-137097770D01*
X137414000Y-136939020D01*
X137414000Y-135890000D01*
X137668000Y-135890000D01*
X137668000Y-136939020D01*
X137826750Y-137097770D01*
X137967029Y-137097770D01*
X138176000Y-137011211D01*
X138384971Y-137097770D01*
X138525250Y-137097770D01*
X138684000Y-136939020D01*
X138684000Y-135890000D01*
X137668000Y-135890000D01*
X137414000Y-135890000D01*
X136398000Y-135890000D01*
X136398000Y-135910000D01*
X136144000Y-135910000D01*
X136144000Y-135890000D01*
X136124000Y-135890000D01*
X136124000Y-135636000D01*
X136144000Y-135636000D01*
X136144000Y-134586980D01*
X136398000Y-134586980D01*
X136398000Y-135636000D01*
X137414000Y-135636000D01*
X137414000Y-134586980D01*
X137668000Y-134586980D01*
X137668000Y-135636000D01*
X138684000Y-135636000D01*
X138684000Y-134586980D01*
X138938000Y-134586980D01*
X138938000Y-135636000D01*
X138958000Y-135636000D01*
X138958000Y-135890000D01*
X138938000Y-135890000D01*
X138938000Y-136939020D01*
X139096750Y-137097770D01*
X139237029Y-137097770D01*
X139454190Y-137007819D01*
X139529390Y-137059201D01*
X139781280Y-137110210D01*
X140380720Y-137110210D01*
X140616037Y-137065932D01*
X140832161Y-136926860D01*
X140977151Y-136714660D01*
X141028160Y-136462770D01*
X141028160Y-135977956D01*
X141029329Y-135976206D01*
X141097000Y-135636000D01*
X141097000Y-135336283D01*
X141169645Y-135263765D01*
X141342803Y-134846756D01*
X141343197Y-134395225D01*
X141170767Y-133977914D01*
X140851765Y-133658355D01*
X140434756Y-133485197D01*
X139983225Y-133484803D01*
X139565914Y-133657233D01*
X139246355Y-133976235D01*
X139073197Y-134393244D01*
X139073146Y-134451834D01*
X138938000Y-134586980D01*
X138684000Y-134586980D01*
X138525250Y-134428230D01*
X138384971Y-134428230D01*
X138176000Y-134514789D01*
X137967029Y-134428230D01*
X137826750Y-134428230D01*
X137668000Y-134586980D01*
X137414000Y-134586980D01*
X137255250Y-134428230D01*
X137114971Y-134428230D01*
X136906000Y-134514789D01*
X136697029Y-134428230D01*
X136556750Y-134428230D01*
X136398000Y-134586980D01*
X136144000Y-134586980D01*
X135985250Y-134428230D01*
X135844971Y-134428230D01*
X135611582Y-134524903D01*
X135432953Y-134703531D01*
X135402539Y-134776956D01*
X135392327Y-134752302D01*
X135213699Y-134573673D01*
X134980310Y-134477000D01*
X133889750Y-134477000D01*
X133731000Y-134635750D01*
X133477000Y-134635750D01*
X133318250Y-134477000D01*
X132227690Y-134477000D01*
X131994301Y-134573673D01*
X131826000Y-134741975D01*
X131657699Y-134573673D01*
X131424310Y-134477000D01*
X130333750Y-134477000D01*
X130175000Y-134635750D01*
X129921000Y-134635750D01*
X129762250Y-134477000D01*
X128762817Y-134477000D01*
X128660573Y-133962983D01*
X128443759Y-133638497D01*
X128546110Y-133708431D01*
X128798000Y-133759440D01*
X129320232Y-133759440D01*
X129517983Y-133891573D01*
X130048000Y-133997000D01*
X134596000Y-133997000D01*
X135126017Y-133891573D01*
X135575343Y-133591343D01*
X135599343Y-133567343D01*
X135670399Y-133461000D01*
X135899573Y-133118017D01*
X136005000Y-132588000D01*
X136005000Y-132499641D01*
X136005278Y-132499363D01*
X136016029Y-132473472D01*
X136200302Y-132197687D01*
X136276622Y-131814000D01*
X138811000Y-131814000D01*
X139000984Y-131776210D01*
X139110720Y-131776210D01*
X139346037Y-131731932D01*
X139445536Y-131667906D01*
X139529390Y-131725201D01*
X139781280Y-131776210D01*
X140380720Y-131776210D01*
X140616037Y-131731932D01*
X140832161Y-131592860D01*
X140977151Y-131380660D01*
X140980672Y-131363274D01*
X141129691Y-131425000D01*
X141470250Y-131425000D01*
X141629000Y-131266250D01*
X141629000Y-129667000D01*
X141883000Y-129667000D01*
X141883000Y-131266250D01*
X142041750Y-131425000D01*
X142382309Y-131425000D01*
X142615698Y-131328327D01*
X142794327Y-131149699D01*
X142891000Y-130916310D01*
X142891000Y-129825750D01*
X142732250Y-129667000D01*
X141883000Y-129667000D01*
X141629000Y-129667000D01*
X141609000Y-129667000D01*
X141609000Y-129413000D01*
X141629000Y-129413000D01*
X141629000Y-127813750D01*
X141883000Y-127813750D01*
X141883000Y-129413000D01*
X142732250Y-129413000D01*
X142891000Y-129254250D01*
X142891000Y-128163690D01*
X142794327Y-127930301D01*
X142615698Y-127751673D01*
X142382309Y-127655000D01*
X142041750Y-127655000D01*
X141883000Y-127813750D01*
X141629000Y-127813750D01*
X141470250Y-127655000D01*
X141129691Y-127655000D01*
X140896302Y-127751673D01*
X140818380Y-127829594D01*
X140787162Y-127663683D01*
X140648090Y-127447559D01*
X140582876Y-127403000D01*
X141446250Y-127403000D01*
X141605000Y-127244250D01*
X141605000Y-125095000D01*
X141585000Y-125095000D01*
X141585000Y-124841000D01*
X141605000Y-124841000D01*
X141605000Y-122691750D01*
X141446250Y-122533000D01*
X140285440Y-122533000D01*
X140285440Y-122494700D01*
X140241162Y-122259383D01*
X140147000Y-122113051D01*
X140147000Y-121889943D01*
X140204431Y-121805890D01*
X140207081Y-121792803D01*
X140343910Y-122005441D01*
X140556110Y-122150431D01*
X140808000Y-122201440D01*
X141508000Y-122201440D01*
X141743317Y-122157162D01*
X141905660Y-122052697D01*
X142012110Y-122125431D01*
X142264000Y-122176440D01*
X143264000Y-122176440D01*
X143276528Y-122174083D01*
X143229569Y-122242810D01*
X143178560Y-122494700D01*
X143178560Y-122533000D01*
X142017750Y-122533000D01*
X141859000Y-122691750D01*
X141859000Y-124841000D01*
X141879000Y-124841000D01*
X141879000Y-125095000D01*
X141859000Y-125095000D01*
X141859000Y-127244250D01*
X142017750Y-127403000D01*
X143132060Y-127403000D01*
X143121000Y-127458600D01*
X143121000Y-129055995D01*
X143120999Y-129056000D01*
X143121000Y-129056005D01*
X143121000Y-130023995D01*
X143120999Y-130024000D01*
X143245457Y-130649688D01*
X143599880Y-131180120D01*
X144130873Y-131711112D01*
X144360637Y-131941278D01*
X144961352Y-132190716D01*
X145611795Y-132191284D01*
X146212943Y-131942894D01*
X146673278Y-131483363D01*
X146922716Y-130882648D01*
X146923284Y-130232205D01*
X146674894Y-129631057D01*
X146584241Y-129540245D01*
X146673278Y-129451363D01*
X146922716Y-128850648D01*
X146923284Y-128200205D01*
X146674894Y-127599057D01*
X146355245Y-127278849D01*
X146266543Y-126832913D01*
X145912120Y-126302480D01*
X145848267Y-126259815D01*
X145848042Y-126258620D01*
X145873440Y-126133200D01*
X145873440Y-125899440D01*
X146954000Y-125899440D01*
X147189317Y-125855162D01*
X147405441Y-125716090D01*
X147550431Y-125503890D01*
X147601440Y-125252000D01*
X147601440Y-124552000D01*
X147557162Y-124316683D01*
X147418090Y-124100559D01*
X147205890Y-123955569D01*
X147172510Y-123948809D01*
X147313699Y-123890327D01*
X147492327Y-123711698D01*
X147589000Y-123478309D01*
X147589000Y-123287750D01*
X147430250Y-123129000D01*
X146431000Y-123129000D01*
X146431000Y-123149000D01*
X146177000Y-123149000D01*
X146177000Y-123129000D01*
X146157000Y-123129000D01*
X146157000Y-122875000D01*
X146177000Y-122875000D01*
X146177000Y-122175750D01*
X146431000Y-122175750D01*
X146431000Y-122875000D01*
X147430250Y-122875000D01*
X147589000Y-122716250D01*
X147589000Y-122525691D01*
X147492327Y-122292302D01*
X147313699Y-122113673D01*
X147080310Y-122017000D01*
X146589750Y-122017000D01*
X146431000Y-122175750D01*
X146177000Y-122175750D01*
X146018250Y-122017000D01*
X145678284Y-122017000D01*
X145715441Y-121993090D01*
X145860431Y-121780890D01*
X145911440Y-121529000D01*
X145911440Y-120279000D01*
X145867162Y-120043683D01*
X145827995Y-119982815D01*
X145819994Y-119942593D01*
X145572223Y-119571777D01*
X144064223Y-118063777D01*
X143693407Y-117816006D01*
X143256000Y-117729000D01*
X143090678Y-117729000D01*
X142975890Y-117650569D01*
X142724000Y-117599560D01*
X141724000Y-117599560D01*
X141488683Y-117643838D01*
X141272559Y-117782910D01*
X141224866Y-117852711D01*
X141188090Y-117795559D01*
X140975890Y-117650569D01*
X140724000Y-117599560D01*
X139724000Y-117599560D01*
X139488683Y-117643838D01*
X139437818Y-117676568D01*
X139302250Y-117541000D01*
X138303000Y-117541000D01*
X138303000Y-117561000D01*
X138049000Y-117561000D01*
X138049000Y-117541000D01*
X137049750Y-117541000D01*
X136891000Y-117699750D01*
X136891000Y-117890309D01*
X136987673Y-118123698D01*
X137166301Y-118302327D01*
X137302287Y-118358654D01*
X137290683Y-118360838D01*
X137074559Y-118499910D01*
X136929569Y-118712110D01*
X136878560Y-118964000D01*
X136878560Y-119664000D01*
X136887008Y-119708895D01*
X136811890Y-119657569D01*
X136560000Y-119606560D01*
X135860000Y-119606560D01*
X135624683Y-119650838D01*
X135408559Y-119789910D01*
X135263569Y-120002110D01*
X135212560Y-120254000D01*
X135212560Y-120378961D01*
X135154006Y-120466593D01*
X135067000Y-120904000D01*
X135154006Y-121341407D01*
X135212560Y-121429039D01*
X135212560Y-121554000D01*
X135256838Y-121789317D01*
X135395910Y-122005441D01*
X135608110Y-122150431D01*
X135860000Y-122201440D01*
X136560000Y-122201440D01*
X136795317Y-122157162D01*
X137011441Y-122018090D01*
X137044321Y-121969968D01*
X137049016Y-121968028D01*
X137089407Y-121959994D01*
X137123350Y-121937314D01*
X137225035Y-121895298D01*
X137227428Y-121899017D01*
X137288671Y-122206906D01*
X137392302Y-122362000D01*
X137481382Y-122495318D01*
X137590560Y-122604496D01*
X137590560Y-122894700D01*
X137610152Y-122998824D01*
X137603000Y-123016091D01*
X137603000Y-123083650D01*
X137631471Y-123112121D01*
X137634838Y-123130017D01*
X137773910Y-123346141D01*
X137779865Y-123350210D01*
X137699673Y-123430402D01*
X137690933Y-123451503D01*
X137386756Y-123325197D01*
X136935225Y-123324803D01*
X136517914Y-123497233D01*
X136198355Y-123816235D01*
X136163615Y-123899898D01*
X136135162Y-123748683D01*
X135996090Y-123532559D01*
X135783890Y-123387569D01*
X135532000Y-123336560D01*
X132032000Y-123336560D01*
X131796683Y-123380838D01*
X131580559Y-123519910D01*
X131435569Y-123732110D01*
X131384560Y-123984000D01*
X131384560Y-125361874D01*
X130773343Y-124750657D01*
X130699087Y-124701041D01*
X130324017Y-124450427D01*
X129794000Y-124345000D01*
X126679440Y-124345000D01*
X126679440Y-123984000D01*
X126635162Y-123748683D01*
X126496090Y-123532559D01*
X126283890Y-123387569D01*
X126032000Y-123336560D01*
X122856334Y-123336560D01*
X122758000Y-123317000D01*
X121805461Y-123317000D01*
X121653041Y-123253710D01*
X121173065Y-123253291D01*
X120729465Y-123436582D01*
X120389775Y-123775680D01*
X120257000Y-124095439D01*
X120257000Y-119799641D01*
X120257278Y-119799363D01*
X120473039Y-119279750D01*
X121905000Y-119279750D01*
X121905000Y-119470309D01*
X122001673Y-119703698D01*
X122180301Y-119882327D01*
X122413690Y-119979000D01*
X122904250Y-119979000D01*
X123063000Y-119820250D01*
X123063000Y-119121000D01*
X123317000Y-119121000D01*
X123317000Y-119820250D01*
X123475750Y-119979000D01*
X123966310Y-119979000D01*
X124199699Y-119882327D01*
X124378327Y-119703698D01*
X124475000Y-119470309D01*
X124475000Y-119279750D01*
X124316250Y-119121000D01*
X123317000Y-119121000D01*
X123063000Y-119121000D01*
X122063750Y-119121000D01*
X121905000Y-119279750D01*
X120473039Y-119279750D01*
X120506716Y-119198648D01*
X120507284Y-118548205D01*
X120378696Y-118237000D01*
X122048975Y-118237000D01*
X122001673Y-118284302D01*
X121905000Y-118517691D01*
X121905000Y-118708250D01*
X122063750Y-118867000D01*
X123063000Y-118867000D01*
X123063000Y-118847000D01*
X123317000Y-118847000D01*
X123317000Y-118867000D01*
X124316250Y-118867000D01*
X124475000Y-118708250D01*
X124475000Y-118603116D01*
X124684000Y-118645440D01*
X125384000Y-118645440D01*
X125619317Y-118601162D01*
X125835441Y-118462090D01*
X125980431Y-118249890D01*
X125983081Y-118236803D01*
X126119910Y-118449441D01*
X126332110Y-118594431D01*
X126584000Y-118645440D01*
X127284000Y-118645440D01*
X127444689Y-118615204D01*
X127622110Y-118736431D01*
X127874000Y-118787440D01*
X129174000Y-118787440D01*
X129409317Y-118743162D01*
X129625441Y-118604090D01*
X129770431Y-118391890D01*
X129821440Y-118140000D01*
X129821440Y-117749796D01*
X129840975Y-117730261D01*
X129912235Y-117801645D01*
X130329244Y-117974803D01*
X130780775Y-117975197D01*
X131198086Y-117802767D01*
X131517645Y-117483765D01*
X131690803Y-117066756D01*
X131690915Y-116937691D01*
X136891000Y-116937691D01*
X136891000Y-117128250D01*
X137049750Y-117287000D01*
X138049000Y-117287000D01*
X138049000Y-116587750D01*
X138303000Y-116587750D01*
X138303000Y-117287000D01*
X139302250Y-117287000D01*
X139461000Y-117128250D01*
X139461000Y-116937691D01*
X139364327Y-116704302D01*
X139185699Y-116525673D01*
X138952310Y-116429000D01*
X138461750Y-116429000D01*
X138303000Y-116587750D01*
X138049000Y-116587750D01*
X137890250Y-116429000D01*
X137399690Y-116429000D01*
X137166301Y-116525673D01*
X136987673Y-116704302D01*
X136891000Y-116937691D01*
X131690915Y-116937691D01*
X131691197Y-116615225D01*
X131518767Y-116197914D01*
X131199765Y-115878355D01*
X130937000Y-115769245D01*
X130937000Y-114668236D01*
X132200618Y-113404618D01*
X132393329Y-113116206D01*
X132461000Y-112776000D01*
X132461000Y-112010275D01*
X133043139Y-111428136D01*
X133048317Y-111427162D01*
X133264441Y-111288090D01*
X133409431Y-111075890D01*
X133460440Y-110824000D01*
X133460440Y-110709292D01*
X133477000Y-110626039D01*
X133477000Y-110529000D01*
X133460440Y-110445747D01*
X133460440Y-110234000D01*
X133416162Y-109998683D01*
X133277090Y-109782559D01*
X133266794Y-109775524D01*
X133409329Y-109562206D01*
X133477000Y-109222000D01*
X133477000Y-108556236D01*
X138116478Y-103916758D01*
X138225801Y-103916854D01*
X138216360Y-103926278D01*
X137959293Y-104545362D01*
X137958708Y-105215697D01*
X138214694Y-105835229D01*
X138688278Y-106309640D01*
X139307362Y-106566707D01*
X139977697Y-106567292D01*
X140597229Y-106311306D01*
X141071640Y-105837722D01*
X141328707Y-105218638D01*
X141329292Y-104548303D01*
X141073306Y-103928771D01*
X140599722Y-103454360D01*
X139980638Y-103197293D01*
X139717630Y-103197063D01*
X139928733Y-102688670D01*
X139929265Y-102078009D01*
X139696068Y-101513629D01*
X139401954Y-101219000D01*
X148717000Y-101219000D01*
X148717000Y-144081738D01*
X148716490Y-144081179D01*
X148187027Y-143833032D01*
X147955000Y-143953531D01*
X147955000Y-145161000D01*
X147975000Y-145161000D01*
X147975000Y-145415000D01*
X147955000Y-145415000D01*
X147955000Y-147701000D01*
X147975000Y-147701000D01*
X147975000Y-147955000D01*
X147955000Y-147955000D01*
X147955000Y-147975000D01*
X147701000Y-147975000D01*
X147701000Y-147955000D01*
X147681000Y-147955000D01*
X147681000Y-147701000D01*
X147701000Y-147701000D01*
X147701000Y-145415000D01*
X147681000Y-145415000D01*
X147681000Y-145161000D01*
X147701000Y-145161000D01*
X147701000Y-143953531D01*
X147468973Y-143833032D01*
X146939510Y-144081179D01*
X146557992Y-144499161D01*
X146377029Y-144228330D01*
X145890848Y-143903474D01*
X145317359Y-143789400D01*
X145258641Y-143789400D01*
X144685152Y-143903474D01*
X144198971Y-144228330D01*
X143874115Y-144714511D01*
X143760041Y-145288000D01*
X143874115Y-145861489D01*
X144198971Y-146347670D01*
X144212642Y-146356805D01*
X144189083Y-146361238D01*
X143972959Y-146500310D01*
X143827969Y-146712510D01*
X143776960Y-146964400D01*
X143776960Y-148691600D01*
X143821238Y-148926917D01*
X143960310Y-149143041D01*
X144007084Y-149175000D01*
X105521097Y-149175000D01*
X105744709Y-148710791D01*
X105747358Y-148695026D01*
X105626217Y-148463000D01*
X104267000Y-148463000D01*
X104267000Y-148483000D01*
X104013000Y-148483000D01*
X104013000Y-148463000D01*
X102653783Y-148463000D01*
X102532642Y-148695026D01*
X102535291Y-148710791D01*
X102758903Y-149175000D01*
X100761000Y-149175000D01*
X100761000Y-145796000D01*
X102456655Y-145796000D01*
X102570729Y-146369489D01*
X102895585Y-146855670D01*
X103205069Y-147062461D01*
X102789268Y-147433964D01*
X102535291Y-147961209D01*
X102532642Y-147976974D01*
X102653783Y-148209000D01*
X104013000Y-148209000D01*
X104013000Y-148189000D01*
X104267000Y-148189000D01*
X104267000Y-148209000D01*
X105626217Y-148209000D01*
X105747358Y-147976974D01*
X105744709Y-147961209D01*
X105683296Y-147833719D01*
X105734593Y-147867994D01*
X106172000Y-147955000D01*
X108712000Y-147955000D01*
X109149407Y-147867994D01*
X109520223Y-147620223D01*
X110550696Y-146589750D01*
X112395000Y-146589750D01*
X112395000Y-146938309D01*
X112491673Y-147171698D01*
X112670301Y-147350327D01*
X112903690Y-147447000D01*
X113760250Y-147447000D01*
X113919000Y-147288250D01*
X113919000Y-146431000D01*
X112553750Y-146431000D01*
X112395000Y-146589750D01*
X110550696Y-146589750D01*
X111979446Y-145161000D01*
X112903690Y-145161000D01*
X112670301Y-145257673D01*
X112491673Y-145436302D01*
X112395000Y-145669691D01*
X112395000Y-146018250D01*
X112553750Y-146177000D01*
X113919000Y-146177000D01*
X113919000Y-146157000D01*
X114173000Y-146157000D01*
X114173000Y-146177000D01*
X114193000Y-146177000D01*
X114193000Y-146431000D01*
X114173000Y-146431000D01*
X114173000Y-147288250D01*
X114331750Y-147447000D01*
X115188310Y-147447000D01*
X115421699Y-147350327D01*
X115600327Y-147171698D01*
X115697000Y-146938309D01*
X115697000Y-146611686D01*
X115699800Y-146614486D01*
X115699800Y-147045680D01*
X115744078Y-147280997D01*
X115883150Y-147497121D01*
X116095350Y-147642111D01*
X116347240Y-147693120D01*
X118297960Y-147693120D01*
X118533277Y-147648842D01*
X118749401Y-147509770D01*
X118874883Y-147326121D01*
X118907713Y-147405379D01*
X119086342Y-147584007D01*
X119319731Y-147680680D01*
X120135650Y-147680680D01*
X120294400Y-147521930D01*
X120294400Y-145923000D01*
X120548400Y-145923000D01*
X120548400Y-147521930D01*
X120707150Y-147680680D01*
X121523069Y-147680680D01*
X121756458Y-147584007D01*
X121935087Y-147405379D01*
X122031760Y-147171990D01*
X122031760Y-147057750D01*
X127266000Y-147057750D01*
X127266000Y-148648310D01*
X127362673Y-148881699D01*
X127541302Y-149060327D01*
X127774691Y-149157000D01*
X128365250Y-149157000D01*
X128524000Y-148998250D01*
X128524000Y-146899000D01*
X128778000Y-146899000D01*
X128778000Y-148998250D01*
X128936750Y-149157000D01*
X129527309Y-149157000D01*
X129760698Y-149060327D01*
X129921000Y-148900026D01*
X130081302Y-149060327D01*
X130314691Y-149157000D01*
X130905250Y-149157000D01*
X131064000Y-148998250D01*
X131064000Y-146899000D01*
X131318000Y-146899000D01*
X131318000Y-148998250D01*
X131476750Y-149157000D01*
X132067309Y-149157000D01*
X132300698Y-149060327D01*
X132461000Y-148900026D01*
X132621302Y-149060327D01*
X132854691Y-149157000D01*
X133445250Y-149157000D01*
X133604000Y-148998250D01*
X133604000Y-146899000D01*
X133858000Y-146899000D01*
X133858000Y-148998250D01*
X134016750Y-149157000D01*
X134607309Y-149157000D01*
X134840698Y-149060327D01*
X135019327Y-148881699D01*
X135116000Y-148648310D01*
X135116000Y-147057750D01*
X134957250Y-146899000D01*
X133858000Y-146899000D01*
X133604000Y-146899000D01*
X132504750Y-146899000D01*
X132461000Y-146942750D01*
X132417250Y-146899000D01*
X131318000Y-146899000D01*
X131064000Y-146899000D01*
X129964750Y-146899000D01*
X129921000Y-146942750D01*
X129877250Y-146899000D01*
X128778000Y-146899000D01*
X128524000Y-146899000D01*
X127424750Y-146899000D01*
X127266000Y-147057750D01*
X122031760Y-147057750D01*
X122031760Y-146081750D01*
X121873010Y-145923000D01*
X120548400Y-145923000D01*
X120294400Y-145923000D01*
X120274400Y-145923000D01*
X120274400Y-145669000D01*
X120294400Y-145669000D01*
X120294400Y-144070070D01*
X120242330Y-144018000D01*
X120294400Y-143965930D01*
X120294400Y-142367000D01*
X120548400Y-142367000D01*
X120548400Y-143965930D01*
X120600470Y-144018000D01*
X120548400Y-144070070D01*
X120548400Y-145669000D01*
X121873010Y-145669000D01*
X122031760Y-145510250D01*
X122031760Y-144895690D01*
X127266000Y-144895690D01*
X127266000Y-146486250D01*
X127424750Y-146645000D01*
X128524000Y-146645000D01*
X128524000Y-144545750D01*
X128778000Y-144545750D01*
X128778000Y-146645000D01*
X129877250Y-146645000D01*
X129921000Y-146601250D01*
X129964750Y-146645000D01*
X131064000Y-146645000D01*
X131064000Y-144545750D01*
X131318000Y-144545750D01*
X131318000Y-146645000D01*
X132417250Y-146645000D01*
X132461000Y-146601250D01*
X132504750Y-146645000D01*
X133604000Y-146645000D01*
X133604000Y-144545750D01*
X133858000Y-144545750D01*
X133858000Y-146645000D01*
X134957250Y-146645000D01*
X135116000Y-146486250D01*
X135116000Y-144895690D01*
X135019327Y-144662301D01*
X134840698Y-144483673D01*
X134607309Y-144387000D01*
X134016750Y-144387000D01*
X133858000Y-144545750D01*
X133604000Y-144545750D01*
X133445250Y-144387000D01*
X132854691Y-144387000D01*
X132621302Y-144483673D01*
X132461000Y-144643974D01*
X132300698Y-144483673D01*
X132067309Y-144387000D01*
X131476750Y-144387000D01*
X131318000Y-144545750D01*
X131064000Y-144545750D01*
X130905250Y-144387000D01*
X130314691Y-144387000D01*
X130081302Y-144483673D01*
X129921000Y-144643974D01*
X129760698Y-144483673D01*
X129527309Y-144387000D01*
X128936750Y-144387000D01*
X128778000Y-144545750D01*
X128524000Y-144545750D01*
X128365250Y-144387000D01*
X127774691Y-144387000D01*
X127541302Y-144483673D01*
X127362673Y-144662301D01*
X127266000Y-144895690D01*
X122031760Y-144895690D01*
X122031760Y-144420010D01*
X121935087Y-144186621D01*
X121766465Y-144018000D01*
X121935087Y-143849379D01*
X122031760Y-143615990D01*
X122031760Y-142525750D01*
X121873010Y-142367000D01*
X120548400Y-142367000D01*
X120294400Y-142367000D01*
X120274400Y-142367000D01*
X120274400Y-142113000D01*
X120294400Y-142113000D01*
X120294400Y-140514070D01*
X120548400Y-140514070D01*
X120548400Y-142113000D01*
X121873010Y-142113000D01*
X122031760Y-141954250D01*
X122031760Y-140864010D01*
X121935087Y-140630621D01*
X121756458Y-140451993D01*
X121523069Y-140355320D01*
X120707150Y-140355320D01*
X120548400Y-140514070D01*
X120294400Y-140514070D01*
X120135650Y-140355320D01*
X119862240Y-140355320D01*
X119998716Y-140026648D01*
X119999284Y-139376205D01*
X119750894Y-138775057D01*
X119291363Y-138314722D01*
X118690648Y-138065284D01*
X118040205Y-138064716D01*
X117568929Y-138259444D01*
X117569362Y-137763087D01*
X117252608Y-136996485D01*
X116666600Y-136409453D01*
X115900552Y-136091362D01*
X115071087Y-136090638D01*
X114304485Y-136407392D01*
X113717453Y-136993400D01*
X113399362Y-137759448D01*
X113398638Y-138588913D01*
X113715392Y-139355515D01*
X114301400Y-139942547D01*
X115067448Y-140260638D01*
X115336441Y-140260873D01*
X115250314Y-140347000D01*
X114046000Y-140347000D01*
X113515983Y-140452427D01*
X113330205Y-140576560D01*
X113030000Y-140576560D01*
X112794683Y-140620838D01*
X112578559Y-140759910D01*
X112433569Y-140972110D01*
X112382560Y-141224000D01*
X112382560Y-142240000D01*
X112426838Y-142475317D01*
X112565910Y-142691441D01*
X112778110Y-142836431D01*
X112966314Y-142874543D01*
X112963887Y-142875000D01*
X111968283Y-142875000D01*
X111895765Y-142802355D01*
X111723650Y-142730886D01*
X111689407Y-142708006D01*
X111649369Y-142700042D01*
X111478756Y-142629197D01*
X111374342Y-142629106D01*
X110617000Y-141871764D01*
X110617000Y-140517313D01*
X110750225Y-140384320D01*
X110934290Y-139941041D01*
X110934709Y-139461065D01*
X110751418Y-139017465D01*
X110412320Y-138677775D01*
X109969041Y-138493710D01*
X109489065Y-138493291D01*
X109045465Y-138676582D01*
X108705775Y-139015680D01*
X108521710Y-139458959D01*
X108521291Y-139938935D01*
X108704582Y-140382535D01*
X108839000Y-140517188D01*
X108839000Y-141680986D01*
X108709890Y-141592769D01*
X108458000Y-141541760D01*
X106426000Y-141541760D01*
X106190683Y-141586038D01*
X105974559Y-141725110D01*
X105829569Y-141937310D01*
X105778560Y-142189200D01*
X105778560Y-143128998D01*
X105626218Y-143128998D01*
X105747358Y-142896974D01*
X105744709Y-142881209D01*
X105490732Y-142353964D01*
X105078892Y-141986000D01*
X105490732Y-141618036D01*
X105744709Y-141090791D01*
X105747358Y-141075026D01*
X105626217Y-140843000D01*
X104267000Y-140843000D01*
X104267000Y-143129000D01*
X104287000Y-143129000D01*
X104287000Y-143383000D01*
X104267000Y-143383000D01*
X104267000Y-143403000D01*
X104013000Y-143403000D01*
X104013000Y-143383000D01*
X102653783Y-143383000D01*
X102532642Y-143615026D01*
X102535291Y-143630791D01*
X102789268Y-144158036D01*
X103205069Y-144529539D01*
X102895585Y-144736330D01*
X102570729Y-145222511D01*
X102456655Y-145796000D01*
X100761000Y-145796000D01*
X100761000Y-141075026D01*
X102532642Y-141075026D01*
X102535291Y-141090791D01*
X102789268Y-141618036D01*
X103201108Y-141986000D01*
X102789268Y-142353964D01*
X102535291Y-142881209D01*
X102532642Y-142896974D01*
X102653783Y-143129000D01*
X104013000Y-143129000D01*
X104013000Y-140843000D01*
X102653783Y-140843000D01*
X102532642Y-141075026D01*
X100761000Y-141075026D01*
X100761000Y-135636000D01*
X102456655Y-135636000D01*
X102505000Y-135879047D01*
X102505000Y-137932953D01*
X102456655Y-138176000D01*
X102570729Y-138749489D01*
X102895585Y-139235670D01*
X102938670Y-139264459D01*
X102983880Y-139332120D01*
X103181086Y-139463889D01*
X102789268Y-139813964D01*
X102535291Y-140341209D01*
X102532642Y-140356974D01*
X102653783Y-140589000D01*
X104013000Y-140589000D01*
X104013000Y-140569000D01*
X104267000Y-140569000D01*
X104267000Y-140589000D01*
X105626217Y-140589000D01*
X105747358Y-140356974D01*
X105744709Y-140341209D01*
X105490732Y-139813964D01*
X105098914Y-139463889D01*
X105296120Y-139332120D01*
X105341330Y-139264459D01*
X105384415Y-139235670D01*
X105709271Y-138749489D01*
X105823345Y-138176000D01*
X105775000Y-137932953D01*
X105775000Y-135879047D01*
X105823345Y-135636000D01*
X105709271Y-135062511D01*
X105384415Y-134576330D01*
X105341330Y-134547541D01*
X105296120Y-134479880D01*
X105098914Y-134348111D01*
X105490732Y-133998036D01*
X105744709Y-133470791D01*
X105747358Y-133455026D01*
X105626217Y-133223000D01*
X104267000Y-133223000D01*
X104267000Y-133243000D01*
X104013000Y-133243000D01*
X104013000Y-133223000D01*
X102653783Y-133223000D01*
X102532642Y-133455026D01*
X102535291Y-133470791D01*
X102789268Y-133998036D01*
X103181086Y-134348111D01*
X102983880Y-134479880D01*
X102938670Y-134547541D01*
X102895585Y-134576330D01*
X102570729Y-135062511D01*
X102456655Y-135636000D01*
X100761000Y-135636000D01*
X100761000Y-130915026D01*
X102532642Y-130915026D01*
X102535291Y-130930791D01*
X102789268Y-131458036D01*
X103201108Y-131826000D01*
X102789268Y-132193964D01*
X102535291Y-132721209D01*
X102532642Y-132736974D01*
X102653783Y-132969000D01*
X104013000Y-132969000D01*
X104013000Y-130683000D01*
X102653783Y-130683000D01*
X102532642Y-130915026D01*
X100761000Y-130915026D01*
X100761000Y-120755026D01*
X102532642Y-120755026D01*
X102535291Y-120770791D01*
X102789268Y-121298036D01*
X103201108Y-121666000D01*
X102789268Y-122033964D01*
X102535291Y-122561209D01*
X102532642Y-122576974D01*
X102653783Y-122809000D01*
X104013000Y-122809000D01*
X104013000Y-120523000D01*
X102653783Y-120523000D01*
X102532642Y-120755026D01*
X100761000Y-120755026D01*
X100761000Y-101219000D01*
X108036776Y-101219000D01*
X107707631Y-102017642D01*
G36*
X117064000Y-125189000D02*
X117084000Y-125189000D01*
X117084000Y-125443000D01*
X117064000Y-125443000D01*
X117064000Y-125463000D01*
X116810000Y-125463000D01*
X116810000Y-125443000D01*
X116790000Y-125443000D01*
X116790000Y-125420883D01*
X116883329Y-125281206D01*
X116905648Y-125169000D01*
X117064000Y-125169000D01*
X117064000Y-125189000D01*
X117064000Y-125189000D01*
G37*
X117064000Y-125189000D02*
X117084000Y-125189000D01*
X117084000Y-125443000D01*
X117064000Y-125443000D01*
X117064000Y-125463000D01*
X116810000Y-125463000D01*
X116810000Y-125443000D01*
X116790000Y-125443000D01*
X116790000Y-125420883D01*
X116883329Y-125281206D01*
X116905648Y-125169000D01*
X117064000Y-125169000D01*
X117064000Y-125189000D01*
G36*
X119065000Y-107546140D02*
X119085000Y-107546140D01*
X119085000Y-107651052D01*
X118988140Y-108138000D01*
X118988140Y-110502346D01*
X118876279Y-110666060D01*
X118825270Y-110917950D01*
X118825270Y-111556202D01*
X118735380Y-111416509D01*
X118726446Y-111410405D01*
X118526979Y-111111881D01*
X117996547Y-110757458D01*
X117879044Y-110734085D01*
X118090047Y-110694382D01*
X118306171Y-110555310D01*
X118451161Y-110343110D01*
X118502170Y-110091220D01*
X118502170Y-109208570D01*
X118652250Y-109208570D01*
X118811000Y-109049820D01*
X118811000Y-107800140D01*
X118791000Y-107800140D01*
X118791000Y-107546140D01*
X118811000Y-107546140D01*
X118811000Y-107526140D01*
X119065000Y-107526140D01*
X119065000Y-107546140D01*
X119065000Y-107546140D01*
G37*
X119065000Y-107546140D02*
X119085000Y-107546140D01*
X119085000Y-107651052D01*
X118988140Y-108138000D01*
X118988140Y-110502346D01*
X118876279Y-110666060D01*
X118825270Y-110917950D01*
X118825270Y-111556202D01*
X118735380Y-111416509D01*
X118726446Y-111410405D01*
X118526979Y-111111881D01*
X117996547Y-110757458D01*
X117879044Y-110734085D01*
X118090047Y-110694382D01*
X118306171Y-110555310D01*
X118451161Y-110343110D01*
X118502170Y-110091220D01*
X118502170Y-109208570D01*
X118652250Y-109208570D01*
X118811000Y-109049820D01*
X118811000Y-107800140D01*
X118791000Y-107800140D01*
X118791000Y-107546140D01*
X118811000Y-107546140D01*
X118811000Y-107526140D01*
X119065000Y-107526140D01*
X119065000Y-107546140D01*
G36*
X132993446Y-101301841D02*
X133894000Y-102202395D01*
X134794554Y-101301841D01*
X134766646Y-101219000D01*
X137386318Y-101219000D01*
X137093449Y-101511357D01*
X136859267Y-102075330D01*
X136858758Y-102660006D01*
X134328732Y-105190032D01*
X134329292Y-104548303D01*
X134073306Y-103928771D01*
X134056111Y-103911546D01*
X134263460Y-103902839D01*
X134708148Y-103718643D01*
X134794554Y-103462159D01*
X133894000Y-102561605D01*
X133879858Y-102575748D01*
X133700253Y-102396143D01*
X133714395Y-102382000D01*
X134073605Y-102382000D01*
X134974159Y-103282554D01*
X135230643Y-103196148D01*
X135440458Y-102622664D01*
X135414839Y-102012540D01*
X135230643Y-101567852D01*
X134974159Y-101481446D01*
X134073605Y-102382000D01*
X133714395Y-102382000D01*
X132813841Y-101481446D01*
X132557357Y-101567852D01*
X132347542Y-102141336D01*
X132373161Y-102751460D01*
X132557357Y-103196148D01*
X132559665Y-103196926D01*
X132310303Y-103196708D01*
X131690771Y-103452694D01*
X131216360Y-103926278D01*
X130959293Y-104545362D01*
X130958708Y-105215697D01*
X131214694Y-105835229D01*
X131688278Y-106309640D01*
X132307362Y-106566707D01*
X132951495Y-106567269D01*
X131959382Y-107559382D01*
X131766671Y-107847794D01*
X131699000Y-108188000D01*
X131699000Y-108853764D01*
X131217296Y-109335468D01*
X131051880Y-109266950D01*
X130310890Y-109266950D01*
X130152140Y-109425700D01*
X130152140Y-110175000D01*
X130172140Y-110175000D01*
X130172140Y-110363000D01*
X129878140Y-110363000D01*
X129878140Y-110175000D01*
X129898140Y-110175000D01*
X129898140Y-109425700D01*
X129739390Y-109266950D01*
X128998400Y-109266950D01*
X128905000Y-109305638D01*
X128905000Y-109220000D01*
X128837329Y-108879794D01*
X128644618Y-108591382D01*
X128136618Y-108083382D01*
X128031800Y-108013345D01*
X127848206Y-107890671D01*
X127764440Y-107874009D01*
X127764440Y-107212000D01*
X127720162Y-106976683D01*
X127581090Y-106760559D01*
X127381000Y-106623843D01*
X127381000Y-106514453D01*
X127551670Y-106400415D01*
X127566500Y-106378220D01*
X127630073Y-106531698D01*
X127808701Y-106710327D01*
X128042090Y-106807000D01*
X128746250Y-106807000D01*
X128905000Y-106648250D01*
X128905000Y-105283000D01*
X129159000Y-105283000D01*
X129159000Y-106648250D01*
X129317750Y-106807000D01*
X130021910Y-106807000D01*
X130255299Y-106710327D01*
X130433927Y-106531698D01*
X130530600Y-106298309D01*
X130530600Y-105441750D01*
X130371850Y-105283000D01*
X129159000Y-105283000D01*
X128905000Y-105283000D01*
X128885000Y-105283000D01*
X128885000Y-105029000D01*
X128905000Y-105029000D01*
X128905000Y-103663750D01*
X129159000Y-103663750D01*
X129159000Y-105029000D01*
X130371850Y-105029000D01*
X130530600Y-104870250D01*
X130530600Y-104013691D01*
X130433927Y-103780302D01*
X130255299Y-103601673D01*
X130021910Y-103505000D01*
X129317750Y-103505000D01*
X129159000Y-103663750D01*
X128905000Y-103663750D01*
X128746250Y-103505000D01*
X128042090Y-103505000D01*
X127808701Y-103601673D01*
X127630073Y-103780302D01*
X127566500Y-103933780D01*
X127551670Y-103911585D01*
X127065489Y-103586729D01*
X126492000Y-103472655D01*
X125918511Y-103586729D01*
X125432330Y-103911585D01*
X125222000Y-104226366D01*
X125011670Y-103911585D01*
X124525489Y-103586729D01*
X123952000Y-103472655D01*
X123378511Y-103586729D01*
X122892330Y-103911585D01*
X122567474Y-104397766D01*
X122495798Y-104758106D01*
X121128634Y-106125270D01*
X120599798Y-106125270D01*
X120739491Y-106035380D01*
X120745594Y-106026448D01*
X121044120Y-105826980D01*
X121398543Y-105296547D01*
X121523000Y-104670860D01*
X121398543Y-104045173D01*
X121044120Y-103514740D01*
X120752881Y-103320141D01*
X120752140Y-103318989D01*
X120539940Y-103173999D01*
X120531652Y-103172321D01*
X120513687Y-103160317D01*
X119888000Y-103035860D01*
X118458343Y-103035860D01*
X118457892Y-103033463D01*
X118318820Y-102817339D01*
X118106620Y-102672349D01*
X117854730Y-102621340D01*
X115825270Y-102621340D01*
X115589953Y-102665618D01*
X115373829Y-102804690D01*
X115228839Y-103016890D01*
X115177830Y-103268780D01*
X115177830Y-105920540D01*
X115222108Y-106155857D01*
X115361180Y-106371981D01*
X115573380Y-106516971D01*
X115825270Y-106567980D01*
X117854730Y-106567980D01*
X117942254Y-106551511D01*
X117902950Y-106646400D01*
X117902950Y-106801785D01*
X117854730Y-106792020D01*
X115825270Y-106792020D01*
X115589953Y-106836298D01*
X115373829Y-106975370D01*
X115304388Y-107077000D01*
X113791740Y-107077000D01*
X113791740Y-106311700D01*
X113747462Y-106076383D01*
X113608390Y-105860259D01*
X113396190Y-105715269D01*
X113144300Y-105664260D01*
X108634056Y-105664260D01*
X108698772Y-105508407D01*
X108699355Y-104840253D01*
X108759671Y-104779937D01*
X109029221Y-105192257D01*
X110145642Y-105652369D01*
X111353157Y-105650221D01*
X112458779Y-105192257D01*
X112728330Y-104779936D01*
X110744000Y-102795605D01*
X110729858Y-102809748D01*
X110550252Y-102630142D01*
X110564395Y-102616000D01*
X110550252Y-102601858D01*
X110729858Y-102422252D01*
X110744000Y-102436395D01*
X110758142Y-102422252D01*
X110937748Y-102601858D01*
X110923605Y-102616000D01*
X112907936Y-104600330D01*
X113320257Y-104330779D01*
X113780369Y-103214358D01*
X113778221Y-102006843D01*
X113451885Y-101219000D01*
X133021354Y-101219000D01*
X132993446Y-101301841D01*
X132993446Y-101301841D01*
G37*
X132993446Y-101301841D02*
X133894000Y-102202395D01*
X134794554Y-101301841D01*
X134766646Y-101219000D01*
X137386318Y-101219000D01*
X137093449Y-101511357D01*
X136859267Y-102075330D01*
X136858758Y-102660006D01*
X134328732Y-105190032D01*
X134329292Y-104548303D01*
X134073306Y-103928771D01*
X134056111Y-103911546D01*
X134263460Y-103902839D01*
X134708148Y-103718643D01*
X134794554Y-103462159D01*
X133894000Y-102561605D01*
X133879858Y-102575748D01*
X133700253Y-102396143D01*
X133714395Y-102382000D01*
X134073605Y-102382000D01*
X134974159Y-103282554D01*
X135230643Y-103196148D01*
X135440458Y-102622664D01*
X135414839Y-102012540D01*
X135230643Y-101567852D01*
X134974159Y-101481446D01*
X134073605Y-102382000D01*
X133714395Y-102382000D01*
X132813841Y-101481446D01*
X132557357Y-101567852D01*
X132347542Y-102141336D01*
X132373161Y-102751460D01*
X132557357Y-103196148D01*
X132559665Y-103196926D01*
X132310303Y-103196708D01*
X131690771Y-103452694D01*
X131216360Y-103926278D01*
X130959293Y-104545362D01*
X130958708Y-105215697D01*
X131214694Y-105835229D01*
X131688278Y-106309640D01*
X132307362Y-106566707D01*
X132951495Y-106567269D01*
X131959382Y-107559382D01*
X131766671Y-107847794D01*
X131699000Y-108188000D01*
X131699000Y-108853764D01*
X131217296Y-109335468D01*
X131051880Y-109266950D01*
X130310890Y-109266950D01*
X130152140Y-109425700D01*
X130152140Y-110175000D01*
X130172140Y-110175000D01*
X130172140Y-110363000D01*
X129878140Y-110363000D01*
X129878140Y-110175000D01*
X129898140Y-110175000D01*
X129898140Y-109425700D01*
X129739390Y-109266950D01*
X128998400Y-109266950D01*
X128905000Y-109305638D01*
X128905000Y-109220000D01*
X128837329Y-108879794D01*
X128644618Y-108591382D01*
X128136618Y-108083382D01*
X128031800Y-108013345D01*
X127848206Y-107890671D01*
X127764440Y-107874009D01*
X127764440Y-107212000D01*
X127720162Y-106976683D01*
X127581090Y-106760559D01*
X127381000Y-106623843D01*
X127381000Y-106514453D01*
X127551670Y-106400415D01*
X127566500Y-106378220D01*
X127630073Y-106531698D01*
X127808701Y-106710327D01*
X128042090Y-106807000D01*
X128746250Y-106807000D01*
X128905000Y-106648250D01*
X128905000Y-105283000D01*
X129159000Y-105283000D01*
X129159000Y-106648250D01*
X129317750Y-106807000D01*
X130021910Y-106807000D01*
X130255299Y-106710327D01*
X130433927Y-106531698D01*
X130530600Y-106298309D01*
X130530600Y-105441750D01*
X130371850Y-105283000D01*
X129159000Y-105283000D01*
X128905000Y-105283000D01*
X128885000Y-105283000D01*
X128885000Y-105029000D01*
X128905000Y-105029000D01*
X128905000Y-103663750D01*
X129159000Y-103663750D01*
X129159000Y-105029000D01*
X130371850Y-105029000D01*
X130530600Y-104870250D01*
X130530600Y-104013691D01*
X130433927Y-103780302D01*
X130255299Y-103601673D01*
X130021910Y-103505000D01*
X129317750Y-103505000D01*
X129159000Y-103663750D01*
X128905000Y-103663750D01*
X128746250Y-103505000D01*
X128042090Y-103505000D01*
X127808701Y-103601673D01*
X127630073Y-103780302D01*
X127566500Y-103933780D01*
X127551670Y-103911585D01*
X127065489Y-103586729D01*
X126492000Y-103472655D01*
X125918511Y-103586729D01*
X125432330Y-103911585D01*
X125222000Y-104226366D01*
X125011670Y-103911585D01*
X124525489Y-103586729D01*
X123952000Y-103472655D01*
X123378511Y-103586729D01*
X122892330Y-103911585D01*
X122567474Y-104397766D01*
X122495798Y-104758106D01*
X121128634Y-106125270D01*
X120599798Y-106125270D01*
X120739491Y-106035380D01*
X120745594Y-106026448D01*
X121044120Y-105826980D01*
X121398543Y-105296547D01*
X121523000Y-104670860D01*
X121398543Y-104045173D01*
X121044120Y-103514740D01*
X120752881Y-103320141D01*
X120752140Y-103318989D01*
X120539940Y-103173999D01*
X120531652Y-103172321D01*
X120513687Y-103160317D01*
X119888000Y-103035860D01*
X118458343Y-103035860D01*
X118457892Y-103033463D01*
X118318820Y-102817339D01*
X118106620Y-102672349D01*
X117854730Y-102621340D01*
X115825270Y-102621340D01*
X115589953Y-102665618D01*
X115373829Y-102804690D01*
X115228839Y-103016890D01*
X115177830Y-103268780D01*
X115177830Y-105920540D01*
X115222108Y-106155857D01*
X115361180Y-106371981D01*
X115573380Y-106516971D01*
X115825270Y-106567980D01*
X117854730Y-106567980D01*
X117942254Y-106551511D01*
X117902950Y-106646400D01*
X117902950Y-106801785D01*
X117854730Y-106792020D01*
X115825270Y-106792020D01*
X115589953Y-106836298D01*
X115373829Y-106975370D01*
X115304388Y-107077000D01*
X113791740Y-107077000D01*
X113791740Y-106311700D01*
X113747462Y-106076383D01*
X113608390Y-105860259D01*
X113396190Y-105715269D01*
X113144300Y-105664260D01*
X108634056Y-105664260D01*
X108698772Y-105508407D01*
X108699355Y-104840253D01*
X108759671Y-104779937D01*
X109029221Y-105192257D01*
X110145642Y-105652369D01*
X111353157Y-105650221D01*
X112458779Y-105192257D01*
X112728330Y-104779936D01*
X110744000Y-102795605D01*
X110729858Y-102809748D01*
X110550252Y-102630142D01*
X110564395Y-102616000D01*
X110550252Y-102601858D01*
X110729858Y-102422252D01*
X110744000Y-102436395D01*
X110758142Y-102422252D01*
X110937748Y-102601858D01*
X110923605Y-102616000D01*
X112907936Y-104600330D01*
X113320257Y-104330779D01*
X113780369Y-103214358D01*
X113778221Y-102006843D01*
X113451885Y-101219000D01*
X133021354Y-101219000D01*
X132993446Y-101301841D01*
M02*
