G04 #@! TF.FileFunction,Legend,Top*
%FSLAX46Y46*%
G04 Gerber Fmt 4.6, Leading zero omitted, Abs format (unit mm)*
G04 Created by KiCad (PCBNEW 4.0.2-4+6225~38~ubuntu14.04.1-stable) date Fri 18 Mar 2016 20:19:54 GMT*
%MOMM*%
G01*
G04 APERTURE LIST*
%ADD10C,0.100000*%
%ADD11C,0.200000*%
%ADD12C,0.120000*%
%ADD13C,0.110000*%
%ADD14C,0.150000*%
%ADD15C,0.300000*%
%ADD16C,0.127000*%
%ADD17C,0.152400*%
G04 APERTURE END LIST*
D10*
D11*
X131572000Y-119888000D02*
X121920000Y-119888000D01*
X119888000Y-119380000D02*
X121412000Y-119380000D01*
D12*
X101345905Y-101800381D02*
X100774476Y-101800381D01*
X101060190Y-101800381D02*
X101060190Y-100800381D01*
X100964952Y-100943238D01*
X100869714Y-101038476D01*
X100774476Y-101086095D01*
X101726857Y-100895619D02*
X101774476Y-100848000D01*
X101869714Y-100800381D01*
X102107810Y-100800381D01*
X102203048Y-100848000D01*
X102250667Y-100895619D01*
X102298286Y-100990857D01*
X102298286Y-101086095D01*
X102250667Y-101228952D01*
X101679238Y-101800381D01*
X102298286Y-101800381D01*
X102584000Y-100800381D02*
X102917333Y-101800381D01*
X103250667Y-100800381D01*
X100679238Y-102653714D02*
X101060190Y-102653714D01*
X100822095Y-102320381D02*
X100822095Y-103177524D01*
X100869714Y-103272762D01*
X100964952Y-103320381D01*
X101060190Y-103320381D01*
X101393524Y-103320381D02*
X101393524Y-102653714D01*
X101393524Y-102320381D02*
X101345905Y-102368000D01*
X101393524Y-102415619D01*
X101441143Y-102368000D01*
X101393524Y-102320381D01*
X101393524Y-102415619D01*
X101869714Y-102653714D02*
X101869714Y-103653714D01*
X101869714Y-102701333D02*
X101964952Y-102653714D01*
X102155429Y-102653714D01*
X102250667Y-102701333D01*
X102298286Y-102748952D01*
X102345905Y-102844190D01*
X102345905Y-103129905D01*
X102298286Y-103225143D01*
X102250667Y-103272762D01*
X102155429Y-103320381D01*
X101964952Y-103320381D01*
X101869714Y-103272762D01*
X102774476Y-102939429D02*
X103536381Y-102939429D01*
X103155429Y-103320381D02*
X103155429Y-102558476D01*
D13*
X134377334Y-106042667D02*
X134510667Y-106042667D01*
X134577334Y-106076000D01*
X134644001Y-106142667D01*
X134677334Y-106276000D01*
X134677334Y-106509333D01*
X134644001Y-106642667D01*
X134577334Y-106709333D01*
X134510667Y-106742667D01*
X134377334Y-106742667D01*
X134310667Y-106709333D01*
X134244001Y-106642667D01*
X134210667Y-106509333D01*
X134210667Y-106276000D01*
X134244001Y-106142667D01*
X134310667Y-106076000D01*
X134377334Y-106042667D01*
X134977334Y-106742667D02*
X134977334Y-106042667D01*
X135377334Y-106742667D01*
X135377334Y-106042667D01*
X136210667Y-106009333D02*
X135610667Y-106909333D01*
X136577333Y-106042667D02*
X136710666Y-106042667D01*
X136777333Y-106076000D01*
X136844000Y-106142667D01*
X136877333Y-106276000D01*
X136877333Y-106509333D01*
X136844000Y-106642667D01*
X136777333Y-106709333D01*
X136710666Y-106742667D01*
X136577333Y-106742667D01*
X136510666Y-106709333D01*
X136444000Y-106642667D01*
X136410666Y-106509333D01*
X136410666Y-106276000D01*
X136444000Y-106142667D01*
X136510666Y-106076000D01*
X136577333Y-106042667D01*
X137410666Y-106376000D02*
X137177333Y-106376000D01*
X137177333Y-106742667D02*
X137177333Y-106042667D01*
X137510666Y-106042667D01*
X138010666Y-106376000D02*
X137777333Y-106376000D01*
X137777333Y-106742667D02*
X137777333Y-106042667D01*
X138110666Y-106042667D01*
D10*
X147485143Y-146333000D02*
X147442286Y-146311571D01*
X147378000Y-146311571D01*
X147313715Y-146333000D01*
X147270857Y-146375857D01*
X147249429Y-146418714D01*
X147228000Y-146504429D01*
X147228000Y-146568714D01*
X147249429Y-146654429D01*
X147270857Y-146697286D01*
X147313715Y-146740143D01*
X147378000Y-146761571D01*
X147420857Y-146761571D01*
X147485143Y-146740143D01*
X147506572Y-146718714D01*
X147506572Y-146568714D01*
X147420857Y-146568714D01*
X147699429Y-146761571D02*
X147699429Y-146311571D01*
X147956572Y-146761571D01*
X147956572Y-146311571D01*
X148170858Y-146761571D02*
X148170858Y-146311571D01*
X148278001Y-146311571D01*
X148342286Y-146333000D01*
X148385144Y-146375857D01*
X148406572Y-146418714D01*
X148428001Y-146504429D01*
X148428001Y-146568714D01*
X148406572Y-146654429D01*
X148385144Y-146697286D01*
X148342286Y-146740143D01*
X148278001Y-146761571D01*
X148170858Y-146761571D01*
X147485143Y-143793000D02*
X147442286Y-143771571D01*
X147378000Y-143771571D01*
X147313715Y-143793000D01*
X147270857Y-143835857D01*
X147249429Y-143878714D01*
X147228000Y-143964429D01*
X147228000Y-144028714D01*
X147249429Y-144114429D01*
X147270857Y-144157286D01*
X147313715Y-144200143D01*
X147378000Y-144221571D01*
X147420857Y-144221571D01*
X147485143Y-144200143D01*
X147506572Y-144178714D01*
X147506572Y-144028714D01*
X147420857Y-144028714D01*
X147699429Y-144221571D02*
X147699429Y-143771571D01*
X147956572Y-144221571D01*
X147956572Y-143771571D01*
X148170858Y-144221571D02*
X148170858Y-143771571D01*
X148278001Y-143771571D01*
X148342286Y-143793000D01*
X148385144Y-143835857D01*
X148406572Y-143878714D01*
X148428001Y-143964429D01*
X148428001Y-144028714D01*
X148406572Y-144114429D01*
X148385144Y-144157286D01*
X148342286Y-144200143D01*
X148278001Y-144221571D01*
X148170858Y-144221571D01*
X145009429Y-146761571D02*
X144752286Y-146761571D01*
X144880858Y-146761571D02*
X144880858Y-146311571D01*
X144838001Y-146375857D01*
X144795143Y-146418714D01*
X144752286Y-146440143D01*
X145180857Y-146354429D02*
X145202286Y-146333000D01*
X145245143Y-146311571D01*
X145352286Y-146311571D01*
X145395143Y-146333000D01*
X145416572Y-146354429D01*
X145438000Y-146397286D01*
X145438000Y-146440143D01*
X145416572Y-146504429D01*
X145159429Y-146761571D01*
X145438000Y-146761571D01*
X145566571Y-146311571D02*
X145716571Y-146761571D01*
X145866571Y-146311571D01*
X145009429Y-144221571D02*
X144752286Y-144221571D01*
X144880858Y-144221571D02*
X144880858Y-143771571D01*
X144838001Y-143835857D01*
X144795143Y-143878714D01*
X144752286Y-143900143D01*
X145180857Y-143814429D02*
X145202286Y-143793000D01*
X145245143Y-143771571D01*
X145352286Y-143771571D01*
X145395143Y-143793000D01*
X145416572Y-143814429D01*
X145438000Y-143857286D01*
X145438000Y-143900143D01*
X145416572Y-143964429D01*
X145159429Y-144221571D01*
X145438000Y-144221571D01*
X145566571Y-143771571D02*
X145716571Y-144221571D01*
X145866571Y-143771571D01*
X102140143Y-146588856D02*
X102140143Y-146245999D01*
X102311571Y-146417428D02*
X101968714Y-146417428D01*
X101861571Y-146074570D02*
X101861571Y-145795999D01*
X102033000Y-145945999D01*
X102033000Y-145881713D01*
X102054429Y-145838856D01*
X102075857Y-145817427D01*
X102118714Y-145795999D01*
X102225857Y-145795999D01*
X102268714Y-145817427D01*
X102290143Y-145838856D01*
X102311571Y-145881713D01*
X102311571Y-146010285D01*
X102290143Y-146053142D01*
X102268714Y-146074570D01*
X101861571Y-145667428D02*
X102311571Y-145517428D01*
X101861571Y-145367428D01*
X101861571Y-145260285D02*
X101861571Y-144981714D01*
X102033000Y-145131714D01*
X102033000Y-145067428D01*
X102054429Y-145024571D01*
X102075857Y-145003142D01*
X102118714Y-144981714D01*
X102225857Y-144981714D01*
X102268714Y-145003142D01*
X102290143Y-145024571D01*
X102311571Y-145067428D01*
X102311571Y-145196000D01*
X102290143Y-145238857D01*
X102268714Y-145260285D01*
X102140143Y-138754571D02*
X102140143Y-138411714D01*
X102311571Y-138583143D02*
X101968714Y-138583143D01*
X101861571Y-137983142D02*
X101861571Y-138197428D01*
X102075857Y-138218857D01*
X102054429Y-138197428D01*
X102033000Y-138154571D01*
X102033000Y-138047428D01*
X102054429Y-138004571D01*
X102075857Y-137983142D01*
X102118714Y-137961714D01*
X102225857Y-137961714D01*
X102268714Y-137983142D01*
X102290143Y-138004571D01*
X102311571Y-138047428D01*
X102311571Y-138154571D01*
X102290143Y-138197428D01*
X102268714Y-138218857D01*
X101861571Y-137833143D02*
X102311571Y-137683143D01*
X101861571Y-137533143D01*
X102140143Y-136214571D02*
X102140143Y-135871714D01*
X102311571Y-136043143D02*
X101968714Y-136043143D01*
X101861571Y-135443142D02*
X101861571Y-135657428D01*
X102075857Y-135678857D01*
X102054429Y-135657428D01*
X102033000Y-135614571D01*
X102033000Y-135507428D01*
X102054429Y-135464571D01*
X102075857Y-135443142D01*
X102118714Y-135421714D01*
X102225857Y-135421714D01*
X102268714Y-135443142D01*
X102290143Y-135464571D01*
X102311571Y-135507428D01*
X102311571Y-135614571D01*
X102290143Y-135657428D01*
X102268714Y-135678857D01*
X101861571Y-135293143D02*
X102311571Y-135143143D01*
X101861571Y-134993143D01*
X102140143Y-128808856D02*
X102140143Y-128465999D01*
X102311571Y-128637428D02*
X101968714Y-128637428D01*
X101904429Y-128273142D02*
X101883000Y-128251713D01*
X101861571Y-128208856D01*
X101861571Y-128101713D01*
X101883000Y-128058856D01*
X101904429Y-128037427D01*
X101947286Y-128015999D01*
X101990143Y-128015999D01*
X102054429Y-128037427D01*
X102311571Y-128294570D01*
X102311571Y-128015999D01*
X101861571Y-127887428D02*
X102311571Y-127737428D01*
X101861571Y-127587428D01*
X101861571Y-127223142D02*
X101861571Y-127437428D01*
X102075857Y-127458857D01*
X102054429Y-127437428D01*
X102033000Y-127394571D01*
X102033000Y-127287428D01*
X102054429Y-127244571D01*
X102075857Y-127223142D01*
X102118714Y-127201714D01*
X102225857Y-127201714D01*
X102268714Y-127223142D01*
X102290143Y-127244571D01*
X102311571Y-127287428D01*
X102311571Y-127394571D01*
X102290143Y-127437428D01*
X102268714Y-127458857D01*
X102140143Y-126268856D02*
X102140143Y-125925999D01*
X102311571Y-126097428D02*
X101968714Y-126097428D01*
X101904429Y-125733142D02*
X101883000Y-125711713D01*
X101861571Y-125668856D01*
X101861571Y-125561713D01*
X101883000Y-125518856D01*
X101904429Y-125497427D01*
X101947286Y-125475999D01*
X101990143Y-125475999D01*
X102054429Y-125497427D01*
X102311571Y-125754570D01*
X102311571Y-125475999D01*
X101861571Y-125347428D02*
X102311571Y-125197428D01*
X101861571Y-125047428D01*
X101861571Y-124683142D02*
X101861571Y-124897428D01*
X102075857Y-124918857D01*
X102054429Y-124897428D01*
X102033000Y-124854571D01*
X102033000Y-124747428D01*
X102054429Y-124704571D01*
X102075857Y-124683142D01*
X102118714Y-124661714D01*
X102225857Y-124661714D01*
X102268714Y-124683142D01*
X102290143Y-124704571D01*
X102311571Y-124747428D01*
X102311571Y-124854571D01*
X102290143Y-124897428D01*
X102268714Y-124918857D01*
X101883000Y-148678857D02*
X101861571Y-148721714D01*
X101861571Y-148786000D01*
X101883000Y-148850285D01*
X101925857Y-148893143D01*
X101968714Y-148914571D01*
X102054429Y-148936000D01*
X102118714Y-148936000D01*
X102204429Y-148914571D01*
X102247286Y-148893143D01*
X102290143Y-148850285D01*
X102311571Y-148786000D01*
X102311571Y-148743143D01*
X102290143Y-148678857D01*
X102268714Y-148657428D01*
X102118714Y-148657428D01*
X102118714Y-148743143D01*
X102311571Y-148464571D02*
X101861571Y-148464571D01*
X102311571Y-148207428D01*
X101861571Y-148207428D01*
X102311571Y-147993142D02*
X101861571Y-147993142D01*
X101861571Y-147885999D01*
X101883000Y-147821714D01*
X101925857Y-147778856D01*
X101968714Y-147757428D01*
X102054429Y-147735999D01*
X102118714Y-147735999D01*
X102204429Y-147757428D01*
X102247286Y-147778856D01*
X102290143Y-147821714D01*
X102311571Y-147885999D01*
X102311571Y-147993142D01*
X101883000Y-143598857D02*
X101861571Y-143641714D01*
X101861571Y-143706000D01*
X101883000Y-143770285D01*
X101925857Y-143813143D01*
X101968714Y-143834571D01*
X102054429Y-143856000D01*
X102118714Y-143856000D01*
X102204429Y-143834571D01*
X102247286Y-143813143D01*
X102290143Y-143770285D01*
X102311571Y-143706000D01*
X102311571Y-143663143D01*
X102290143Y-143598857D01*
X102268714Y-143577428D01*
X102118714Y-143577428D01*
X102118714Y-143663143D01*
X102311571Y-143384571D02*
X101861571Y-143384571D01*
X102311571Y-143127428D01*
X101861571Y-143127428D01*
X102311571Y-142913142D02*
X101861571Y-142913142D01*
X101861571Y-142805999D01*
X101883000Y-142741714D01*
X101925857Y-142698856D01*
X101968714Y-142677428D01*
X102054429Y-142655999D01*
X102118714Y-142655999D01*
X102204429Y-142677428D01*
X102247286Y-142698856D01*
X102290143Y-142741714D01*
X102311571Y-142805999D01*
X102311571Y-142913142D01*
X101883000Y-141058857D02*
X101861571Y-141101714D01*
X101861571Y-141166000D01*
X101883000Y-141230285D01*
X101925857Y-141273143D01*
X101968714Y-141294571D01*
X102054429Y-141316000D01*
X102118714Y-141316000D01*
X102204429Y-141294571D01*
X102247286Y-141273143D01*
X102290143Y-141230285D01*
X102311571Y-141166000D01*
X102311571Y-141123143D01*
X102290143Y-141058857D01*
X102268714Y-141037428D01*
X102118714Y-141037428D01*
X102118714Y-141123143D01*
X102311571Y-140844571D02*
X101861571Y-140844571D01*
X102311571Y-140587428D01*
X101861571Y-140587428D01*
X102311571Y-140373142D02*
X101861571Y-140373142D01*
X101861571Y-140265999D01*
X101883000Y-140201714D01*
X101925857Y-140158856D01*
X101968714Y-140137428D01*
X102054429Y-140115999D01*
X102118714Y-140115999D01*
X102204429Y-140137428D01*
X102247286Y-140158856D01*
X102290143Y-140201714D01*
X102311571Y-140265999D01*
X102311571Y-140373142D01*
X101883000Y-133438857D02*
X101861571Y-133481714D01*
X101861571Y-133546000D01*
X101883000Y-133610285D01*
X101925857Y-133653143D01*
X101968714Y-133674571D01*
X102054429Y-133696000D01*
X102118714Y-133696000D01*
X102204429Y-133674571D01*
X102247286Y-133653143D01*
X102290143Y-133610285D01*
X102311571Y-133546000D01*
X102311571Y-133503143D01*
X102290143Y-133438857D01*
X102268714Y-133417428D01*
X102118714Y-133417428D01*
X102118714Y-133503143D01*
X102311571Y-133224571D02*
X101861571Y-133224571D01*
X102311571Y-132967428D01*
X101861571Y-132967428D01*
X102311571Y-132753142D02*
X101861571Y-132753142D01*
X101861571Y-132645999D01*
X101883000Y-132581714D01*
X101925857Y-132538856D01*
X101968714Y-132517428D01*
X102054429Y-132495999D01*
X102118714Y-132495999D01*
X102204429Y-132517428D01*
X102247286Y-132538856D01*
X102290143Y-132581714D01*
X102311571Y-132645999D01*
X102311571Y-132753142D01*
X101883000Y-130898857D02*
X101861571Y-130941714D01*
X101861571Y-131006000D01*
X101883000Y-131070285D01*
X101925857Y-131113143D01*
X101968714Y-131134571D01*
X102054429Y-131156000D01*
X102118714Y-131156000D01*
X102204429Y-131134571D01*
X102247286Y-131113143D01*
X102290143Y-131070285D01*
X102311571Y-131006000D01*
X102311571Y-130963143D01*
X102290143Y-130898857D01*
X102268714Y-130877428D01*
X102118714Y-130877428D01*
X102118714Y-130963143D01*
X102311571Y-130684571D02*
X101861571Y-130684571D01*
X102311571Y-130427428D01*
X101861571Y-130427428D01*
X102311571Y-130213142D02*
X101861571Y-130213142D01*
X101861571Y-130105999D01*
X101883000Y-130041714D01*
X101925857Y-129998856D01*
X101968714Y-129977428D01*
X102054429Y-129955999D01*
X102118714Y-129955999D01*
X102204429Y-129977428D01*
X102247286Y-129998856D01*
X102290143Y-130041714D01*
X102311571Y-130105999D01*
X102311571Y-130213142D01*
X101883000Y-123278857D02*
X101861571Y-123321714D01*
X101861571Y-123386000D01*
X101883000Y-123450285D01*
X101925857Y-123493143D01*
X101968714Y-123514571D01*
X102054429Y-123536000D01*
X102118714Y-123536000D01*
X102204429Y-123514571D01*
X102247286Y-123493143D01*
X102290143Y-123450285D01*
X102311571Y-123386000D01*
X102311571Y-123343143D01*
X102290143Y-123278857D01*
X102268714Y-123257428D01*
X102118714Y-123257428D01*
X102118714Y-123343143D01*
X102311571Y-123064571D02*
X101861571Y-123064571D01*
X102311571Y-122807428D01*
X101861571Y-122807428D01*
X102311571Y-122593142D02*
X101861571Y-122593142D01*
X101861571Y-122485999D01*
X101883000Y-122421714D01*
X101925857Y-122378856D01*
X101968714Y-122357428D01*
X102054429Y-122335999D01*
X102118714Y-122335999D01*
X102204429Y-122357428D01*
X102247286Y-122378856D01*
X102290143Y-122421714D01*
X102311571Y-122485999D01*
X102311571Y-122593142D01*
X101883000Y-120738857D02*
X101861571Y-120781714D01*
X101861571Y-120846000D01*
X101883000Y-120910285D01*
X101925857Y-120953143D01*
X101968714Y-120974571D01*
X102054429Y-120996000D01*
X102118714Y-120996000D01*
X102204429Y-120974571D01*
X102247286Y-120953143D01*
X102290143Y-120910285D01*
X102311571Y-120846000D01*
X102311571Y-120803143D01*
X102290143Y-120738857D01*
X102268714Y-120717428D01*
X102118714Y-120717428D01*
X102118714Y-120803143D01*
X102311571Y-120524571D02*
X101861571Y-120524571D01*
X102311571Y-120267428D01*
X101861571Y-120267428D01*
X102311571Y-120053142D02*
X101861571Y-120053142D01*
X101861571Y-119945999D01*
X101883000Y-119881714D01*
X101925857Y-119838856D01*
X101968714Y-119817428D01*
X102054429Y-119795999D01*
X102118714Y-119795999D01*
X102204429Y-119817428D01*
X102247286Y-119838856D01*
X102290143Y-119881714D01*
X102311571Y-119945999D01*
X102311571Y-120053142D01*
X102140143Y-118648856D02*
X102140143Y-118305999D01*
X102311571Y-118477428D02*
X101968714Y-118477428D01*
X102311571Y-117855999D02*
X102311571Y-118113142D01*
X102311571Y-117984570D02*
X101861571Y-117984570D01*
X101925857Y-118027427D01*
X101968714Y-118070285D01*
X101990143Y-118113142D01*
X101904429Y-117684571D02*
X101883000Y-117663142D01*
X101861571Y-117620285D01*
X101861571Y-117513142D01*
X101883000Y-117470285D01*
X101904429Y-117448856D01*
X101947286Y-117427428D01*
X101990143Y-117427428D01*
X102054429Y-117448856D01*
X102311571Y-117705999D01*
X102311571Y-117427428D01*
X101861571Y-117298857D02*
X102311571Y-117148857D01*
X101861571Y-116998857D01*
X102140143Y-116108856D02*
X102140143Y-115765999D01*
X102311571Y-115937428D02*
X101968714Y-115937428D01*
X102311571Y-115315999D02*
X102311571Y-115573142D01*
X102311571Y-115444570D02*
X101861571Y-115444570D01*
X101925857Y-115487427D01*
X101968714Y-115530285D01*
X101990143Y-115573142D01*
X101904429Y-115144571D02*
X101883000Y-115123142D01*
X101861571Y-115080285D01*
X101861571Y-114973142D01*
X101883000Y-114930285D01*
X101904429Y-114908856D01*
X101947286Y-114887428D01*
X101990143Y-114887428D01*
X102054429Y-114908856D01*
X102311571Y-115165999D01*
X102311571Y-114887428D01*
X101861571Y-114758857D02*
X102311571Y-114608857D01*
X101861571Y-114458857D01*
D12*
X138043238Y-139837905D02*
X138043238Y-139037905D01*
X138309905Y-139609333D01*
X138576572Y-139037905D01*
X138576572Y-139837905D01*
X138957524Y-139837905D02*
X138957524Y-139304571D01*
X138957524Y-139037905D02*
X138919429Y-139076000D01*
X138957524Y-139114095D01*
X138995619Y-139076000D01*
X138957524Y-139037905D01*
X138957524Y-139114095D01*
X139681333Y-139799810D02*
X139605143Y-139837905D01*
X139452762Y-139837905D01*
X139376571Y-139799810D01*
X139338476Y-139761714D01*
X139300381Y-139685524D01*
X139300381Y-139456952D01*
X139338476Y-139380762D01*
X139376571Y-139342667D01*
X139452762Y-139304571D01*
X139605143Y-139304571D01*
X139681333Y-139342667D01*
X140024190Y-139837905D02*
X140024190Y-139304571D01*
X140024190Y-139456952D02*
X140062285Y-139380762D01*
X140100381Y-139342667D01*
X140176571Y-139304571D01*
X140252762Y-139304571D01*
X140633714Y-139837905D02*
X140557523Y-139799810D01*
X140519428Y-139761714D01*
X140481333Y-139685524D01*
X140481333Y-139456952D01*
X140519428Y-139380762D01*
X140557523Y-139342667D01*
X140633714Y-139304571D01*
X140748000Y-139304571D01*
X140824190Y-139342667D01*
X140862285Y-139380762D01*
X140900381Y-139456952D01*
X140900381Y-139685524D01*
X140862285Y-139761714D01*
X140824190Y-139799810D01*
X140748000Y-139837905D01*
X140633714Y-139837905D01*
X141509905Y-139418857D02*
X141243238Y-139418857D01*
X141243238Y-139837905D02*
X141243238Y-139037905D01*
X141624191Y-139037905D01*
X142309905Y-139837905D02*
X141928952Y-139837905D01*
X141928952Y-139037905D01*
X142576571Y-139837905D02*
X142576571Y-139037905D01*
X143414666Y-139761714D02*
X143376571Y-139799810D01*
X143262285Y-139837905D01*
X143186095Y-139837905D01*
X143071809Y-139799810D01*
X142995618Y-139723619D01*
X142957523Y-139647429D01*
X142919428Y-139495048D01*
X142919428Y-139380762D01*
X142957523Y-139228381D01*
X142995618Y-139152190D01*
X143071809Y-139076000D01*
X143186095Y-139037905D01*
X143262285Y-139037905D01*
X143376571Y-139076000D01*
X143414666Y-139114095D01*
X144367047Y-139304571D02*
X144367047Y-140104571D01*
X144367047Y-139342667D02*
X144443238Y-139304571D01*
X144595619Y-139304571D01*
X144671809Y-139342667D01*
X144709904Y-139380762D01*
X144748000Y-139456952D01*
X144748000Y-139685524D01*
X144709904Y-139761714D01*
X144671809Y-139799810D01*
X144595619Y-139837905D01*
X144443238Y-139837905D01*
X144367047Y-139799810D01*
X145205143Y-139837905D02*
X145128952Y-139799810D01*
X145090857Y-139761714D01*
X145052762Y-139685524D01*
X145052762Y-139456952D01*
X145090857Y-139380762D01*
X145128952Y-139342667D01*
X145205143Y-139304571D01*
X145319429Y-139304571D01*
X145395619Y-139342667D01*
X145433714Y-139380762D01*
X145471810Y-139456952D01*
X145471810Y-139685524D01*
X145433714Y-139761714D01*
X145395619Y-139799810D01*
X145319429Y-139837905D01*
X145205143Y-139837905D01*
X145738477Y-139304571D02*
X145890858Y-139837905D01*
X146043239Y-139456952D01*
X146195620Y-139837905D01*
X146348001Y-139304571D01*
X146957524Y-139799810D02*
X146881334Y-139837905D01*
X146728953Y-139837905D01*
X146652762Y-139799810D01*
X146614667Y-139723619D01*
X146614667Y-139418857D01*
X146652762Y-139342667D01*
X146728953Y-139304571D01*
X146881334Y-139304571D01*
X146957524Y-139342667D01*
X146995619Y-139418857D01*
X146995619Y-139495048D01*
X146614667Y-139571238D01*
X147338476Y-139837905D02*
X147338476Y-139304571D01*
X147338476Y-139456952D02*
X147376571Y-139380762D01*
X147414667Y-139342667D01*
X147490857Y-139304571D01*
X147567048Y-139304571D01*
X139414666Y-141039810D02*
X139490856Y-141077905D01*
X139643237Y-141077905D01*
X139719428Y-141039810D01*
X139757523Y-140963619D01*
X139757523Y-140925524D01*
X139719428Y-140849333D01*
X139643237Y-140811238D01*
X139528952Y-140811238D01*
X139452761Y-140773143D01*
X139414666Y-140696952D01*
X139414666Y-140658857D01*
X139452761Y-140582667D01*
X139528952Y-140544571D01*
X139643237Y-140544571D01*
X139719428Y-140582667D01*
X140443237Y-140544571D02*
X140443237Y-141077905D01*
X140100380Y-140544571D02*
X140100380Y-140963619D01*
X140138475Y-141039810D01*
X140214666Y-141077905D01*
X140328952Y-141077905D01*
X140405142Y-141039810D01*
X140443237Y-141001714D01*
X140824190Y-140544571D02*
X140824190Y-141344571D01*
X140824190Y-140582667D02*
X140900381Y-140544571D01*
X141052762Y-140544571D01*
X141128952Y-140582667D01*
X141167047Y-140620762D01*
X141205143Y-140696952D01*
X141205143Y-140925524D01*
X141167047Y-141001714D01*
X141128952Y-141039810D01*
X141052762Y-141077905D01*
X140900381Y-141077905D01*
X140824190Y-141039810D01*
X141548000Y-140544571D02*
X141548000Y-141344571D01*
X141548000Y-140582667D02*
X141624191Y-140544571D01*
X141776572Y-140544571D01*
X141852762Y-140582667D01*
X141890857Y-140620762D01*
X141928953Y-140696952D01*
X141928953Y-140925524D01*
X141890857Y-141001714D01*
X141852762Y-141039810D01*
X141776572Y-141077905D01*
X141624191Y-141077905D01*
X141548000Y-141039810D01*
X142386096Y-141077905D02*
X142309905Y-141039810D01*
X142271810Y-140963619D01*
X142271810Y-140277905D01*
X142614668Y-140544571D02*
X142805144Y-141077905D01*
X142995620Y-140544571D02*
X142805144Y-141077905D01*
X142728953Y-141268381D01*
X142690858Y-141306476D01*
X142614668Y-141344571D01*
X143833716Y-140544571D02*
X144024192Y-141077905D01*
X144214668Y-140544571D01*
X144938478Y-141077905D02*
X144481335Y-141077905D01*
X144709906Y-141077905D02*
X144709906Y-140277905D01*
X144633716Y-140392190D01*
X144557525Y-140468381D01*
X144481335Y-140506476D01*
X145281335Y-141001714D02*
X145319430Y-141039810D01*
X145281335Y-141077905D01*
X145243240Y-141039810D01*
X145281335Y-141001714D01*
X145281335Y-141077905D01*
X146081335Y-141077905D02*
X145624192Y-141077905D01*
X145852763Y-141077905D02*
X145852763Y-140277905D01*
X145776573Y-140392190D01*
X145700382Y-140468381D01*
X145624192Y-140506476D01*
X137262284Y-141517905D02*
X137262284Y-142089333D01*
X137224188Y-142203619D01*
X137147998Y-142279810D01*
X137033712Y-142317905D01*
X136957522Y-142317905D01*
X137986093Y-142317905D02*
X137986093Y-141898857D01*
X137947998Y-141822667D01*
X137871808Y-141784571D01*
X137719427Y-141784571D01*
X137643236Y-141822667D01*
X137986093Y-142279810D02*
X137909903Y-142317905D01*
X137719427Y-142317905D01*
X137643236Y-142279810D01*
X137605141Y-142203619D01*
X137605141Y-142127429D01*
X137643236Y-142051238D01*
X137719427Y-142013143D01*
X137909903Y-142013143D01*
X137986093Y-141975048D01*
X138367046Y-142317905D02*
X138367046Y-141517905D01*
X138443237Y-142013143D02*
X138671808Y-142317905D01*
X138671808Y-141784571D02*
X138367046Y-142089333D01*
X139357522Y-141784571D02*
X139357522Y-142317905D01*
X139014665Y-141784571D02*
X139014665Y-142203619D01*
X139052760Y-142279810D01*
X139128951Y-142317905D01*
X139243237Y-142317905D01*
X139319427Y-142279810D01*
X139357522Y-142241714D01*
X139738475Y-142317905D02*
X139738475Y-141517905D01*
X139738475Y-141822667D02*
X139814666Y-141784571D01*
X139967047Y-141784571D01*
X140043237Y-141822667D01*
X140081332Y-141860762D01*
X140119428Y-141936952D01*
X140119428Y-142165524D01*
X140081332Y-142241714D01*
X140043237Y-142279810D01*
X139967047Y-142317905D01*
X139814666Y-142317905D01*
X139738475Y-142279810D01*
X141071809Y-142317905D02*
X141071809Y-141517905D01*
X141528952Y-142317905D01*
X141528952Y-141517905D01*
X142214666Y-142279810D02*
X142138476Y-142317905D01*
X141986095Y-142317905D01*
X141909904Y-142279810D01*
X141871809Y-142203619D01*
X141871809Y-141898857D01*
X141909904Y-141822667D01*
X141986095Y-141784571D01*
X142138476Y-141784571D01*
X142214666Y-141822667D01*
X142252761Y-141898857D01*
X142252761Y-141975048D01*
X141871809Y-142051238D01*
X142938475Y-142317905D02*
X142938475Y-141517905D01*
X142938475Y-142279810D02*
X142862285Y-142317905D01*
X142709904Y-142317905D01*
X142633713Y-142279810D01*
X142595618Y-142241714D01*
X142557523Y-142165524D01*
X142557523Y-141936952D01*
X142595618Y-141860762D01*
X142633713Y-141822667D01*
X142709904Y-141784571D01*
X142862285Y-141784571D01*
X142938475Y-141822667D01*
X143319428Y-142317905D02*
X143319428Y-141517905D01*
X143319428Y-141822667D02*
X143395619Y-141784571D01*
X143548000Y-141784571D01*
X143624190Y-141822667D01*
X143662285Y-141860762D01*
X143700381Y-141936952D01*
X143700381Y-142165524D01*
X143662285Y-142241714D01*
X143624190Y-142279810D01*
X143548000Y-142317905D01*
X143395619Y-142317905D01*
X143319428Y-142279810D01*
X144386095Y-142317905D02*
X144386095Y-141898857D01*
X144348000Y-141822667D01*
X144271810Y-141784571D01*
X144119429Y-141784571D01*
X144043238Y-141822667D01*
X144386095Y-142279810D02*
X144309905Y-142317905D01*
X144119429Y-142317905D01*
X144043238Y-142279810D01*
X144005143Y-142203619D01*
X144005143Y-142127429D01*
X144043238Y-142051238D01*
X144119429Y-142013143D01*
X144309905Y-142013143D01*
X144386095Y-141975048D01*
X144881334Y-142317905D02*
X144805143Y-142279810D01*
X144767048Y-142203619D01*
X144767048Y-141517905D01*
X145757525Y-141594095D02*
X145795620Y-141556000D01*
X145871811Y-141517905D01*
X146062287Y-141517905D01*
X146138477Y-141556000D01*
X146176573Y-141594095D01*
X146214668Y-141670286D01*
X146214668Y-141746476D01*
X146176573Y-141860762D01*
X145719430Y-142317905D01*
X146214668Y-142317905D01*
X146709906Y-141517905D02*
X146786097Y-141517905D01*
X146862287Y-141556000D01*
X146900382Y-141594095D01*
X146938478Y-141670286D01*
X146976573Y-141822667D01*
X146976573Y-142013143D01*
X146938478Y-142165524D01*
X146900382Y-142241714D01*
X146862287Y-142279810D01*
X146786097Y-142317905D01*
X146709906Y-142317905D01*
X146633716Y-142279810D01*
X146595620Y-142241714D01*
X146557525Y-142165524D01*
X146519430Y-142013143D01*
X146519430Y-141822667D01*
X146557525Y-141670286D01*
X146595620Y-141594095D01*
X146633716Y-141556000D01*
X146709906Y-141517905D01*
X147738478Y-142317905D02*
X147281335Y-142317905D01*
X147509906Y-142317905D02*
X147509906Y-141517905D01*
X147433716Y-141632190D01*
X147357525Y-141708381D01*
X147281335Y-141746476D01*
X148462288Y-141517905D02*
X148081335Y-141517905D01*
X148043240Y-141898857D01*
X148081335Y-141860762D01*
X148157526Y-141822667D01*
X148348002Y-141822667D01*
X148424192Y-141860762D01*
X148462288Y-141898857D01*
X148500383Y-141975048D01*
X148500383Y-142165524D01*
X148462288Y-142241714D01*
X148424192Y-142279810D01*
X148348002Y-142317905D01*
X148157526Y-142317905D01*
X148081335Y-142279810D01*
X148043240Y-142241714D01*
D14*
X134881145Y-111120571D02*
X134824002Y-111177714D01*
X134652573Y-111234857D01*
X134538287Y-111234857D01*
X134366859Y-111177714D01*
X134252573Y-111063429D01*
X134195430Y-110949143D01*
X134138287Y-110720571D01*
X134138287Y-110549143D01*
X134195430Y-110320571D01*
X134252573Y-110206286D01*
X134366859Y-110092000D01*
X134538287Y-110034857D01*
X134652573Y-110034857D01*
X134824002Y-110092000D01*
X134881145Y-110149143D01*
X135909716Y-110434857D02*
X135909716Y-111234857D01*
X135395430Y-110434857D02*
X135395430Y-111063429D01*
X135452573Y-111177714D01*
X135566859Y-111234857D01*
X135738287Y-111234857D01*
X135852573Y-111177714D01*
X135909716Y-111120571D01*
X136481144Y-111234857D02*
X136481144Y-110434857D01*
X136481144Y-110663429D02*
X136538287Y-110549143D01*
X136595430Y-110492000D01*
X136709716Y-110434857D01*
X136824001Y-110434857D01*
X137224001Y-111234857D02*
X137224001Y-110434857D01*
X137224001Y-110663429D02*
X137281144Y-110549143D01*
X137338287Y-110492000D01*
X137452573Y-110434857D01*
X137566858Y-110434857D01*
X138424001Y-111177714D02*
X138309715Y-111234857D01*
X138081144Y-111234857D01*
X137966858Y-111177714D01*
X137909715Y-111063429D01*
X137909715Y-110606286D01*
X137966858Y-110492000D01*
X138081144Y-110434857D01*
X138309715Y-110434857D01*
X138424001Y-110492000D01*
X138481144Y-110606286D01*
X138481144Y-110720571D01*
X137909715Y-110834857D01*
X138995429Y-110434857D02*
X138995429Y-111234857D01*
X138995429Y-110549143D02*
X139052572Y-110492000D01*
X139166858Y-110434857D01*
X139338286Y-110434857D01*
X139452572Y-110492000D01*
X139509715Y-110606286D01*
X139509715Y-111234857D01*
X139909715Y-110434857D02*
X140366858Y-110434857D01*
X140081143Y-110034857D02*
X140081143Y-111063429D01*
X140138286Y-111177714D01*
X140252572Y-111234857D01*
X140366858Y-111234857D01*
X141624000Y-109977714D02*
X140595429Y-111520571D01*
X142024000Y-110434857D02*
X142024000Y-111634857D01*
X142024000Y-110492000D02*
X142138286Y-110434857D01*
X142366857Y-110434857D01*
X142481143Y-110492000D01*
X142538286Y-110549143D01*
X142595429Y-110663429D01*
X142595429Y-111006286D01*
X142538286Y-111120571D01*
X142481143Y-111177714D01*
X142366857Y-111234857D01*
X142138286Y-111234857D01*
X142024000Y-111177714D01*
X143281143Y-111234857D02*
X143166857Y-111177714D01*
X143109714Y-111120571D01*
X143052571Y-111006286D01*
X143052571Y-110663429D01*
X143109714Y-110549143D01*
X143166857Y-110492000D01*
X143281143Y-110434857D01*
X143452571Y-110434857D01*
X143566857Y-110492000D01*
X143624000Y-110549143D01*
X143681143Y-110663429D01*
X143681143Y-111006286D01*
X143624000Y-111120571D01*
X143566857Y-111177714D01*
X143452571Y-111234857D01*
X143281143Y-111234857D01*
X144366857Y-111234857D02*
X144252571Y-111177714D01*
X144195428Y-111063429D01*
X144195428Y-110034857D01*
X145338285Y-111234857D02*
X145338285Y-110606286D01*
X145281142Y-110492000D01*
X145166856Y-110434857D01*
X144938285Y-110434857D01*
X144823999Y-110492000D01*
X145338285Y-111177714D02*
X145223999Y-111234857D01*
X144938285Y-111234857D01*
X144823999Y-111177714D01*
X144766856Y-111063429D01*
X144766856Y-110949143D01*
X144823999Y-110834857D01*
X144938285Y-110777714D01*
X145223999Y-110777714D01*
X145338285Y-110720571D01*
X145909713Y-111234857D02*
X145909713Y-110434857D01*
X145909713Y-110663429D02*
X145966856Y-110549143D01*
X146023999Y-110492000D01*
X146138285Y-110434857D01*
X146252570Y-110434857D01*
X146652570Y-111234857D02*
X146652570Y-110434857D01*
X146652570Y-110034857D02*
X146595427Y-110092000D01*
X146652570Y-110149143D01*
X146709713Y-110092000D01*
X146652570Y-110034857D01*
X146652570Y-110149143D01*
X147052571Y-110434857D02*
X147509714Y-110434857D01*
X147223999Y-110034857D02*
X147223999Y-111063429D01*
X147281142Y-111177714D01*
X147395428Y-111234857D01*
X147509714Y-111234857D01*
X147795428Y-110434857D02*
X148081142Y-111234857D01*
X148366856Y-110434857D02*
X148081142Y-111234857D01*
X147966856Y-111520571D01*
X147909713Y-111577714D01*
X147795428Y-111634857D01*
X134881144Y-112264857D02*
X134881144Y-113464857D01*
X134881144Y-112322000D02*
X134995430Y-112264857D01*
X135224001Y-112264857D01*
X135338287Y-112322000D01*
X135395430Y-112379143D01*
X135452573Y-112493429D01*
X135452573Y-112836286D01*
X135395430Y-112950571D01*
X135338287Y-113007714D01*
X135224001Y-113064857D01*
X134995430Y-113064857D01*
X134881144Y-113007714D01*
X135966858Y-113064857D02*
X135966858Y-112264857D01*
X135966858Y-112493429D02*
X136024001Y-112379143D01*
X136081144Y-112322000D01*
X136195430Y-112264857D01*
X136309715Y-112264857D01*
X136881144Y-113064857D02*
X136766858Y-113007714D01*
X136709715Y-112950571D01*
X136652572Y-112836286D01*
X136652572Y-112493429D01*
X136709715Y-112379143D01*
X136766858Y-112322000D01*
X136881144Y-112264857D01*
X137052572Y-112264857D01*
X137166858Y-112322000D01*
X137224001Y-112379143D01*
X137281144Y-112493429D01*
X137281144Y-112836286D01*
X137224001Y-112950571D01*
X137166858Y-113007714D01*
X137052572Y-113064857D01*
X136881144Y-113064857D01*
X137624001Y-112264857D02*
X138081144Y-112264857D01*
X137795429Y-111864857D02*
X137795429Y-112893429D01*
X137852572Y-113007714D01*
X137966858Y-113064857D01*
X138081144Y-113064857D01*
X138938286Y-113007714D02*
X138824000Y-113064857D01*
X138595429Y-113064857D01*
X138481143Y-113007714D01*
X138424000Y-112893429D01*
X138424000Y-112436286D01*
X138481143Y-112322000D01*
X138595429Y-112264857D01*
X138824000Y-112264857D01*
X138938286Y-112322000D01*
X138995429Y-112436286D01*
X138995429Y-112550571D01*
X138424000Y-112664857D01*
X140024000Y-113007714D02*
X139909714Y-113064857D01*
X139681143Y-113064857D01*
X139566857Y-113007714D01*
X139509714Y-112950571D01*
X139452571Y-112836286D01*
X139452571Y-112493429D01*
X139509714Y-112379143D01*
X139566857Y-112322000D01*
X139681143Y-112264857D01*
X139909714Y-112264857D01*
X140024000Y-112322000D01*
X140366857Y-112264857D02*
X140824000Y-112264857D01*
X140538285Y-111864857D02*
X140538285Y-112893429D01*
X140595428Y-113007714D01*
X140709714Y-113064857D01*
X140824000Y-113064857D01*
X141223999Y-113064857D02*
X141223999Y-112264857D01*
X141223999Y-111864857D02*
X141166856Y-111922000D01*
X141223999Y-111979143D01*
X141281142Y-111922000D01*
X141223999Y-111864857D01*
X141223999Y-111979143D01*
X141966857Y-113064857D02*
X141852571Y-113007714D01*
X141795428Y-112950571D01*
X141738285Y-112836286D01*
X141738285Y-112493429D01*
X141795428Y-112379143D01*
X141852571Y-112322000D01*
X141966857Y-112264857D01*
X142138285Y-112264857D01*
X142252571Y-112322000D01*
X142309714Y-112379143D01*
X142366857Y-112493429D01*
X142366857Y-112836286D01*
X142309714Y-112950571D01*
X142252571Y-113007714D01*
X142138285Y-113064857D01*
X141966857Y-113064857D01*
X142881142Y-112264857D02*
X142881142Y-113064857D01*
X142881142Y-112379143D02*
X142938285Y-112322000D01*
X143052571Y-112264857D01*
X143223999Y-112264857D01*
X143338285Y-112322000D01*
X143395428Y-112436286D01*
X143395428Y-113064857D01*
X145395428Y-113064857D02*
X145395428Y-112436286D01*
X145338285Y-112322000D01*
X145223999Y-112264857D01*
X144995428Y-112264857D01*
X144881142Y-112322000D01*
X145395428Y-113007714D02*
X145281142Y-113064857D01*
X144995428Y-113064857D01*
X144881142Y-113007714D01*
X144823999Y-112893429D01*
X144823999Y-112779143D01*
X144881142Y-112664857D01*
X144995428Y-112607714D01*
X145281142Y-112607714D01*
X145395428Y-112550571D01*
X145966856Y-112264857D02*
X145966856Y-113064857D01*
X145966856Y-112379143D02*
X146023999Y-112322000D01*
X146138285Y-112264857D01*
X146309713Y-112264857D01*
X146423999Y-112322000D01*
X146481142Y-112436286D01*
X146481142Y-113064857D01*
X147566856Y-113064857D02*
X147566856Y-111864857D01*
X147566856Y-113007714D02*
X147452570Y-113064857D01*
X147223999Y-113064857D01*
X147109713Y-113007714D01*
X147052570Y-112950571D01*
X146995427Y-112836286D01*
X146995427Y-112493429D01*
X147052570Y-112379143D01*
X147109713Y-112322000D01*
X147223999Y-112264857D01*
X147452570Y-112264857D01*
X147566856Y-112322000D01*
X135652572Y-114094857D02*
X135652572Y-115294857D01*
X135652572Y-114152000D02*
X135766858Y-114094857D01*
X135995429Y-114094857D01*
X136109715Y-114152000D01*
X136166858Y-114209143D01*
X136224001Y-114323429D01*
X136224001Y-114666286D01*
X136166858Y-114780571D01*
X136109715Y-114837714D01*
X135995429Y-114894857D01*
X135766858Y-114894857D01*
X135652572Y-114837714D01*
X136909715Y-114894857D02*
X136795429Y-114837714D01*
X136738286Y-114780571D01*
X136681143Y-114666286D01*
X136681143Y-114323429D01*
X136738286Y-114209143D01*
X136795429Y-114152000D01*
X136909715Y-114094857D01*
X137081143Y-114094857D01*
X137195429Y-114152000D01*
X137252572Y-114209143D01*
X137309715Y-114323429D01*
X137309715Y-114666286D01*
X137252572Y-114780571D01*
X137195429Y-114837714D01*
X137081143Y-114894857D01*
X136909715Y-114894857D01*
X137709715Y-114094857D02*
X137938286Y-114894857D01*
X138166857Y-114323429D01*
X138395429Y-114894857D01*
X138624000Y-114094857D01*
X139538286Y-114837714D02*
X139424000Y-114894857D01*
X139195429Y-114894857D01*
X139081143Y-114837714D01*
X139024000Y-114723429D01*
X139024000Y-114266286D01*
X139081143Y-114152000D01*
X139195429Y-114094857D01*
X139424000Y-114094857D01*
X139538286Y-114152000D01*
X139595429Y-114266286D01*
X139595429Y-114380571D01*
X139024000Y-114494857D01*
X140109714Y-114894857D02*
X140109714Y-114094857D01*
X140109714Y-114323429D02*
X140166857Y-114209143D01*
X140224000Y-114152000D01*
X140338286Y-114094857D01*
X140452571Y-114094857D01*
X141709714Y-114837714D02*
X141824000Y-114894857D01*
X142052572Y-114894857D01*
X142166857Y-114837714D01*
X142224000Y-114723429D01*
X142224000Y-114666286D01*
X142166857Y-114552000D01*
X142052572Y-114494857D01*
X141881143Y-114494857D01*
X141766857Y-114437714D01*
X141709714Y-114323429D01*
X141709714Y-114266286D01*
X141766857Y-114152000D01*
X141881143Y-114094857D01*
X142052572Y-114094857D01*
X142166857Y-114152000D01*
X142624001Y-114094857D02*
X142852572Y-114894857D01*
X143081143Y-114323429D01*
X143309715Y-114894857D01*
X143538286Y-114094857D01*
X143995429Y-114894857D02*
X143995429Y-114094857D01*
X143995429Y-113694857D02*
X143938286Y-113752000D01*
X143995429Y-113809143D01*
X144052572Y-113752000D01*
X143995429Y-113694857D01*
X143995429Y-113809143D01*
X144395430Y-114094857D02*
X144852573Y-114094857D01*
X144566858Y-113694857D02*
X144566858Y-114723429D01*
X144624001Y-114837714D01*
X144738287Y-114894857D01*
X144852573Y-114894857D01*
X145766858Y-114837714D02*
X145652572Y-114894857D01*
X145424001Y-114894857D01*
X145309715Y-114837714D01*
X145252572Y-114780571D01*
X145195429Y-114666286D01*
X145195429Y-114323429D01*
X145252572Y-114209143D01*
X145309715Y-114152000D01*
X145424001Y-114094857D01*
X145652572Y-114094857D01*
X145766858Y-114152000D01*
X146281143Y-114894857D02*
X146281143Y-113694857D01*
X146795429Y-114894857D02*
X146795429Y-114266286D01*
X146738286Y-114152000D01*
X146624000Y-114094857D01*
X146452572Y-114094857D01*
X146338286Y-114152000D01*
X146281143Y-114209143D01*
X124660000Y-147386285D02*
X124660000Y-146814856D01*
X125002857Y-147500570D02*
X123802857Y-147100570D01*
X125002857Y-146700570D01*
X125002857Y-146300571D02*
X124202857Y-146300571D01*
X124431429Y-146300571D02*
X124317143Y-146243428D01*
X124260000Y-146186285D01*
X124202857Y-146071999D01*
X124202857Y-145957714D01*
X125002857Y-145043428D02*
X123802857Y-145043428D01*
X124945714Y-145043428D02*
X125002857Y-145157714D01*
X125002857Y-145386285D01*
X124945714Y-145500571D01*
X124888571Y-145557714D01*
X124774286Y-145614857D01*
X124431429Y-145614857D01*
X124317143Y-145557714D01*
X124260000Y-145500571D01*
X124202857Y-145386285D01*
X124202857Y-145157714D01*
X124260000Y-145043428D01*
X124202857Y-143957714D02*
X125002857Y-143957714D01*
X124202857Y-144472000D02*
X124831429Y-144472000D01*
X124945714Y-144414857D01*
X125002857Y-144300571D01*
X125002857Y-144129143D01*
X124945714Y-144014857D01*
X124888571Y-143957714D01*
X125002857Y-143386286D02*
X124202857Y-143386286D01*
X123802857Y-143386286D02*
X123860000Y-143443429D01*
X123917143Y-143386286D01*
X123860000Y-143329143D01*
X123802857Y-143386286D01*
X123917143Y-143386286D01*
X124202857Y-142814857D02*
X125002857Y-142814857D01*
X124317143Y-142814857D02*
X124260000Y-142757714D01*
X124202857Y-142643428D01*
X124202857Y-142472000D01*
X124260000Y-142357714D01*
X124374286Y-142300571D01*
X125002857Y-142300571D01*
X125002857Y-141557714D02*
X124945714Y-141672000D01*
X124888571Y-141729143D01*
X124774286Y-141786286D01*
X124431429Y-141786286D01*
X124317143Y-141729143D01*
X124260000Y-141672000D01*
X124202857Y-141557714D01*
X124202857Y-141386286D01*
X124260000Y-141272000D01*
X124317143Y-141214857D01*
X124431429Y-141157714D01*
X124774286Y-141157714D01*
X124888571Y-141214857D01*
X124945714Y-141272000D01*
X125002857Y-141386286D01*
X125002857Y-141557714D01*
D12*
X110471428Y-148901143D02*
X111080952Y-148901143D01*
X110776190Y-149205905D02*
X110776190Y-148596381D01*
X111385714Y-148405905D02*
X111880952Y-148405905D01*
X111614285Y-148710667D01*
X111728571Y-148710667D01*
X111804761Y-148748762D01*
X111842857Y-148786857D01*
X111880952Y-148863048D01*
X111880952Y-149053524D01*
X111842857Y-149129714D01*
X111804761Y-149167810D01*
X111728571Y-149205905D01*
X111499999Y-149205905D01*
X111423809Y-149167810D01*
X111385714Y-149129714D01*
X112223809Y-149129714D02*
X112261904Y-149167810D01*
X112223809Y-149205905D01*
X112185714Y-149167810D01*
X112223809Y-149129714D01*
X112223809Y-149205905D01*
X112528571Y-148405905D02*
X113023809Y-148405905D01*
X112757142Y-148710667D01*
X112871428Y-148710667D01*
X112947618Y-148748762D01*
X112985714Y-148786857D01*
X113023809Y-148863048D01*
X113023809Y-149053524D01*
X112985714Y-149129714D01*
X112947618Y-149167810D01*
X112871428Y-149205905D01*
X112642856Y-149205905D01*
X112566666Y-149167810D01*
X112528571Y-149129714D01*
X113252380Y-148405905D02*
X113519047Y-149205905D01*
X113785714Y-148405905D01*
X114623809Y-149167810D02*
X114699999Y-149205905D01*
X114852380Y-149205905D01*
X114928571Y-149167810D01*
X114966666Y-149091619D01*
X114966666Y-149053524D01*
X114928571Y-148977333D01*
X114852380Y-148939238D01*
X114738095Y-148939238D01*
X114661904Y-148901143D01*
X114623809Y-148824952D01*
X114623809Y-148786857D01*
X114661904Y-148710667D01*
X114738095Y-148672571D01*
X114852380Y-148672571D01*
X114928571Y-148710667D01*
X115652380Y-148672571D02*
X115652380Y-149205905D01*
X115309523Y-148672571D02*
X115309523Y-149091619D01*
X115347618Y-149167810D01*
X115423809Y-149205905D01*
X115538095Y-149205905D01*
X115614285Y-149167810D01*
X115652380Y-149129714D01*
X116033333Y-148672571D02*
X116033333Y-149472571D01*
X116033333Y-148710667D02*
X116109524Y-148672571D01*
X116261905Y-148672571D01*
X116338095Y-148710667D01*
X116376190Y-148748762D01*
X116414286Y-148824952D01*
X116414286Y-149053524D01*
X116376190Y-149129714D01*
X116338095Y-149167810D01*
X116261905Y-149205905D01*
X116109524Y-149205905D01*
X116033333Y-149167810D01*
X116757143Y-148672571D02*
X116757143Y-149472571D01*
X116757143Y-148710667D02*
X116833334Y-148672571D01*
X116985715Y-148672571D01*
X117061905Y-148710667D01*
X117100000Y-148748762D01*
X117138096Y-148824952D01*
X117138096Y-149053524D01*
X117100000Y-149129714D01*
X117061905Y-149167810D01*
X116985715Y-149205905D01*
X116833334Y-149205905D01*
X116757143Y-149167810D01*
X117595239Y-149205905D02*
X117519048Y-149167810D01*
X117480953Y-149091619D01*
X117480953Y-148405905D01*
X117823811Y-148672571D02*
X118014287Y-149205905D01*
X118204763Y-148672571D02*
X118014287Y-149205905D01*
X117938096Y-149396381D01*
X117900001Y-149434476D01*
X117823811Y-149472571D01*
D11*
X123444000Y-138176000D02*
X123444000Y-149860000D01*
D14*
X122409143Y-133790714D02*
X123323429Y-133790714D01*
X122866286Y-134247857D02*
X122866286Y-133333571D01*
X124466286Y-133047857D02*
X123894857Y-133047857D01*
X123837714Y-133619286D01*
X123894857Y-133562143D01*
X124009143Y-133505000D01*
X124294857Y-133505000D01*
X124409143Y-133562143D01*
X124466286Y-133619286D01*
X124523429Y-133733571D01*
X124523429Y-134019286D01*
X124466286Y-134133571D01*
X124409143Y-134190714D01*
X124294857Y-134247857D01*
X124009143Y-134247857D01*
X123894857Y-134190714D01*
X123837714Y-134133571D01*
X124866286Y-133047857D02*
X125266286Y-134247857D01*
X125666286Y-133047857D01*
X121294857Y-136020714D02*
X121409143Y-136077857D01*
X121637715Y-136077857D01*
X121752000Y-136020714D01*
X121809143Y-135906429D01*
X121809143Y-135849286D01*
X121752000Y-135735000D01*
X121637715Y-135677857D01*
X121466286Y-135677857D01*
X121352000Y-135620714D01*
X121294857Y-135506429D01*
X121294857Y-135449286D01*
X121352000Y-135335000D01*
X121466286Y-135277857D01*
X121637715Y-135277857D01*
X121752000Y-135335000D01*
X122837715Y-135277857D02*
X122837715Y-136077857D01*
X122323429Y-135277857D02*
X122323429Y-135906429D01*
X122380572Y-136020714D01*
X122494858Y-136077857D01*
X122666286Y-136077857D01*
X122780572Y-136020714D01*
X122837715Y-135963571D01*
X123409143Y-135277857D02*
X123409143Y-136477857D01*
X123409143Y-135335000D02*
X123523429Y-135277857D01*
X123752000Y-135277857D01*
X123866286Y-135335000D01*
X123923429Y-135392143D01*
X123980572Y-135506429D01*
X123980572Y-135849286D01*
X123923429Y-135963571D01*
X123866286Y-136020714D01*
X123752000Y-136077857D01*
X123523429Y-136077857D01*
X123409143Y-136020714D01*
X124494857Y-135277857D02*
X124494857Y-136477857D01*
X124494857Y-135335000D02*
X124609143Y-135277857D01*
X124837714Y-135277857D01*
X124952000Y-135335000D01*
X125009143Y-135392143D01*
X125066286Y-135506429D01*
X125066286Y-135849286D01*
X125009143Y-135963571D01*
X124952000Y-136020714D01*
X124837714Y-136077857D01*
X124609143Y-136077857D01*
X124494857Y-136020714D01*
X125752000Y-136077857D02*
X125637714Y-136020714D01*
X125580571Y-135906429D01*
X125580571Y-134877857D01*
X126094857Y-135277857D02*
X126380571Y-136077857D01*
X126666285Y-135277857D02*
X126380571Y-136077857D01*
X126266285Y-136363571D01*
X126209142Y-136420714D01*
X126094857Y-136477857D01*
D11*
X121920000Y-138176000D02*
X119888000Y-136144000D01*
X134620000Y-138176000D02*
X121920000Y-138176000D01*
X148844000Y-138176000D02*
X137668000Y-138176000D01*
X148844000Y-115824000D02*
X148844000Y-138176000D01*
X135636000Y-115824000D02*
X148844000Y-115824000D01*
X131572000Y-119888000D02*
X135636000Y-115824000D01*
X121412000Y-119380000D02*
X121920000Y-119888000D01*
X117856000Y-112268000D02*
X117348000Y-112268000D01*
X117856000Y-117348000D02*
X117856000Y-112268000D01*
X119888000Y-119380000D02*
X117856000Y-117348000D01*
X119888000Y-136144000D02*
X119888000Y-119380000D01*
D12*
X117801143Y-124028000D02*
X117801143Y-123418476D01*
X118105905Y-123723238D02*
X117496381Y-123723238D01*
X117382095Y-123075619D02*
X117344000Y-123037524D01*
X117305905Y-122961333D01*
X117305905Y-122770857D01*
X117344000Y-122694667D01*
X117382095Y-122656571D01*
X117458286Y-122618476D01*
X117534476Y-122618476D01*
X117648762Y-122656571D01*
X118105905Y-123113714D01*
X118105905Y-122618476D01*
X118029714Y-122275619D02*
X118067810Y-122237524D01*
X118105905Y-122275619D01*
X118067810Y-122313714D01*
X118029714Y-122275619D01*
X118105905Y-122275619D01*
X117648762Y-121780381D02*
X117610667Y-121856572D01*
X117572571Y-121894667D01*
X117496381Y-121932762D01*
X117458286Y-121932762D01*
X117382095Y-121894667D01*
X117344000Y-121856572D01*
X117305905Y-121780381D01*
X117305905Y-121628000D01*
X117344000Y-121551810D01*
X117382095Y-121513714D01*
X117458286Y-121475619D01*
X117496381Y-121475619D01*
X117572571Y-121513714D01*
X117610667Y-121551810D01*
X117648762Y-121628000D01*
X117648762Y-121780381D01*
X117686857Y-121856572D01*
X117724952Y-121894667D01*
X117801143Y-121932762D01*
X117953524Y-121932762D01*
X118029714Y-121894667D01*
X118067810Y-121856572D01*
X118105905Y-121780381D01*
X118105905Y-121628000D01*
X118067810Y-121551810D01*
X118029714Y-121513714D01*
X117953524Y-121475619D01*
X117801143Y-121475619D01*
X117724952Y-121513714D01*
X117686857Y-121551810D01*
X117648762Y-121628000D01*
X117305905Y-121247048D02*
X118105905Y-120980381D01*
X117305905Y-120713714D01*
X119307810Y-124199429D02*
X119345905Y-124123239D01*
X119345905Y-123970858D01*
X119307810Y-123894667D01*
X119231619Y-123856572D01*
X119193524Y-123856572D01*
X119117333Y-123894667D01*
X119079238Y-123970858D01*
X119079238Y-124085143D01*
X119041143Y-124161334D01*
X118964952Y-124199429D01*
X118926857Y-124199429D01*
X118850667Y-124161334D01*
X118812571Y-124085143D01*
X118812571Y-123970858D01*
X118850667Y-123894667D01*
X118812571Y-123170858D02*
X119345905Y-123170858D01*
X118812571Y-123513715D02*
X119231619Y-123513715D01*
X119307810Y-123475620D01*
X119345905Y-123399429D01*
X119345905Y-123285143D01*
X119307810Y-123208953D01*
X119269714Y-123170858D01*
X118812571Y-122789905D02*
X119612571Y-122789905D01*
X118850667Y-122789905D02*
X118812571Y-122713714D01*
X118812571Y-122561333D01*
X118850667Y-122485143D01*
X118888762Y-122447048D01*
X118964952Y-122408952D01*
X119193524Y-122408952D01*
X119269714Y-122447048D01*
X119307810Y-122485143D01*
X119345905Y-122561333D01*
X119345905Y-122713714D01*
X119307810Y-122789905D01*
X118812571Y-122066095D02*
X119612571Y-122066095D01*
X118850667Y-122066095D02*
X118812571Y-121989904D01*
X118812571Y-121837523D01*
X118850667Y-121761333D01*
X118888762Y-121723238D01*
X118964952Y-121685142D01*
X119193524Y-121685142D01*
X119269714Y-121723238D01*
X119307810Y-121761333D01*
X119345905Y-121837523D01*
X119345905Y-121989904D01*
X119307810Y-122066095D01*
X119345905Y-121227999D02*
X119307810Y-121304190D01*
X119231619Y-121342285D01*
X118545905Y-121342285D01*
X118812571Y-120999427D02*
X119345905Y-120808951D01*
X118812571Y-120618475D02*
X119345905Y-120808951D01*
X119536381Y-120885142D01*
X119574476Y-120923237D01*
X119612571Y-120999427D01*
D11*
X111252000Y-112268000D02*
X106172000Y-112268000D01*
X117856000Y-112268000D02*
X113284000Y-112268000D01*
X118872000Y-137160000D02*
X119888000Y-136144000D01*
X116840000Y-137160000D02*
X118872000Y-137160000D01*
X107188000Y-136652000D02*
X108712000Y-136652000D01*
X106172000Y-135636000D02*
X107188000Y-136652000D01*
X106172000Y-112268000D02*
X106172000Y-134112000D01*
D12*
X125063428Y-101512667D02*
X125539619Y-101512667D01*
X124968190Y-101798381D02*
X125301523Y-100798381D01*
X125634857Y-101798381D01*
X126396762Y-101131714D02*
X126396762Y-101798381D01*
X125968190Y-101131714D02*
X125968190Y-101655524D01*
X126015809Y-101750762D01*
X126111047Y-101798381D01*
X126253905Y-101798381D01*
X126349143Y-101750762D01*
X126396762Y-101703143D01*
X126730095Y-101131714D02*
X127111047Y-101131714D01*
X126872952Y-100798381D02*
X126872952Y-101655524D01*
X126920571Y-101750762D01*
X127015809Y-101798381D01*
X127111047Y-101798381D01*
X127587238Y-101798381D02*
X127492000Y-101750762D01*
X127444381Y-101703143D01*
X127396762Y-101607905D01*
X127396762Y-101322190D01*
X127444381Y-101226952D01*
X127492000Y-101179333D01*
X127587238Y-101131714D01*
X127730096Y-101131714D01*
X127825334Y-101179333D01*
X127872953Y-101226952D01*
X127920572Y-101322190D01*
X127920572Y-101607905D01*
X127872953Y-101703143D01*
X127825334Y-101750762D01*
X127730096Y-101798381D01*
X127587238Y-101798381D01*
X124301333Y-102322381D02*
X124491810Y-102322381D01*
X124587048Y-102370000D01*
X124682286Y-102465238D01*
X124729905Y-102655714D01*
X124729905Y-102989048D01*
X124682286Y-103179524D01*
X124587048Y-103274762D01*
X124491810Y-103322381D01*
X124301333Y-103322381D01*
X124206095Y-103274762D01*
X124110857Y-103179524D01*
X124063238Y-102989048D01*
X124063238Y-102655714D01*
X124110857Y-102465238D01*
X124206095Y-102370000D01*
X124301333Y-102322381D01*
X125015619Y-102655714D02*
X125396571Y-102655714D01*
X125158476Y-103322381D02*
X125158476Y-102465238D01*
X125206095Y-102370000D01*
X125301333Y-102322381D01*
X125396571Y-102322381D01*
X125587048Y-102655714D02*
X125968000Y-102655714D01*
X125729905Y-103322381D02*
X125729905Y-102465238D01*
X125777524Y-102370000D01*
X125872762Y-102322381D01*
X125968000Y-102322381D01*
X127468381Y-102322381D02*
X127658858Y-102322381D01*
X127754096Y-102370000D01*
X127849334Y-102465238D01*
X127896953Y-102655714D01*
X127896953Y-102989048D01*
X127849334Y-103179524D01*
X127754096Y-103274762D01*
X127658858Y-103322381D01*
X127468381Y-103322381D01*
X127373143Y-103274762D01*
X127277905Y-103179524D01*
X127230286Y-102989048D01*
X127230286Y-102655714D01*
X127277905Y-102465238D01*
X127373143Y-102370000D01*
X127468381Y-102322381D01*
X128325524Y-102655714D02*
X128325524Y-103322381D01*
X128325524Y-102750952D02*
X128373143Y-102703333D01*
X128468381Y-102655714D01*
X128611239Y-102655714D01*
X128706477Y-102703333D01*
X128754096Y-102798571D01*
X128754096Y-103322381D01*
D15*
X134482000Y-130429000D02*
X134482000Y-121539000D01*
X123582000Y-130429000D02*
X123582000Y-121539000D01*
X124332000Y-120834000D02*
X133732000Y-120834000D01*
X124332000Y-131134000D02*
X133732000Y-131134000D01*
X133847000Y-131134000D02*
G75*
G03X134482000Y-130499000I0J635000D01*
G01*
X134482000Y-121469000D02*
G75*
G03X133847000Y-120834000I-635000J0D01*
G01*
X124217000Y-120834000D02*
G75*
G03X123582000Y-121469000I0J-635000D01*
G01*
X123582000Y-130499000D02*
G75*
G03X124217000Y-131134000I635000J0D01*
G01*
X116368000Y-120778000D02*
X116368000Y-113918000D01*
X108168000Y-120778000D02*
X108168000Y-113918000D01*
X108838000Y-113248000D02*
X115698000Y-113248000D01*
X108838000Y-121448000D02*
X115698000Y-121448000D01*
X115736800Y-121443900D02*
G75*
G03X116371800Y-120808900I0J635000D01*
G01*
X116371800Y-113887100D02*
G75*
G03X115736800Y-113252100I-635000J0D01*
G01*
X108799200Y-113252100D02*
G75*
G03X108164200Y-113887100I0J-635000D01*
G01*
X108176900Y-120808900D02*
G75*
G03X108811900Y-121443900I635000J0D01*
G01*
D14*
X115062000Y-95504000D02*
X115062000Y-94742000D01*
X115062000Y-94742000D02*
X106426000Y-94742000D01*
X106426000Y-94742000D02*
X106426000Y-95504000D01*
X115062000Y-98552000D02*
X106426000Y-98552000D01*
X115062000Y-108204000D02*
X106426000Y-108204000D01*
X106426000Y-95504000D02*
X106426000Y-108204000D01*
X115062000Y-95504000D02*
X115062000Y-108204000D01*
D15*
X125706000Y-143256000D02*
X126206000Y-143256000D01*
X126206000Y-143256000D02*
X126206000Y-145288000D01*
X126206000Y-145288000D02*
X125706000Y-145288000D01*
X125706000Y-145288000D02*
X125706000Y-146772000D01*
X135406000Y-141772000D02*
X135406000Y-146772000D01*
X135406000Y-146772000D02*
X125706000Y-146772000D01*
X125706000Y-143256000D02*
X125706000Y-141772000D01*
X125706000Y-141772000D02*
X135406000Y-141772000D01*
D14*
X127762000Y-103886000D02*
X122682000Y-103886000D01*
X122682000Y-103886000D02*
X122682000Y-106426000D01*
X122682000Y-106426000D02*
X127762000Y-106426000D01*
X130582000Y-106706000D02*
X129032000Y-106706000D01*
X127762000Y-106426000D02*
X127762000Y-103886000D01*
X129032000Y-103606000D02*
X130582000Y-103606000D01*
X130582000Y-103606000D02*
X130582000Y-106706000D01*
X134944000Y-95482000D02*
X137344000Y-95482000D01*
X137344000Y-95482000D02*
X137594000Y-99282000D01*
X134694000Y-99282000D02*
X134944000Y-95482000D01*
X134044000Y-99282000D02*
X134694000Y-99282000D01*
X138244000Y-99282000D02*
X137594000Y-99282000D01*
X138244000Y-100032000D02*
X138244000Y-99282000D01*
X134044000Y-100032000D02*
X134044000Y-99282000D01*
X139144000Y-100032000D02*
X138244000Y-100032000D01*
X133144000Y-100032000D02*
X134044000Y-100032000D01*
X139144000Y-101092000D02*
X139144000Y-100032000D01*
X133144000Y-100032000D02*
X133144000Y-101092000D01*
X134744000Y-103232000D02*
X137544000Y-103232000D01*
X112268000Y-147574000D02*
X115316000Y-147574000D01*
X115316000Y-147574000D02*
X115316000Y-140462000D01*
X115316000Y-140462000D02*
X112268000Y-140462000D01*
X109220000Y-147574000D02*
X108458000Y-147574000D01*
X108458000Y-147574000D02*
X106172000Y-146050000D01*
X106172000Y-146050000D02*
X106172000Y-141986000D01*
X106172000Y-141986000D02*
X108458000Y-140462000D01*
X108458000Y-140462000D02*
X109220000Y-140462000D01*
X118960000Y-133088000D02*
X118960000Y-132088000D01*
X117260000Y-132088000D02*
X117260000Y-133088000D01*
X116928000Y-134104000D02*
X116928000Y-133104000D01*
X115228000Y-133104000D02*
X115228000Y-134104000D01*
X113171000Y-134204000D02*
X113171000Y-133004000D01*
X114921000Y-133004000D02*
X114921000Y-134204000D01*
X111998000Y-133653000D02*
X109998000Y-133653000D01*
X109998000Y-136603000D02*
X111998000Y-136603000D01*
X111090000Y-133463000D02*
X109890000Y-133463000D01*
X109890000Y-131713000D02*
X111090000Y-131713000D01*
X111457000Y-127492000D02*
X111457000Y-125492000D01*
X108507000Y-125492000D02*
X108507000Y-127492000D01*
X110482000Y-129706000D02*
X109482000Y-129706000D01*
X109482000Y-131406000D02*
X110482000Y-131406000D01*
X122944000Y-112102000D02*
X123944000Y-112102000D01*
X123944000Y-110402000D02*
X122944000Y-110402000D01*
X125642000Y-108212000D02*
X125642000Y-109212000D01*
X127342000Y-109212000D02*
X127342000Y-108212000D01*
X120388000Y-114466000D02*
X119388000Y-114466000D01*
X119388000Y-116166000D02*
X120388000Y-116166000D01*
X128008000Y-113450000D02*
X127008000Y-113450000D01*
X127008000Y-115150000D02*
X128008000Y-115150000D01*
X142256000Y-131015000D02*
X144256000Y-131015000D01*
X144256000Y-128065000D02*
X142256000Y-128065000D01*
X115872260Y-140340080D02*
X115872260Y-144139920D01*
X121371360Y-140340080D02*
X116372640Y-140340080D01*
X121368820Y-144139920D02*
X116370100Y-144139920D01*
X115270280Y-139237720D02*
X115270280Y-140337540D01*
X114670840Y-139738100D02*
X115869720Y-139738100D01*
X143264000Y-121754000D02*
X144264000Y-121754000D01*
X144264000Y-120054000D02*
X143264000Y-120054000D01*
X115872260Y-143896080D02*
X115872260Y-147695920D01*
X121371360Y-143896080D02*
X116372640Y-143896080D01*
X121368820Y-147695920D02*
X116370100Y-147695920D01*
X115270280Y-142793720D02*
X115270280Y-143893540D01*
X114670840Y-143294100D02*
X115869720Y-143294100D01*
X140724000Y-119722000D02*
X141724000Y-119722000D01*
X141724000Y-118022000D02*
X140724000Y-118022000D01*
X138184000Y-129374000D02*
X139184000Y-129374000D01*
X139184000Y-127674000D02*
X138184000Y-127674000D01*
X131523000Y-135112000D02*
X131523000Y-133112000D01*
X128573000Y-133112000D02*
X128573000Y-135112000D01*
X135079000Y-135112000D02*
X135079000Y-133112000D01*
X132129000Y-133112000D02*
X132129000Y-135112000D01*
X114562000Y-124294000D02*
X115562000Y-124294000D01*
X115562000Y-122594000D02*
X114562000Y-122594000D01*
X121553000Y-109312000D02*
X121553000Y-108112000D01*
X123303000Y-108112000D02*
X123303000Y-109312000D01*
X123585000Y-109312000D02*
X123585000Y-108112000D01*
X125335000Y-108112000D02*
X125335000Y-109312000D01*
X122844000Y-112409000D02*
X124044000Y-112409000D01*
X124044000Y-114159000D02*
X122844000Y-114159000D01*
X127649000Y-117440000D02*
X127649000Y-116240000D01*
X129399000Y-116240000D02*
X129399000Y-117440000D01*
X126584000Y-118223000D02*
X125384000Y-118223000D01*
X125384000Y-116473000D02*
X126584000Y-116473000D01*
X145429000Y-124552000D02*
X145429000Y-123352000D01*
X147179000Y-123352000D02*
X147179000Y-124552000D01*
X139608000Y-120029000D02*
X140808000Y-120029000D01*
X140808000Y-121779000D02*
X139608000Y-121779000D01*
X137760000Y-121779000D02*
X136560000Y-121779000D01*
X136560000Y-120029000D02*
X137760000Y-120029000D01*
X139051000Y-117764000D02*
X139051000Y-118964000D01*
X137301000Y-118964000D02*
X137301000Y-117764000D01*
D16*
X112395000Y-129794000D02*
X112395000Y-129921000D01*
X112395000Y-129921000D02*
X117729000Y-129921000D01*
X117729000Y-126111000D02*
X112395000Y-126111000D01*
X112395000Y-126111000D02*
X112395000Y-129794000D01*
X112395000Y-127508000D02*
X112903000Y-127508000D01*
X112903000Y-127508000D02*
X112903000Y-128524000D01*
X112903000Y-128524000D02*
X112395000Y-128524000D01*
X117729000Y-126111000D02*
X117729000Y-129921000D01*
D14*
X105959219Y-111252000D02*
G75*
G03X105959219Y-111252000I-803219J0D01*
G01*
X122215219Y-124460000D02*
G75*
G03X122215219Y-124460000I-803219J0D01*
G01*
X110531219Y-139700000D02*
G75*
G03X110531219Y-139700000I-803219J0D01*
G01*
X107991219Y-128524000D02*
G75*
G03X107991219Y-128524000I-803219J0D01*
G01*
D17*
X143720979Y-127038100D02*
G75*
G03X143720979Y-127038100I-325279J0D01*
G01*
X143979900Y-122428000D02*
X139484100Y-122428000D01*
X139484100Y-122428000D02*
X139484100Y-127508000D01*
X139484100Y-127508000D02*
X143979900Y-127508000D01*
X143979900Y-127508000D02*
X143979900Y-122428000D01*
D16*
X135509000Y-134874000D02*
X135509000Y-135001000D01*
X135509000Y-135001000D02*
X140843000Y-135001000D01*
X140843000Y-131191000D02*
X135509000Y-131191000D01*
X135509000Y-131191000D02*
X135509000Y-134874000D01*
X135509000Y-132588000D02*
X136017000Y-132588000D01*
X136017000Y-132588000D02*
X136017000Y-133604000D01*
X136017000Y-133604000D02*
X135509000Y-133604000D01*
X140843000Y-131191000D02*
X140843000Y-135001000D01*
D14*
X118388180Y-106222800D02*
X118388180Y-105521760D01*
X118388180Y-105521760D02*
X118637100Y-105521760D01*
X121187160Y-105521760D02*
X121387820Y-105521760D01*
X121387820Y-105521760D02*
X121387820Y-106222800D01*
X118922800Y-113767820D02*
X118221760Y-113767820D01*
X118221760Y-113767820D02*
X118221760Y-113518900D01*
X118221760Y-110968840D02*
X118221760Y-110768180D01*
X118221760Y-110768180D02*
X118922800Y-110768180D01*
X128574800Y-112751820D02*
X127873760Y-112751820D01*
X127873760Y-112751820D02*
X127873760Y-112502900D01*
X127873760Y-109952840D02*
X127873760Y-109752180D01*
X127873760Y-109752180D02*
X128574800Y-109752180D01*
X102870000Y-116586000D02*
X102870000Y-149606000D01*
X102870000Y-149606000D02*
X105410000Y-149606000D01*
X105410000Y-149606000D02*
X105410000Y-116586000D01*
X105690000Y-113766000D02*
X105690000Y-115316000D01*
X105410000Y-116586000D02*
X102870000Y-116586000D01*
X102590000Y-115316000D02*
X102590000Y-113766000D01*
X102590000Y-113766000D02*
X105690000Y-113766000D01*
X122315000Y-118644000D02*
X122315000Y-117444000D01*
X124065000Y-117444000D02*
X124065000Y-118644000D01*
X132588000Y-109724000D02*
X132588000Y-109974000D01*
X132588000Y-109224000D02*
X132588000Y-108974000D01*
X132588000Y-109224000D02*
X132938000Y-109724000D01*
X132938000Y-109724000D02*
X132238000Y-109724000D01*
X132238000Y-109724000D02*
X132588000Y-109224000D01*
X132938000Y-109224000D02*
X132238000Y-109224000D01*
X131788000Y-108174000D02*
X131788000Y-110574000D01*
X133388000Y-108174000D02*
X133388000Y-110574000D01*
X123694000Y-115316000D02*
X123944000Y-115316000D01*
X123194000Y-115316000D02*
X122944000Y-115316000D01*
X123194000Y-115316000D02*
X123694000Y-114966000D01*
X123694000Y-114966000D02*
X123694000Y-115666000D01*
X123694000Y-115666000D02*
X123194000Y-115316000D01*
X123194000Y-114966000D02*
X123194000Y-115666000D01*
X122144000Y-116116000D02*
X124544000Y-116116000D01*
X122144000Y-114516000D02*
X124544000Y-114516000D01*
D12*
X116573334Y-102558857D02*
X116306667Y-102558857D01*
X116306667Y-102977905D02*
X116306667Y-102177905D01*
X116687620Y-102177905D01*
X117411429Y-102977905D02*
X116954286Y-102977905D01*
X117182857Y-102977905D02*
X117182857Y-102177905D01*
X117106667Y-102292190D01*
X117030476Y-102368381D01*
X116954286Y-102406476D01*
X126866667Y-132441905D02*
X126485714Y-132441905D01*
X126485714Y-131641905D01*
X127552381Y-132441905D02*
X127095238Y-132441905D01*
X127323809Y-132441905D02*
X127323809Y-131641905D01*
X127247619Y-131756190D01*
X127171428Y-131832381D01*
X127095238Y-131870476D01*
D14*
X127008191Y-125436381D02*
X127627239Y-125436381D01*
X127293905Y-125817333D01*
X127436763Y-125817333D01*
X127532001Y-125864952D01*
X127579620Y-125912571D01*
X127627239Y-126007810D01*
X127627239Y-126245905D01*
X127579620Y-126341143D01*
X127532001Y-126388762D01*
X127436763Y-126436381D01*
X127151048Y-126436381D01*
X127055810Y-126388762D01*
X127008191Y-126341143D01*
X128055810Y-126341143D02*
X128103429Y-126388762D01*
X128055810Y-126436381D01*
X128008191Y-126388762D01*
X128055810Y-126341143D01*
X128055810Y-126436381D01*
X128436762Y-125436381D02*
X129055810Y-125436381D01*
X128722476Y-125817333D01*
X128865334Y-125817333D01*
X128960572Y-125864952D01*
X129008191Y-125912571D01*
X129055810Y-126007810D01*
X129055810Y-126245905D01*
X129008191Y-126341143D01*
X128960572Y-126388762D01*
X128865334Y-126436381D01*
X128579619Y-126436381D01*
X128484381Y-126388762D01*
X128436762Y-126341143D01*
X129912953Y-125769714D02*
X129912953Y-126436381D01*
X129484381Y-125769714D02*
X129484381Y-126293524D01*
X129532000Y-126388762D01*
X129627238Y-126436381D01*
X129770096Y-126436381D01*
X129865334Y-126388762D01*
X129912953Y-126341143D01*
X130389143Y-126436381D02*
X130389143Y-125436381D01*
X130389143Y-125912571D02*
X130960572Y-125912571D01*
X130960572Y-126436381D02*
X130960572Y-125436381D01*
D12*
X112101334Y-112720381D02*
X111625143Y-112720381D01*
X111625143Y-111720381D01*
X112910858Y-111720381D02*
X112434667Y-111720381D01*
X112387048Y-112196571D01*
X112434667Y-112148952D01*
X112529905Y-112101333D01*
X112768001Y-112101333D01*
X112863239Y-112148952D01*
X112910858Y-112196571D01*
X112958477Y-112291810D01*
X112958477Y-112529905D01*
X112910858Y-112625143D01*
X112863239Y-112672762D01*
X112768001Y-112720381D01*
X112529905Y-112720381D01*
X112434667Y-112672762D01*
X112387048Y-112625143D01*
X115741524Y-101707905D02*
X115741524Y-100907905D01*
X116046286Y-100907905D01*
X116122477Y-100946000D01*
X116160572Y-100984095D01*
X116198667Y-101060286D01*
X116198667Y-101174571D01*
X116160572Y-101250762D01*
X116122477Y-101288857D01*
X116046286Y-101326952D01*
X115741524Y-101326952D01*
X116960572Y-101707905D02*
X116503429Y-101707905D01*
X116732000Y-101707905D02*
X116732000Y-100907905D01*
X116655810Y-101022190D01*
X116579619Y-101098381D01*
X116503429Y-101136476D01*
X136632905Y-144862476D02*
X135832905Y-144862476D01*
X135832905Y-144557714D01*
X135871000Y-144481523D01*
X135909095Y-144443428D01*
X135985286Y-144405333D01*
X136099571Y-144405333D01*
X136175762Y-144443428D01*
X136213857Y-144481523D01*
X136251952Y-144557714D01*
X136251952Y-144862476D01*
X135909095Y-144100571D02*
X135871000Y-144062476D01*
X135832905Y-143986285D01*
X135832905Y-143795809D01*
X135871000Y-143719619D01*
X135909095Y-143681523D01*
X135985286Y-143643428D01*
X136061476Y-143643428D01*
X136175762Y-143681523D01*
X136632905Y-144138666D01*
X136632905Y-143643428D01*
X121773905Y-104730476D02*
X120973905Y-104730476D01*
X120973905Y-104425714D01*
X121012000Y-104349523D01*
X121050095Y-104311428D01*
X121126286Y-104273333D01*
X121240571Y-104273333D01*
X121316762Y-104311428D01*
X121354857Y-104349523D01*
X121392952Y-104425714D01*
X121392952Y-104730476D01*
X120973905Y-103587619D02*
X120973905Y-103740000D01*
X121012000Y-103816190D01*
X121050095Y-103854285D01*
X121164381Y-103930476D01*
X121316762Y-103968571D01*
X121621524Y-103968571D01*
X121697714Y-103930476D01*
X121735810Y-103892381D01*
X121773905Y-103816190D01*
X121773905Y-103663809D01*
X121735810Y-103587619D01*
X121697714Y-103549523D01*
X121621524Y-103511428D01*
X121431048Y-103511428D01*
X121354857Y-103549523D01*
X121316762Y-103587619D01*
X121278667Y-103663809D01*
X121278667Y-103816190D01*
X121316762Y-103892381D01*
X121354857Y-103930476D01*
X121431048Y-103968571D01*
D14*
X140398667Y-102004762D02*
X140541524Y-102052381D01*
X140779620Y-102052381D01*
X140874858Y-102004762D01*
X140922477Y-101957143D01*
X140970096Y-101861905D01*
X140970096Y-101766667D01*
X140922477Y-101671429D01*
X140874858Y-101623810D01*
X140779620Y-101576190D01*
X140589143Y-101528571D01*
X140493905Y-101480952D01*
X140446286Y-101433333D01*
X140398667Y-101338095D01*
X140398667Y-101242857D01*
X140446286Y-101147619D01*
X140493905Y-101100000D01*
X140589143Y-101052381D01*
X140827239Y-101052381D01*
X140970096Y-101100000D01*
X141303429Y-101052381D02*
X141541524Y-102052381D01*
X141732001Y-101338095D01*
X141922477Y-102052381D01*
X142160572Y-101052381D01*
X143065334Y-102052381D02*
X142493905Y-102052381D01*
X142779619Y-102052381D02*
X142779619Y-101052381D01*
X142684381Y-101195238D01*
X142589143Y-101290476D01*
X142493905Y-101338095D01*
D12*
X106578476Y-147389905D02*
X106578476Y-148037524D01*
X106616571Y-148113714D01*
X106654667Y-148151810D01*
X106730857Y-148189905D01*
X106883238Y-148189905D01*
X106959429Y-148151810D01*
X106997524Y-148113714D01*
X107035619Y-148037524D01*
X107035619Y-147389905D01*
X107835619Y-148189905D02*
X107378476Y-148189905D01*
X107607047Y-148189905D02*
X107607047Y-147389905D01*
X107530857Y-147504190D01*
X107454666Y-147580381D01*
X107378476Y-147618476D01*
X117849714Y-135413714D02*
X117811619Y-135451810D01*
X117697333Y-135489905D01*
X117621143Y-135489905D01*
X117506857Y-135451810D01*
X117430666Y-135375619D01*
X117392571Y-135299429D01*
X117354476Y-135147048D01*
X117354476Y-135032762D01*
X117392571Y-134880381D01*
X117430666Y-134804190D01*
X117506857Y-134728000D01*
X117621143Y-134689905D01*
X117697333Y-134689905D01*
X117811619Y-134728000D01*
X117849714Y-134766095D01*
X118611619Y-135489905D02*
X118154476Y-135489905D01*
X118383047Y-135489905D02*
X118383047Y-134689905D01*
X118306857Y-134804190D01*
X118230666Y-134880381D01*
X118154476Y-134918476D01*
X119297333Y-134689905D02*
X119144952Y-134689905D01*
X119068762Y-134728000D01*
X119030667Y-134766095D01*
X118954476Y-134880381D01*
X118916381Y-135032762D01*
X118916381Y-135337524D01*
X118954476Y-135413714D01*
X118992571Y-135451810D01*
X119068762Y-135489905D01*
X119221143Y-135489905D01*
X119297333Y-135451810D01*
X119335429Y-135413714D01*
X119373524Y-135337524D01*
X119373524Y-135147048D01*
X119335429Y-135070857D01*
X119297333Y-135032762D01*
X119221143Y-134994667D01*
X119068762Y-134994667D01*
X118992571Y-135032762D01*
X118954476Y-135070857D01*
X118916381Y-135147048D01*
X116579714Y-136429714D02*
X116541619Y-136467810D01*
X116427333Y-136505905D01*
X116351143Y-136505905D01*
X116236857Y-136467810D01*
X116160666Y-136391619D01*
X116122571Y-136315429D01*
X116084476Y-136163048D01*
X116084476Y-136048762D01*
X116122571Y-135896381D01*
X116160666Y-135820190D01*
X116236857Y-135744000D01*
X116351143Y-135705905D01*
X116427333Y-135705905D01*
X116541619Y-135744000D01*
X116579714Y-135782095D01*
X117341619Y-136505905D02*
X116884476Y-136505905D01*
X117113047Y-136505905D02*
X117113047Y-135705905D01*
X117036857Y-135820190D01*
X116960666Y-135896381D01*
X116884476Y-135934476D01*
X118065429Y-135705905D02*
X117684476Y-135705905D01*
X117646381Y-136086857D01*
X117684476Y-136048762D01*
X117760667Y-136010667D01*
X117951143Y-136010667D01*
X118027333Y-136048762D01*
X118065429Y-136086857D01*
X118103524Y-136163048D01*
X118103524Y-136353524D01*
X118065429Y-136429714D01*
X118027333Y-136467810D01*
X117951143Y-136505905D01*
X117760667Y-136505905D01*
X117684476Y-136467810D01*
X117646381Y-136429714D01*
X114039714Y-136505905D02*
X113773047Y-136124952D01*
X113582571Y-136505905D02*
X113582571Y-135705905D01*
X113887333Y-135705905D01*
X113963524Y-135744000D01*
X114001619Y-135782095D01*
X114039714Y-135858286D01*
X114039714Y-135972571D01*
X114001619Y-136048762D01*
X113963524Y-136086857D01*
X113887333Y-136124952D01*
X113582571Y-136124952D01*
X114801619Y-136505905D02*
X114344476Y-136505905D01*
X114573047Y-136505905D02*
X114573047Y-135705905D01*
X114496857Y-135820190D01*
X114420666Y-135896381D01*
X114344476Y-135934476D01*
X115068286Y-135705905D02*
X115601619Y-135705905D01*
X115258762Y-136505905D01*
X106673714Y-135413714D02*
X106635619Y-135451810D01*
X106521333Y-135489905D01*
X106445143Y-135489905D01*
X106330857Y-135451810D01*
X106254666Y-135375619D01*
X106216571Y-135299429D01*
X106178476Y-135147048D01*
X106178476Y-135032762D01*
X106216571Y-134880381D01*
X106254666Y-134804190D01*
X106330857Y-134728000D01*
X106445143Y-134689905D01*
X106521333Y-134689905D01*
X106635619Y-134728000D01*
X106673714Y-134766095D01*
X107435619Y-135489905D02*
X106978476Y-135489905D01*
X107207047Y-135489905D02*
X107207047Y-134689905D01*
X107130857Y-134804190D01*
X107054666Y-134880381D01*
X106978476Y-134918476D01*
X107816571Y-135489905D02*
X107968952Y-135489905D01*
X108045143Y-135451810D01*
X108083238Y-135413714D01*
X108159429Y-135299429D01*
X108197524Y-135147048D01*
X108197524Y-134842286D01*
X108159429Y-134766095D01*
X108121333Y-134728000D01*
X108045143Y-134689905D01*
X107892762Y-134689905D01*
X107816571Y-134728000D01*
X107778476Y-134766095D01*
X107740381Y-134842286D01*
X107740381Y-135032762D01*
X107778476Y-135108952D01*
X107816571Y-135147048D01*
X107892762Y-135185143D01*
X108045143Y-135185143D01*
X108121333Y-135147048D01*
X108159429Y-135108952D01*
X108197524Y-135032762D01*
X106927714Y-132949905D02*
X106661047Y-132568952D01*
X106470571Y-132949905D02*
X106470571Y-132149905D01*
X106775333Y-132149905D01*
X106851524Y-132188000D01*
X106889619Y-132226095D01*
X106927714Y-132302286D01*
X106927714Y-132416571D01*
X106889619Y-132492762D01*
X106851524Y-132530857D01*
X106775333Y-132568952D01*
X106470571Y-132568952D01*
X107689619Y-132949905D02*
X107232476Y-132949905D01*
X107461047Y-132949905D02*
X107461047Y-132149905D01*
X107384857Y-132264190D01*
X107308666Y-132340381D01*
X107232476Y-132378476D01*
X108146762Y-132492762D02*
X108070571Y-132454667D01*
X108032476Y-132416571D01*
X107994381Y-132340381D01*
X107994381Y-132302286D01*
X108032476Y-132226095D01*
X108070571Y-132188000D01*
X108146762Y-132149905D01*
X108299143Y-132149905D01*
X108375333Y-132188000D01*
X108413429Y-132226095D01*
X108451524Y-132302286D01*
X108451524Y-132340381D01*
X108413429Y-132416571D01*
X108375333Y-132454667D01*
X108299143Y-132492762D01*
X108146762Y-132492762D01*
X108070571Y-132530857D01*
X108032476Y-132568952D01*
X107994381Y-132645143D01*
X107994381Y-132797524D01*
X108032476Y-132873714D01*
X108070571Y-132911810D01*
X108146762Y-132949905D01*
X108299143Y-132949905D01*
X108375333Y-132911810D01*
X108413429Y-132873714D01*
X108451524Y-132797524D01*
X108451524Y-132645143D01*
X108413429Y-132568952D01*
X108375333Y-132530857D01*
X108299143Y-132492762D01*
X109467714Y-123983714D02*
X109429619Y-124021810D01*
X109315333Y-124059905D01*
X109239143Y-124059905D01*
X109124857Y-124021810D01*
X109048666Y-123945619D01*
X109010571Y-123869429D01*
X108972476Y-123717048D01*
X108972476Y-123602762D01*
X109010571Y-123450381D01*
X109048666Y-123374190D01*
X109124857Y-123298000D01*
X109239143Y-123259905D01*
X109315333Y-123259905D01*
X109429619Y-123298000D01*
X109467714Y-123336095D01*
X110229619Y-124059905D02*
X109772476Y-124059905D01*
X110001047Y-124059905D02*
X110001047Y-123259905D01*
X109924857Y-123374190D01*
X109848666Y-123450381D01*
X109772476Y-123488476D01*
X110915333Y-123526571D02*
X110915333Y-124059905D01*
X110724857Y-123221810D02*
X110534381Y-123793238D01*
X111029619Y-123793238D01*
X107981714Y-131070286D02*
X108019810Y-131108381D01*
X108057905Y-131222667D01*
X108057905Y-131298857D01*
X108019810Y-131413143D01*
X107943619Y-131489334D01*
X107867429Y-131527429D01*
X107715048Y-131565524D01*
X107600762Y-131565524D01*
X107448381Y-131527429D01*
X107372190Y-131489334D01*
X107296000Y-131413143D01*
X107257905Y-131298857D01*
X107257905Y-131222667D01*
X107296000Y-131108381D01*
X107334095Y-131070286D01*
X108057905Y-130308381D02*
X108057905Y-130765524D01*
X108057905Y-130536953D02*
X107257905Y-130536953D01*
X107372190Y-130613143D01*
X107448381Y-130689334D01*
X107486476Y-130765524D01*
X107600762Y-129851238D02*
X107562667Y-129927429D01*
X107524571Y-129965524D01*
X107448381Y-130003619D01*
X107410286Y-130003619D01*
X107334095Y-129965524D01*
X107296000Y-129927429D01*
X107257905Y-129851238D01*
X107257905Y-129698857D01*
X107296000Y-129622667D01*
X107334095Y-129584571D01*
X107410286Y-129546476D01*
X107448381Y-129546476D01*
X107524571Y-129584571D01*
X107562667Y-129622667D01*
X107600762Y-129698857D01*
X107600762Y-129851238D01*
X107638857Y-129927429D01*
X107676952Y-129965524D01*
X107753143Y-130003619D01*
X107905524Y-130003619D01*
X107981714Y-129965524D01*
X108019810Y-129927429D01*
X108057905Y-129851238D01*
X108057905Y-129698857D01*
X108019810Y-129622667D01*
X107981714Y-129584571D01*
X107905524Y-129546476D01*
X107753143Y-129546476D01*
X107676952Y-129584571D01*
X107638857Y-129622667D01*
X107600762Y-129698857D01*
D13*
X125853000Y-111368666D02*
X125886333Y-111402000D01*
X125919667Y-111502000D01*
X125919667Y-111568666D01*
X125886333Y-111668666D01*
X125819667Y-111735333D01*
X125753000Y-111768666D01*
X125619667Y-111802000D01*
X125519667Y-111802000D01*
X125386333Y-111768666D01*
X125319667Y-111735333D01*
X125253000Y-111668666D01*
X125219667Y-111568666D01*
X125219667Y-111502000D01*
X125253000Y-111402000D01*
X125286333Y-111368666D01*
X125919667Y-110702000D02*
X125919667Y-111102000D01*
X125919667Y-110902000D02*
X125219667Y-110902000D01*
X125319667Y-110968666D01*
X125386333Y-111035333D01*
X125419667Y-111102000D01*
D12*
X128301714Y-108845333D02*
X128339810Y-108883428D01*
X128377905Y-108997714D01*
X128377905Y-109073904D01*
X128339810Y-109188190D01*
X128263619Y-109264381D01*
X128187429Y-109302476D01*
X128035048Y-109340571D01*
X127920762Y-109340571D01*
X127768381Y-109302476D01*
X127692190Y-109264381D01*
X127616000Y-109188190D01*
X127577905Y-109073904D01*
X127577905Y-108997714D01*
X127616000Y-108883428D01*
X127654095Y-108845333D01*
X127654095Y-108540571D02*
X127616000Y-108502476D01*
X127577905Y-108426285D01*
X127577905Y-108235809D01*
X127616000Y-108159619D01*
X127654095Y-108121523D01*
X127730286Y-108083428D01*
X127806476Y-108083428D01*
X127920762Y-108121523D01*
X128377905Y-108578666D01*
X128377905Y-108083428D01*
X119754667Y-117125714D02*
X119716572Y-117163810D01*
X119602286Y-117201905D01*
X119526096Y-117201905D01*
X119411810Y-117163810D01*
X119335619Y-117087619D01*
X119297524Y-117011429D01*
X119259429Y-116859048D01*
X119259429Y-116744762D01*
X119297524Y-116592381D01*
X119335619Y-116516190D01*
X119411810Y-116440000D01*
X119526096Y-116401905D01*
X119602286Y-116401905D01*
X119716572Y-116440000D01*
X119754667Y-116478095D01*
X120021334Y-116401905D02*
X120516572Y-116401905D01*
X120249905Y-116706667D01*
X120364191Y-116706667D01*
X120440381Y-116744762D01*
X120478477Y-116782857D01*
X120516572Y-116859048D01*
X120516572Y-117049524D01*
X120478477Y-117125714D01*
X120440381Y-117163810D01*
X120364191Y-117201905D01*
X120135619Y-117201905D01*
X120059429Y-117163810D01*
X120021334Y-117125714D01*
X129914667Y-114585714D02*
X129876572Y-114623810D01*
X129762286Y-114661905D01*
X129686096Y-114661905D01*
X129571810Y-114623810D01*
X129495619Y-114547619D01*
X129457524Y-114471429D01*
X129419429Y-114319048D01*
X129419429Y-114204762D01*
X129457524Y-114052381D01*
X129495619Y-113976190D01*
X129571810Y-113900000D01*
X129686096Y-113861905D01*
X129762286Y-113861905D01*
X129876572Y-113900000D01*
X129914667Y-113938095D01*
X130600381Y-114128571D02*
X130600381Y-114661905D01*
X130409905Y-113823810D02*
X130219429Y-114395238D01*
X130714667Y-114395238D01*
X143122667Y-132365714D02*
X143084572Y-132403810D01*
X142970286Y-132441905D01*
X142894096Y-132441905D01*
X142779810Y-132403810D01*
X142703619Y-132327619D01*
X142665524Y-132251429D01*
X142627429Y-132099048D01*
X142627429Y-131984762D01*
X142665524Y-131832381D01*
X142703619Y-131756190D01*
X142779810Y-131680000D01*
X142894096Y-131641905D01*
X142970286Y-131641905D01*
X143084572Y-131680000D01*
X143122667Y-131718095D01*
X143846477Y-131641905D02*
X143465524Y-131641905D01*
X143427429Y-132022857D01*
X143465524Y-131984762D01*
X143541715Y-131946667D01*
X143732191Y-131946667D01*
X143808381Y-131984762D01*
X143846477Y-132022857D01*
X143884572Y-132099048D01*
X143884572Y-132289524D01*
X143846477Y-132365714D01*
X143808381Y-132403810D01*
X143732191Y-132441905D01*
X143541715Y-132441905D01*
X143465524Y-132403810D01*
X143427429Y-132365714D01*
X122713714Y-142754286D02*
X122751810Y-142792381D01*
X122789905Y-142906667D01*
X122789905Y-142982857D01*
X122751810Y-143097143D01*
X122675619Y-143173334D01*
X122599429Y-143211429D01*
X122447048Y-143249524D01*
X122332762Y-143249524D01*
X122180381Y-143211429D01*
X122104190Y-143173334D01*
X122028000Y-143097143D01*
X121989905Y-142982857D01*
X121989905Y-142906667D01*
X122028000Y-142792381D01*
X122066095Y-142754286D01*
X122789905Y-141992381D02*
X122789905Y-142449524D01*
X122789905Y-142220953D02*
X121989905Y-142220953D01*
X122104190Y-142297143D01*
X122180381Y-142373334D01*
X122218476Y-142449524D01*
X122066095Y-141687619D02*
X122028000Y-141649524D01*
X121989905Y-141573333D01*
X121989905Y-141382857D01*
X122028000Y-141306667D01*
X122066095Y-141268571D01*
X122142286Y-141230476D01*
X122218476Y-141230476D01*
X122332762Y-141268571D01*
X122789905Y-141725714D01*
X122789905Y-141230476D01*
X146170667Y-121189714D02*
X146132572Y-121227810D01*
X146018286Y-121265905D01*
X145942096Y-121265905D01*
X145827810Y-121227810D01*
X145751619Y-121151619D01*
X145713524Y-121075429D01*
X145675429Y-120923048D01*
X145675429Y-120808762D01*
X145713524Y-120656381D01*
X145751619Y-120580190D01*
X145827810Y-120504000D01*
X145942096Y-120465905D01*
X146018286Y-120465905D01*
X146132572Y-120504000D01*
X146170667Y-120542095D01*
X146856381Y-120465905D02*
X146704000Y-120465905D01*
X146627810Y-120504000D01*
X146589715Y-120542095D01*
X146513524Y-120656381D01*
X146475429Y-120808762D01*
X146475429Y-121113524D01*
X146513524Y-121189714D01*
X146551619Y-121227810D01*
X146627810Y-121265905D01*
X146780191Y-121265905D01*
X146856381Y-121227810D01*
X146894477Y-121189714D01*
X146932572Y-121113524D01*
X146932572Y-120923048D01*
X146894477Y-120846857D01*
X146856381Y-120808762D01*
X146780191Y-120770667D01*
X146627810Y-120770667D01*
X146551619Y-120808762D01*
X146513524Y-120846857D01*
X146475429Y-120923048D01*
X122713714Y-146310286D02*
X122751810Y-146348381D01*
X122789905Y-146462667D01*
X122789905Y-146538857D01*
X122751810Y-146653143D01*
X122675619Y-146729334D01*
X122599429Y-146767429D01*
X122447048Y-146805524D01*
X122332762Y-146805524D01*
X122180381Y-146767429D01*
X122104190Y-146729334D01*
X122028000Y-146653143D01*
X121989905Y-146538857D01*
X121989905Y-146462667D01*
X122028000Y-146348381D01*
X122066095Y-146310286D01*
X122789905Y-145548381D02*
X122789905Y-146005524D01*
X122789905Y-145776953D02*
X121989905Y-145776953D01*
X122104190Y-145853143D01*
X122180381Y-145929334D01*
X122218476Y-146005524D01*
X121989905Y-145281714D02*
X121989905Y-144786476D01*
X122294667Y-145053143D01*
X122294667Y-144938857D01*
X122332762Y-144862667D01*
X122370857Y-144824571D01*
X122447048Y-144786476D01*
X122637524Y-144786476D01*
X122713714Y-144824571D01*
X122751810Y-144862667D01*
X122789905Y-144938857D01*
X122789905Y-145167429D01*
X122751810Y-145243619D01*
X122713714Y-145281714D01*
X141090667Y-117633714D02*
X141052572Y-117671810D01*
X140938286Y-117709905D01*
X140862096Y-117709905D01*
X140747810Y-117671810D01*
X140671619Y-117595619D01*
X140633524Y-117519429D01*
X140595429Y-117367048D01*
X140595429Y-117252762D01*
X140633524Y-117100381D01*
X140671619Y-117024190D01*
X140747810Y-116948000D01*
X140862096Y-116909905D01*
X140938286Y-116909905D01*
X141052572Y-116948000D01*
X141090667Y-116986095D01*
X141357334Y-116909905D02*
X141890667Y-116909905D01*
X141547810Y-117709905D01*
X136429714Y-128657333D02*
X136467810Y-128695428D01*
X136505905Y-128809714D01*
X136505905Y-128885904D01*
X136467810Y-129000190D01*
X136391619Y-129076381D01*
X136315429Y-129114476D01*
X136163048Y-129152571D01*
X136048762Y-129152571D01*
X135896381Y-129114476D01*
X135820190Y-129076381D01*
X135744000Y-129000190D01*
X135705905Y-128885904D01*
X135705905Y-128809714D01*
X135744000Y-128695428D01*
X135782095Y-128657333D01*
X136505905Y-128276381D02*
X136505905Y-128124000D01*
X136467810Y-128047809D01*
X136429714Y-128009714D01*
X136315429Y-127933523D01*
X136163048Y-127895428D01*
X135858286Y-127895428D01*
X135782095Y-127933523D01*
X135744000Y-127971619D01*
X135705905Y-128047809D01*
X135705905Y-128200190D01*
X135744000Y-128276381D01*
X135782095Y-128314476D01*
X135858286Y-128352571D01*
X136048762Y-128352571D01*
X136124952Y-128314476D01*
X136163048Y-128276381D01*
X136201143Y-128200190D01*
X136201143Y-128047809D01*
X136163048Y-127971619D01*
X136124952Y-127933523D01*
X136048762Y-127895428D01*
X129533714Y-137445714D02*
X129495619Y-137483810D01*
X129381333Y-137521905D01*
X129305143Y-137521905D01*
X129190857Y-137483810D01*
X129114666Y-137407619D01*
X129076571Y-137331429D01*
X129038476Y-137179048D01*
X129038476Y-137064762D01*
X129076571Y-136912381D01*
X129114666Y-136836190D01*
X129190857Y-136760000D01*
X129305143Y-136721905D01*
X129381333Y-136721905D01*
X129495619Y-136760000D01*
X129533714Y-136798095D01*
X130295619Y-137521905D02*
X129838476Y-137521905D01*
X130067047Y-137521905D02*
X130067047Y-136721905D01*
X129990857Y-136836190D01*
X129914666Y-136912381D01*
X129838476Y-136950476D01*
X130790857Y-136721905D02*
X130867048Y-136721905D01*
X130943238Y-136760000D01*
X130981333Y-136798095D01*
X131019429Y-136874286D01*
X131057524Y-137026667D01*
X131057524Y-137217143D01*
X131019429Y-137369524D01*
X130981333Y-137445714D01*
X130943238Y-137483810D01*
X130867048Y-137521905D01*
X130790857Y-137521905D01*
X130714667Y-137483810D01*
X130676571Y-137445714D01*
X130638476Y-137369524D01*
X130600381Y-137217143D01*
X130600381Y-137026667D01*
X130638476Y-136874286D01*
X130676571Y-136798095D01*
X130714667Y-136760000D01*
X130790857Y-136721905D01*
X133089714Y-137445714D02*
X133051619Y-137483810D01*
X132937333Y-137521905D01*
X132861143Y-137521905D01*
X132746857Y-137483810D01*
X132670666Y-137407619D01*
X132632571Y-137331429D01*
X132594476Y-137179048D01*
X132594476Y-137064762D01*
X132632571Y-136912381D01*
X132670666Y-136836190D01*
X132746857Y-136760000D01*
X132861143Y-136721905D01*
X132937333Y-136721905D01*
X133051619Y-136760000D01*
X133089714Y-136798095D01*
X133851619Y-137521905D02*
X133394476Y-137521905D01*
X133623047Y-137521905D02*
X133623047Y-136721905D01*
X133546857Y-136836190D01*
X133470666Y-136912381D01*
X133394476Y-136950476D01*
X134613524Y-137521905D02*
X134156381Y-137521905D01*
X134384952Y-137521905D02*
X134384952Y-136721905D01*
X134308762Y-136836190D01*
X134232571Y-136912381D01*
X134156381Y-136950476D01*
X113061714Y-123958286D02*
X113099810Y-123996381D01*
X113137905Y-124110667D01*
X113137905Y-124186857D01*
X113099810Y-124301143D01*
X113023619Y-124377334D01*
X112947429Y-124415429D01*
X112795048Y-124453524D01*
X112680762Y-124453524D01*
X112528381Y-124415429D01*
X112452190Y-124377334D01*
X112376000Y-124301143D01*
X112337905Y-124186857D01*
X112337905Y-124110667D01*
X112376000Y-123996381D01*
X112414095Y-123958286D01*
X113137905Y-123196381D02*
X113137905Y-123653524D01*
X113137905Y-123424953D02*
X112337905Y-123424953D01*
X112452190Y-123501143D01*
X112528381Y-123577334D01*
X112566476Y-123653524D01*
X112337905Y-122929714D02*
X112337905Y-122396381D01*
X113137905Y-122739238D01*
X121265905Y-109861333D02*
X120884952Y-110128000D01*
X121265905Y-110318476D02*
X120465905Y-110318476D01*
X120465905Y-110013714D01*
X120504000Y-109937523D01*
X120542095Y-109899428D01*
X120618286Y-109861333D01*
X120732571Y-109861333D01*
X120808762Y-109899428D01*
X120846857Y-109937523D01*
X120884952Y-110013714D01*
X120884952Y-110318476D01*
X120465905Y-109137523D02*
X120465905Y-109518476D01*
X120846857Y-109556571D01*
X120808762Y-109518476D01*
X120770667Y-109442285D01*
X120770667Y-109251809D01*
X120808762Y-109175619D01*
X120846857Y-109137523D01*
X120923048Y-109099428D01*
X121113524Y-109099428D01*
X121189714Y-109137523D01*
X121227810Y-109175619D01*
X121265905Y-109251809D01*
X121265905Y-109442285D01*
X121227810Y-109518476D01*
X121189714Y-109556571D01*
D10*
X124360000Y-108983429D02*
X124160000Y-108697714D01*
X124017143Y-108983429D02*
X124017143Y-108383429D01*
X124245715Y-108383429D01*
X124302857Y-108412000D01*
X124331429Y-108440571D01*
X124360000Y-108497714D01*
X124360000Y-108583429D01*
X124331429Y-108640571D01*
X124302857Y-108669143D01*
X124245715Y-108697714D01*
X124017143Y-108697714D01*
X124874286Y-108383429D02*
X124760000Y-108383429D01*
X124702857Y-108412000D01*
X124674286Y-108440571D01*
X124617143Y-108526286D01*
X124588572Y-108640571D01*
X124588572Y-108869143D01*
X124617143Y-108926286D01*
X124645715Y-108954857D01*
X124702857Y-108983429D01*
X124817143Y-108983429D01*
X124874286Y-108954857D01*
X124902857Y-108926286D01*
X124931429Y-108869143D01*
X124931429Y-108726286D01*
X124902857Y-108669143D01*
X124874286Y-108640571D01*
X124817143Y-108612000D01*
X124702857Y-108612000D01*
X124645715Y-108640571D01*
X124617143Y-108669143D01*
X124588572Y-108726286D01*
X125613334Y-113092667D02*
X125380000Y-112759333D01*
X125213334Y-113092667D02*
X125213334Y-112392667D01*
X125480000Y-112392667D01*
X125546667Y-112426000D01*
X125580000Y-112459333D01*
X125613334Y-112526000D01*
X125613334Y-112626000D01*
X125580000Y-112692667D01*
X125546667Y-112726000D01*
X125480000Y-112759333D01*
X125213334Y-112759333D01*
X125846667Y-112392667D02*
X126313334Y-112392667D01*
X126013334Y-113092667D01*
D12*
X128390667Y-119233905D02*
X128124000Y-118852952D01*
X127933524Y-119233905D02*
X127933524Y-118433905D01*
X128238286Y-118433905D01*
X128314477Y-118472000D01*
X128352572Y-118510095D01*
X128390667Y-118586286D01*
X128390667Y-118700571D01*
X128352572Y-118776762D01*
X128314477Y-118814857D01*
X128238286Y-118852952D01*
X127933524Y-118852952D01*
X128847810Y-118776762D02*
X128771619Y-118738667D01*
X128733524Y-118700571D01*
X128695429Y-118624381D01*
X128695429Y-118586286D01*
X128733524Y-118510095D01*
X128771619Y-118472000D01*
X128847810Y-118433905D01*
X129000191Y-118433905D01*
X129076381Y-118472000D01*
X129114477Y-118510095D01*
X129152572Y-118586286D01*
X129152572Y-118624381D01*
X129114477Y-118700571D01*
X129076381Y-118738667D01*
X129000191Y-118776762D01*
X128847810Y-118776762D01*
X128771619Y-118814857D01*
X128733524Y-118852952D01*
X128695429Y-118929143D01*
X128695429Y-119081524D01*
X128733524Y-119157714D01*
X128771619Y-119195810D01*
X128847810Y-119233905D01*
X129000191Y-119233905D01*
X129076381Y-119195810D01*
X129114477Y-119157714D01*
X129152572Y-119081524D01*
X129152572Y-118929143D01*
X129114477Y-118852952D01*
X129076381Y-118814857D01*
X129000191Y-118776762D01*
X125850667Y-119233905D02*
X125584000Y-118852952D01*
X125393524Y-119233905D02*
X125393524Y-118433905D01*
X125698286Y-118433905D01*
X125774477Y-118472000D01*
X125812572Y-118510095D01*
X125850667Y-118586286D01*
X125850667Y-118700571D01*
X125812572Y-118776762D01*
X125774477Y-118814857D01*
X125698286Y-118852952D01*
X125393524Y-118852952D01*
X126231619Y-119233905D02*
X126384000Y-119233905D01*
X126460191Y-119195810D01*
X126498286Y-119157714D01*
X126574477Y-119043429D01*
X126612572Y-118891048D01*
X126612572Y-118586286D01*
X126574477Y-118510095D01*
X126536381Y-118472000D01*
X126460191Y-118433905D01*
X126307810Y-118433905D01*
X126231619Y-118472000D01*
X126193524Y-118510095D01*
X126155429Y-118586286D01*
X126155429Y-118776762D01*
X126193524Y-118852952D01*
X126231619Y-118891048D01*
X126307810Y-118929143D01*
X126460191Y-118929143D01*
X126536381Y-118891048D01*
X126574477Y-118852952D01*
X126612572Y-118776762D01*
X148443905Y-124466286D02*
X148062952Y-124732953D01*
X148443905Y-124923429D02*
X147643905Y-124923429D01*
X147643905Y-124618667D01*
X147682000Y-124542476D01*
X147720095Y-124504381D01*
X147796286Y-124466286D01*
X147910571Y-124466286D01*
X147986762Y-124504381D01*
X148024857Y-124542476D01*
X148062952Y-124618667D01*
X148062952Y-124923429D01*
X148443905Y-123704381D02*
X148443905Y-124161524D01*
X148443905Y-123932953D02*
X147643905Y-123932953D01*
X147758190Y-124009143D01*
X147834381Y-124085334D01*
X147872476Y-124161524D01*
X148443905Y-122942476D02*
X148443905Y-123399619D01*
X148443905Y-123171048D02*
X147643905Y-123171048D01*
X147758190Y-123247238D01*
X147834381Y-123323429D01*
X147872476Y-123399619D01*
D10*
X140434190Y-121225428D02*
X140196095Y-121392095D01*
X140434190Y-121511142D02*
X139934190Y-121511142D01*
X139934190Y-121320666D01*
X139958000Y-121273047D01*
X139981810Y-121249238D01*
X140029429Y-121225428D01*
X140100857Y-121225428D01*
X140148476Y-121249238D01*
X140172286Y-121273047D01*
X140196095Y-121320666D01*
X140196095Y-121511142D01*
X140434190Y-120749238D02*
X140434190Y-121034952D01*
X140434190Y-120892095D02*
X139934190Y-120892095D01*
X140005619Y-120939714D01*
X140053238Y-120987333D01*
X140077048Y-121034952D01*
X139934190Y-120582571D02*
X139934190Y-120273048D01*
X140124667Y-120439714D01*
X140124667Y-120368286D01*
X140148476Y-120320667D01*
X140172286Y-120296857D01*
X140219905Y-120273048D01*
X140338952Y-120273048D01*
X140386571Y-120296857D01*
X140410381Y-120320667D01*
X140434190Y-120368286D01*
X140434190Y-120511143D01*
X140410381Y-120558762D01*
X140386571Y-120582571D01*
D12*
X135375714Y-119741905D02*
X135109047Y-119360952D01*
X134918571Y-119741905D02*
X134918571Y-118941905D01*
X135223333Y-118941905D01*
X135299524Y-118980000D01*
X135337619Y-119018095D01*
X135375714Y-119094286D01*
X135375714Y-119208571D01*
X135337619Y-119284762D01*
X135299524Y-119322857D01*
X135223333Y-119360952D01*
X134918571Y-119360952D01*
X136137619Y-119741905D02*
X135680476Y-119741905D01*
X135909047Y-119741905D02*
X135909047Y-118941905D01*
X135832857Y-119056190D01*
X135756666Y-119132381D01*
X135680476Y-119170476D01*
X136823333Y-119208571D02*
X136823333Y-119741905D01*
X136632857Y-118903810D02*
X136442381Y-119475238D01*
X136937619Y-119475238D01*
X137013905Y-117862286D02*
X136632952Y-118128953D01*
X137013905Y-118319429D02*
X136213905Y-118319429D01*
X136213905Y-118014667D01*
X136252000Y-117938476D01*
X136290095Y-117900381D01*
X136366286Y-117862286D01*
X136480571Y-117862286D01*
X136556762Y-117900381D01*
X136594857Y-117938476D01*
X136632952Y-118014667D01*
X136632952Y-118319429D01*
X137013905Y-117100381D02*
X137013905Y-117557524D01*
X137013905Y-117328953D02*
X136213905Y-117328953D01*
X136328190Y-117405143D01*
X136404381Y-117481334D01*
X136442476Y-117557524D01*
X136213905Y-116376571D02*
X136213905Y-116757524D01*
X136594857Y-116795619D01*
X136556762Y-116757524D01*
X136518667Y-116681333D01*
X136518667Y-116490857D01*
X136556762Y-116414667D01*
X136594857Y-116376571D01*
X136671048Y-116338476D01*
X136861524Y-116338476D01*
X136937714Y-116376571D01*
X136975810Y-116414667D01*
X137013905Y-116490857D01*
X137013905Y-116681333D01*
X136975810Y-116757524D01*
X136937714Y-116795619D01*
X117925905Y-128625524D02*
X118573524Y-128625524D01*
X118649714Y-128587429D01*
X118687810Y-128549333D01*
X118725905Y-128473143D01*
X118725905Y-128320762D01*
X118687810Y-128244571D01*
X118649714Y-128206476D01*
X118573524Y-128168381D01*
X117925905Y-128168381D01*
X117925905Y-127863619D02*
X117925905Y-127368381D01*
X118230667Y-127635048D01*
X118230667Y-127520762D01*
X118268762Y-127444572D01*
X118306857Y-127406476D01*
X118383048Y-127368381D01*
X118573524Y-127368381D01*
X118649714Y-127406476D01*
X118687810Y-127444572D01*
X118725905Y-127520762D01*
X118725905Y-127749334D01*
X118687810Y-127825524D01*
X118649714Y-127863619D01*
D13*
X101128667Y-111302000D02*
X101662000Y-111302000D01*
X101395333Y-111568667D02*
X101395333Y-111035333D01*
X102362000Y-111568667D02*
X101962000Y-111568667D01*
X102162000Y-111568667D02*
X102162000Y-110868667D01*
X102095334Y-110968667D01*
X102028667Y-111035333D01*
X101962000Y-111068667D01*
X102628667Y-110935333D02*
X102662001Y-110902000D01*
X102728667Y-110868667D01*
X102895334Y-110868667D01*
X102962001Y-110902000D01*
X102995334Y-110935333D01*
X103028667Y-111002000D01*
X103028667Y-111068667D01*
X102995334Y-111168667D01*
X102595334Y-111568667D01*
X103028667Y-111568667D01*
X103228668Y-110868667D02*
X103462001Y-111568667D01*
X103695334Y-110868667D01*
D14*
X121497714Y-123208857D02*
X121497714Y-122294571D01*
X121954857Y-122751714D02*
X121040571Y-122751714D01*
X120754857Y-121151714D02*
X120754857Y-121723143D01*
X121326286Y-121780286D01*
X121269143Y-121723143D01*
X121212000Y-121608857D01*
X121212000Y-121323143D01*
X121269143Y-121208857D01*
X121326286Y-121151714D01*
X121440571Y-121094571D01*
X121726286Y-121094571D01*
X121840571Y-121151714D01*
X121897714Y-121208857D01*
X121954857Y-121323143D01*
X121954857Y-121608857D01*
X121897714Y-121723143D01*
X121840571Y-121780286D01*
X120754857Y-120751714D02*
X121954857Y-120351714D01*
X120754857Y-119951714D01*
X106312000Y-137753714D02*
X107226286Y-137753714D01*
X106769143Y-138210857D02*
X106769143Y-137296571D01*
X107683429Y-137010857D02*
X108426286Y-137010857D01*
X108026286Y-137468000D01*
X108197714Y-137468000D01*
X108312000Y-137525143D01*
X108369143Y-137582286D01*
X108426286Y-137696571D01*
X108426286Y-137982286D01*
X108369143Y-138096571D01*
X108312000Y-138153714D01*
X108197714Y-138210857D01*
X107854857Y-138210857D01*
X107740571Y-138153714D01*
X107683429Y-138096571D01*
X108940571Y-138096571D02*
X108997714Y-138153714D01*
X108940571Y-138210857D01*
X108883428Y-138153714D01*
X108940571Y-138096571D01*
X108940571Y-138210857D01*
X109397715Y-137010857D02*
X110140572Y-137010857D01*
X109740572Y-137468000D01*
X109912000Y-137468000D01*
X110026286Y-137525143D01*
X110083429Y-137582286D01*
X110140572Y-137696571D01*
X110140572Y-137982286D01*
X110083429Y-138096571D01*
X110026286Y-138153714D01*
X109912000Y-138210857D01*
X109569143Y-138210857D01*
X109454857Y-138153714D01*
X109397715Y-138096571D01*
X110483429Y-137010857D02*
X110883429Y-138210857D01*
X111283429Y-137010857D01*
X107273714Y-127368000D02*
X107273714Y-126453714D01*
X107730857Y-126910857D02*
X106816571Y-126910857D01*
X106645143Y-125939429D02*
X106588000Y-125882286D01*
X106530857Y-125768000D01*
X106530857Y-125482286D01*
X106588000Y-125368000D01*
X106645143Y-125310857D01*
X106759429Y-125253714D01*
X106873714Y-125253714D01*
X107045143Y-125310857D01*
X107730857Y-125996571D01*
X107730857Y-125253714D01*
X107616571Y-124739429D02*
X107673714Y-124682286D01*
X107730857Y-124739429D01*
X107673714Y-124796572D01*
X107616571Y-124739429D01*
X107730857Y-124739429D01*
X107045143Y-123996571D02*
X106988000Y-124110857D01*
X106930857Y-124168000D01*
X106816571Y-124225143D01*
X106759429Y-124225143D01*
X106645143Y-124168000D01*
X106588000Y-124110857D01*
X106530857Y-123996571D01*
X106530857Y-123768000D01*
X106588000Y-123653714D01*
X106645143Y-123596571D01*
X106759429Y-123539428D01*
X106816571Y-123539428D01*
X106930857Y-123596571D01*
X106988000Y-123653714D01*
X107045143Y-123768000D01*
X107045143Y-123996571D01*
X107102286Y-124110857D01*
X107159429Y-124168000D01*
X107273714Y-124225143D01*
X107502286Y-124225143D01*
X107616571Y-124168000D01*
X107673714Y-124110857D01*
X107730857Y-123996571D01*
X107730857Y-123768000D01*
X107673714Y-123653714D01*
X107616571Y-123596571D01*
X107502286Y-123539428D01*
X107273714Y-123539428D01*
X107159429Y-123596571D01*
X107102286Y-123653714D01*
X107045143Y-123768000D01*
X106530857Y-123196571D02*
X107730857Y-122796571D01*
X106530857Y-122396571D01*
D12*
X145694476Y-126561905D02*
X145694476Y-127209524D01*
X145732571Y-127285714D01*
X145770667Y-127323810D01*
X145846857Y-127361905D01*
X145999238Y-127361905D01*
X146075429Y-127323810D01*
X146113524Y-127285714D01*
X146151619Y-127209524D01*
X146151619Y-126561905D01*
X146494476Y-126638095D02*
X146532571Y-126600000D01*
X146608762Y-126561905D01*
X146799238Y-126561905D01*
X146875428Y-126600000D01*
X146913524Y-126638095D01*
X146951619Y-126714286D01*
X146951619Y-126790476D01*
X146913524Y-126904762D01*
X146456381Y-127361905D01*
X146951619Y-127361905D01*
X142170095Y-133172190D02*
X142132000Y-133248381D01*
X142055810Y-133324571D01*
X141941524Y-133438857D01*
X141903429Y-133515048D01*
X141903429Y-133591238D01*
X142093905Y-133553143D02*
X142055810Y-133629333D01*
X141979619Y-133705524D01*
X141827238Y-133743619D01*
X141560571Y-133743619D01*
X141408190Y-133705524D01*
X141332000Y-133629333D01*
X141293905Y-133553143D01*
X141293905Y-133400762D01*
X141332000Y-133324571D01*
X141408190Y-133248381D01*
X141560571Y-133210286D01*
X141827238Y-133210286D01*
X141979619Y-133248381D01*
X142055810Y-133324571D01*
X142093905Y-133400762D01*
X142093905Y-133553143D01*
X141560571Y-132524572D02*
X142093905Y-132524572D01*
X141255810Y-132715048D02*
X141827238Y-132905524D01*
X141827238Y-132410286D01*
X119811810Y-103562095D02*
X119735619Y-103524000D01*
X119659429Y-103447810D01*
X119545143Y-103333524D01*
X119468952Y-103295429D01*
X119392762Y-103295429D01*
X119430857Y-103485905D02*
X119354667Y-103447810D01*
X119278476Y-103371619D01*
X119240381Y-103219238D01*
X119240381Y-102952571D01*
X119278476Y-102800190D01*
X119354667Y-102724000D01*
X119430857Y-102685905D01*
X119583238Y-102685905D01*
X119659429Y-102724000D01*
X119735619Y-102800190D01*
X119773714Y-102952571D01*
X119773714Y-103219238D01*
X119735619Y-103371619D01*
X119659429Y-103447810D01*
X119583238Y-103485905D01*
X119430857Y-103485905D01*
X120535619Y-103485905D02*
X120078476Y-103485905D01*
X120307047Y-103485905D02*
X120307047Y-102685905D01*
X120230857Y-102800190D01*
X120154666Y-102876381D01*
X120078476Y-102914476D01*
X119303810Y-110166095D02*
X119227619Y-110128000D01*
X119151429Y-110051810D01*
X119037143Y-109937524D01*
X118960952Y-109899429D01*
X118884762Y-109899429D01*
X118922857Y-110089905D02*
X118846667Y-110051810D01*
X118770476Y-109975619D01*
X118732381Y-109823238D01*
X118732381Y-109556571D01*
X118770476Y-109404190D01*
X118846667Y-109328000D01*
X118922857Y-109289905D01*
X119075238Y-109289905D01*
X119151429Y-109328000D01*
X119227619Y-109404190D01*
X119265714Y-109556571D01*
X119265714Y-109823238D01*
X119227619Y-109975619D01*
X119151429Y-110051810D01*
X119075238Y-110089905D01*
X118922857Y-110089905D01*
X119532381Y-109289905D02*
X120027619Y-109289905D01*
X119760952Y-109594667D01*
X119875238Y-109594667D01*
X119951428Y-109632762D01*
X119989524Y-109670857D01*
X120027619Y-109747048D01*
X120027619Y-109937524D01*
X119989524Y-110013714D01*
X119951428Y-110051810D01*
X119875238Y-110089905D01*
X119646666Y-110089905D01*
X119570476Y-110051810D01*
X119532381Y-110013714D01*
X131749810Y-112198095D02*
X131673619Y-112160000D01*
X131597429Y-112083810D01*
X131483143Y-111969524D01*
X131406952Y-111931429D01*
X131330762Y-111931429D01*
X131368857Y-112121905D02*
X131292667Y-112083810D01*
X131216476Y-112007619D01*
X131178381Y-111855238D01*
X131178381Y-111588571D01*
X131216476Y-111436190D01*
X131292667Y-111360000D01*
X131368857Y-111321905D01*
X131521238Y-111321905D01*
X131597429Y-111360000D01*
X131673619Y-111436190D01*
X131711714Y-111588571D01*
X131711714Y-111855238D01*
X131673619Y-112007619D01*
X131597429Y-112083810D01*
X131521238Y-112121905D01*
X131368857Y-112121905D01*
X132016476Y-111398095D02*
X132054571Y-111360000D01*
X132130762Y-111321905D01*
X132321238Y-111321905D01*
X132397428Y-111360000D01*
X132435524Y-111398095D01*
X132473619Y-111474286D01*
X132473619Y-111550476D01*
X132435524Y-111664762D01*
X131978381Y-112121905D01*
X132473619Y-112121905D01*
D13*
X105655334Y-149160667D02*
X105655334Y-148460667D01*
X105922000Y-148460667D01*
X105988667Y-148494000D01*
X106022000Y-148527333D01*
X106055334Y-148594000D01*
X106055334Y-148694000D01*
X106022000Y-148760667D01*
X105988667Y-148794000D01*
X105922000Y-148827333D01*
X105655334Y-148827333D01*
X106288667Y-148460667D02*
X106722000Y-148460667D01*
X106488667Y-148727333D01*
X106588667Y-148727333D01*
X106655334Y-148760667D01*
X106688667Y-148794000D01*
X106722000Y-148860667D01*
X106722000Y-149027333D01*
X106688667Y-149094000D01*
X106655334Y-149127333D01*
X106588667Y-149160667D01*
X106388667Y-149160667D01*
X106322000Y-149127333D01*
X106288667Y-149094000D01*
D12*
X122027905Y-118370286D02*
X121646952Y-118636953D01*
X122027905Y-118827429D02*
X121227905Y-118827429D01*
X121227905Y-118522667D01*
X121266000Y-118446476D01*
X121304095Y-118408381D01*
X121380286Y-118370286D01*
X121494571Y-118370286D01*
X121570762Y-118408381D01*
X121608857Y-118446476D01*
X121646952Y-118522667D01*
X121646952Y-118827429D01*
X122027905Y-117608381D02*
X122027905Y-118065524D01*
X122027905Y-117836953D02*
X121227905Y-117836953D01*
X121342190Y-117913143D01*
X121418381Y-117989334D01*
X121456476Y-118065524D01*
X121227905Y-117113143D02*
X121227905Y-117036952D01*
X121266000Y-116960762D01*
X121304095Y-116922667D01*
X121380286Y-116884571D01*
X121532667Y-116846476D01*
X121723143Y-116846476D01*
X121875524Y-116884571D01*
X121951714Y-116922667D01*
X121989810Y-116960762D01*
X122027905Y-117036952D01*
X122027905Y-117113143D01*
X121989810Y-117189333D01*
X121951714Y-117227429D01*
X121875524Y-117265524D01*
X121723143Y-117303619D01*
X121532667Y-117303619D01*
X121380286Y-117265524D01*
X121304095Y-117227429D01*
X121266000Y-117189333D01*
X121227905Y-117113143D01*
D13*
X132071334Y-107758667D02*
X132071334Y-107058667D01*
X132238000Y-107058667D01*
X132338000Y-107092000D01*
X132404667Y-107158667D01*
X132438000Y-107225333D01*
X132471334Y-107358667D01*
X132471334Y-107458667D01*
X132438000Y-107592000D01*
X132404667Y-107658667D01*
X132338000Y-107725333D01*
X132238000Y-107758667D01*
X132071334Y-107758667D01*
X133138000Y-107758667D02*
X132738000Y-107758667D01*
X132938000Y-107758667D02*
X132938000Y-107058667D01*
X132871334Y-107158667D01*
X132804667Y-107225333D01*
X132738000Y-107258667D01*
X125213334Y-116140667D02*
X125213334Y-115440667D01*
X125380000Y-115440667D01*
X125480000Y-115474000D01*
X125546667Y-115540667D01*
X125580000Y-115607333D01*
X125613334Y-115740667D01*
X125613334Y-115840667D01*
X125580000Y-115974000D01*
X125546667Y-116040667D01*
X125480000Y-116107333D01*
X125380000Y-116140667D01*
X125213334Y-116140667D01*
X125880000Y-115507333D02*
X125913334Y-115474000D01*
X125980000Y-115440667D01*
X126146667Y-115440667D01*
X126213334Y-115474000D01*
X126246667Y-115507333D01*
X126280000Y-115574000D01*
X126280000Y-115640667D01*
X126246667Y-115740667D01*
X125846667Y-116140667D01*
X126280000Y-116140667D01*
M02*
